<?xml version="1.0" encoding="UTF-8"?><!DOCTYPE svg PUBLIC "-//W3C//DTD SVG 1.1//EN" "http://www.w3.org/Graphics/SVG/1.1/DTD/svg11.dtd"><svg xmlns="http://www.w3.org/2000/svg"><symbol id="arrow" viewBox="0 0 14 14"><path d="M12.147 11.667H1.853A1.16 1.16 0 0 0 .7 12.833 1.16 1.16 0 0 0 1.853 14h10.294a1.16 1.16 0 0 0 1.153-1.167 1.16 1.16 0 0 0-1.153-1.166zm-6-1.283c.21.21.48.32.756.34.032.002.064.01.097.01s.064-.008.096-.01c.276-.02.546-.13.757-.34l3.69-3.7a1.188 1.188 0 0 0 0-1.677 1.183 1.183 0 0 0-1.673 0l-1.703 1.71v-5.55a1.167 1.167 0 0 0-2.334 0v5.55L4.13 5.006a1.183 1.183 0 0 0-1.673 0 1.188 1.188 0 0 0 0 1.677l3.69 3.7z" fill="#fff"/></symbol><symbol id="b-welcome-logo" viewBox="0 0 205 227"><g fill="#fff" fill-rule="nonzero"><path d="M42.055 61.493v-4.72c2.818-.186 4.59-1.637 4.59-4.278 0-2.133-1.315-3.632-3.456-3.632-2.225 0-2.996 1.952-3.857 4.408C38.33 56 37.1 60.36 31.74 60.36c-3.727 0-7.27-3.135-7.27-7.91 0-2.857 1.772-7.585 7.36-7.723v4.73c-2.044.268-3.04 1.5-3.04 3.223 0 1.726 1.085 2.956 2.675 2.956 2.09 0 2.634-1.82 3.275-3.912.593-1.952 2.178-7.588 8.178-7.588 4.455 0 8.042 3.092 8.042 8.454 0 3.18-2 8.905-8.905 8.905M37.832 92.17c-6.137 0-13.36-4.318-13.36-13.36 0-3.5 1.45-6.728 4.22-8.544v-.093h-2.97v-4.726H50.33v4.726h-3.91v.093c3.095 1.816 4.542 5.137 4.542 8.543 0 8.497-6.493 13.36-13.128 13.36m-.14 51.058c-7.543 0-13.22-5.817-13.22-12.904 0-6.817 5.542-12.77 12.906-12.816.818 0 2.09.092 2.407.135v20.862c4.86-1.184 6.86-5.09 6.86-8.27 0-3.5-2.04-6.047-4.222-7.182v-4.725c6.498 2.404 8.537 8.18 8.537 12.086 0 7.137-6.133 12.814-13.268 12.814m12.636 24.148h-33.63v-8.724c0-9.497 6.955-10.5 9.316-10.5 3.726 0 5.36 1.866 6.36 3.005.82-1.414 2.96-5.002 8.18-5.002 3.457 0 9.774 1.907 9.774 11.176v10.046zm-33.975-57.838h23.813c3.1 0 5.31 0 5.532-3.05h4.822c0 1.502-.75 3.45-2.126 5.045-2.208 2.612-4.377 2.612-8.228 2.612H16.353v-4.607zm4.663-16.27c0 3.14 1.137 4.414 2.908 4.414h1.23v-4.414h4.315v4.414h20.858v4.72h-20.86v2.806h-4.315V102.4h-1.23c-2.68 0-4.547-1.042-5.86-2.994-1.23-2.044-1.366-3.364-1.366-6.138h4.32zm-1.574-58.284h5.627V30.69h4.203v4.294h14.162c1.73 0 2.83-1.236 2.83-4.295h4.206c0 2.702-.13 3.986-1.33 5.98-1.28 1.902-3.09 2.92-5.705 2.92H29.273v2.74H25.07v-2.74H19.44v-4.606zm142.46 81.89c-5.2-27.11-30.3-45.34-57.278-42.468a52.42 52.42 0 0 0 3.74-31.595C102.88 14.228 75.27-4.504 46.687.98 21.513 5.806.675 25.69.675 52.513l-.037-.005.38 127.067 107.54-.11c3.783.113 7.636-.18 11.515-.918 28.58-5.476 47.31-33.09 41.83-61.672M40.554 151.062c-1.222 0-2.41.5-3.316 1.183-2 1.496-2.04 3.772-2.04 5.496v4.727h10.627v-5.31c0-4.96-3.543-6.095-5.272-6.095M25.97 153.06c-4.775 0-4.775 4.594-4.775 5.682v3.725h9.498v-3.996c0-4.59-2.77-5.41-4.722-5.41m2.82-22.69c0 4.544 3.677 7.91 7.36 8.135v-16.27c-3.683.23-7.36 3.593-7.36 8.134m8.995-60.286c-5.367 0-8.995 3.864-8.995 8.725 0 5.817 5.043 8.635 8.995 8.635 4.543 0 8.86-3.59 8.86-8.587 0-4.96-4.047-8.774-8.86-8.774M139.818 201.953c-2.284 2.102-3.507 5.283-3.63 9.45V226.2h3.225v-14.808c0-2.916.637-4.998 2.003-6.553l.024-.027.018-.025c1.084-1.415 3.182-2.35 5.102-2.277 2.548.083 4.458.927 5.686 2.51 1.063 1.42 1.627 2.89 1.537 6.58v14.6h3.226v-14.58c0-3.718.297-4.906 1.674-6.69 1.37-1.784 3.743-2.42 5.51-2.42 2.176 0 3.852.597 4.984 1.767 1.485 1.486 2.2 3.884 2.2 7.344v14.58h3.23v-14.58c0-4.326-1.042-7.535-3.09-9.538-1.767-1.767-4.3-2.705-7.324-2.705-3.005 0-5.913 1.235-7.78 3.3-.38.415-.695.86-.985 1.32-.287-.478-.604-.94-.974-1.334-1.76-2.104-4.56-3.285-7.852-3.286-.34-.015-3.88-.096-6.786 2.576"/><path d="M146.604 199.378c.008 0 .042 0 .046.002l-.05-.002h.004M91.877 199.378c6.043 0 11.155 3.587 13.02 9.14l.43 1.28h-3.462l-.228-.65c-1.628-4.647-6.045-6.682-9.7-6.636-3.103.042-5.155.856-7.564 3.002-1.838 1.667-3.025 4.64-3.025 7.574 0 6.03 4.527 10.575 10.523 10.575 5.246-.042 8.713-3.342 9.716-6.39l.22-.665h3.482l-.44 1.285c-1.847 5.396-6.813 8.807-12.97 8.905-7.842 0-13.756-5.894-13.756-13.663 0-7.843 5.914-13.757 13.755-13.757M54.807 202.51c4.892-.195 9.49 3.778 10.284 8.552H44.485c.802-4.932 5.04-8.55 10.323-8.55m-13.8 10.623c0 7.768 5.914 13.662 13.755 13.662 5.71.053 10.467-3.01 12.714-8.192l.587-1.357h-3.517l-.263.56c-1.71 3.666-5.252 5.854-9.476 5.854-4.124.04-9.865-2.886-10.466-9.465h24.07l.11-1.647-.003-.053c-.32-7.48-6.213-13.12-13.71-13.12-7.867 0-13.8 5.915-13.8 13.758M190.43 202.51c4.89-.195 9.487 3.778 10.28 8.552h-20.605c.802-4.932 5.04-8.55 10.325-8.55m-13.804 10.623c0 7.768 5.916 13.662 13.76 13.662 5.708.053 10.464-3.01 12.71-8.192l.59-1.357h-3.52l-.26.56c-1.71 3.666-5.254 5.854-9.476 5.854-4.125.04-9.868-2.886-10.468-9.465h24.068l.11-1.647v-.053c-.32-7.48-6.214-13.12-13.71-13.12-7.87 0-13.804 5.915-13.804 13.758M110.055 213.088c0-6.03 4.527-10.576 10.53-10.576 6.004 0 10.532 4.546 10.532 10.576s-4.528 10.576-10.532 10.576c-6.003 0-10.53-4.547-10.53-10.576m-3.227 0c0 7.816 5.915 13.71 13.757 13.71s13.757-5.894 13.757-13.71c0-7.817-5.915-13.71-13.757-13.71s-13.757 5.893-13.757 13.71"/><path d="M71.303 190.33h3.18v25.447c0 4.27.867 7.18 5.047 7.316v3.136c-1.41-.048-3.317-.094-5.5-2-2.727-2.41-2.727-5.455-2.727-8.453V190.33zM34.912 224.185c2.286-2.102 3.507-5.28 3.63-9.446l.002-14.803h-3.227v14.81c0 2.915-.636 4.997-2.003 6.554l-.022.024-.02.026c-1.085 1.417-3.18 2.352-5.102 2.278-2.548-.082-4.458-.926-5.685-2.51-1.063-1.42-1.627-2.892-1.54-6.576v-14.605H17.72v14.58c0 3.72-.296 4.91-1.675 6.692-1.37 1.783-3.743 2.417-5.51 2.417-2.175 0-3.85-.593-4.982-1.764-1.486-1.486-2.202-3.885-2.202-7.345v-14.58H.125v14.58c0 4.325 1.04 7.537 3.088 9.537 1.768 1.768 4.302 2.706 7.324 2.706 3.006 0 5.913-1.23 7.78-3.298.378-.414.694-.86.985-1.32.287.48.605.94.975 1.334 1.76 2.104 4.56 3.285 7.852 3.285.34.016 3.88.098 6.785-2.575"/></g></symbol><symbol id="bt1apartments-gray" viewBox="0 0 100 55"><g fill-rule="nonzero"><g fill="#a6a6a6"><path d="M8.087 49.907H9.45l-.725-1.845H4.397l-.707 1.845h1.328v1.724H0v-1.965h1.31l3.587-8.38H3.535V39.32h4.12l4.312 10.345h1.31v1.966h-5.19v-1.723zm-1.5-7.88H6.57L5 46.252H8.14l-1.55-4.225zM14.793 44.39H13.62v-1.966h3.294v1.448c.673-1.052 1.776-1.552 3.018-1.552 2.603 0 4.69 2.14 4.69 4.742 0 2.517-2.035 4.707-4.587 4.707-1.207 0-2.38-.466-3.12-1.432v2.69h1.19v1.966H13.62v-1.966h1.173v-8.64zm7.656 2.672c0-1.5-1.19-2.81-2.726-2.81-1.55 0-2.827 1.206-2.827 2.793a2.775 2.775 0 0 0 2.776 2.776c1.517 0 2.776-1.24 2.776-2.758M32.604 50.39c-.673 1.017-1.76 1.483-2.966 1.483-2.638 0-4.724-2.19-4.724-4.794 0-2.673 2.138-4.898 4.827-4.898 1.19 0 2.226.552 2.864 1.553v-1.31h3.293v1.964h-1.155v5.276h1.155v1.965h-3.293v-1.24zm.035-3.414c0-1.517-1.26-2.742-2.778-2.742-1.57 0-2.776 1.294-2.776 2.845 0 1.5 1.26 2.74 2.742 2.74 1.586 0 2.81-1.275 2.81-2.844M39.517 43.993c.535-1.086 1.57-1.62 2.76-1.672v2.156c-.673.034-1.294.207-1.812.672-.69.586-.793 1.328-.793 2.19v2.328h1.19v1.966H36.38v-1.966h1.19V44.39h-1.19v-1.966h3.137v1.57zM46.396 49.666h1.673v1.965h-3.777v-7.24h-1.448v-1.966h1.448V39.32h2.103v3.104h1.57v1.965h-1.57v5.276zM50.034 44.39h-1.19v-1.966h3.104v1.38c.586-.966 1.483-1.604 2.656-1.604 1.276 0 2.344.776 2.862 1.93.5-1.172 1.74-1.93 3.017-1.93 1 0 1.983.413 2.655 1.172.725.845.725 1.76.725 2.81v3.484h1.19v1.965H60.57v-1.964h1.19V46.7c0-.604 0-1.138-.277-1.672-.344-.5-.913-.76-1.5-.76-.57 0-1.19.242-1.552.69-.43.552-.43 1.07-.43 1.742v2.966h1.19v1.965h-4.483v-1.964h1.19v-2.828c0-.552 0-1.24-.276-1.724-.292-.552-.896-.846-1.517-.846-.586 0-1.085.208-1.465.673-.466.57-.5 1.173-.5 1.88v2.846h1.19v1.965h-4.484v-1.964h1.19V44.39zM74.81 48.924c-.724 1.76-2.43 2.95-4.345 2.95-2.69 0-4.845-2.105-4.845-4.812 0-2.724 2.052-4.914 4.793-4.914 1.276 0 2.553.57 3.45 1.483.913.966 1.292 2.14 1.292 3.45l-.07.74H67.64c.276 1.277 1.448 2.208 2.758 2.208.915 0 1.707-.345 2.225-1.104h2.19zM73.208 46.2c-.362-1.327-1.535-2.172-2.897-2.172-1.242 0-2.43.965-2.69 2.172h5.587zM76.88 44.39h-1.19v-1.966h3.292v1.31c.552-1.017 1.587-1.517 2.725-1.517 1 0 1.983.414 2.655 1.138.76.845.776 1.655.776 2.707v3.604h1.19v1.965h-4.483v-1.964h1.19v-2.984c0-.57 0-1.155-.363-1.654-.38-.5-1-.742-1.62-.742-.64 0-1.294.258-1.673.776-.398.517-.398 1.31-.398 1.93v2.674h1.19v1.965H75.69v-1.964h1.19V44.39zM90.19 49.666h1.672v1.965h-3.776v-7.24h-1.45v-1.966h1.45V39.32h2.103v3.104h1.568v1.965h-1.57v5.276zM94.88 48.96c.068.827.62 1.378 1.482 1.378.638 0 1.258-.448 1.258-1.138 0-.914-.862-1.07-1.57-1.258-1.602-.414-3.36-.914-3.36-2.93 0-1.76 1.482-2.778 3.12-2.778.827 0 1.57.173 2.086.828v-.638h1.552v2.5h-2.035c-.034-.655-.534-1.086-1.19-1.086-.568 0-1.172.328-1.172.965 0 .862.846 1.052 1.52 1.207 1.654.38 3.43.897 3.43 2.966 0 1.862-1.57 2.897-3.294 2.897-.93 0-1.776-.293-2.38-1v.758h-1.603v-2.67h2.156z"/></g><g fill="#fff"><path d="M87.61 29.56c-1.09 2.646-3.66 4.437-6.54 4.437-4.05 0-7.293-3.166-7.293-7.24 0-4.1 3.088-7.396 7.214-7.396 1.922 0 3.842.857 5.19 2.232 1.377 1.453 1.948 3.218 1.948 5.19l-.104 1.116h-11.21c.415 1.92 2.18 3.322 4.15 3.322 1.377 0 2.57-.52 3.35-1.66h3.295zm-2.415-4.1c-.545-2-2.31-3.27-4.36-3.27-1.868 0-3.66 1.452-4.048 3.27h8.408zM71.494 30.675V25.25c0-1.582-.026-2.8-1.167-4.073-1.013-1.09-2.492-1.713-3.997-1.713-1.712 0-3.27.753-4.1 2.284v-1.972h-4.75c-1.077-5.146-5.726-9.045-11.175-9.045-6.38 0-11.564 5.063-11.564 11.505 0 6.263 5.064 11.32 11.308 11.407l-.017.004h9.614v-1.63h1.385V24.01h-1.732v-1.88h3.906v9.89h1.384v1.615h3.432v-2.958h-1.79v-4.023c0-.934 0-2.127.597-2.906.57-.778 1.557-1.167 2.517-1.167.934 0 1.87.362 2.44 1.114.545.753.545 1.635.545 2.492v4.49h-1.792v2.957h6.747v-2.958h-1.79zm-25.28-1.2c-4.05 0-7.18-3.314-7.18-7.363 0-4.02 3.252-7.21 7.24-7.21 3.927 0 7.147 3.253 7.147 7.18 0 4.05-3.127 7.392-7.207 7.392M19.7 26.283c1.16-.542 1.798-1.683 1.798-2.94 0-1.1-.406-2.067-1.295-2.743-.83-.62-1.837-.716-2.86-.716h-6.128v2.204h1.488v9.394h-1.488v2.203h6.417c1.18 0 2.242-.115 3.17-.927.83-.716 1.295-1.817 1.295-2.92 0-1.642-.87-2.937-2.397-3.555m-4.35-4.195h1.354c.56 0 1.18-.04 1.662.27.484.31.716.812.716 1.373 0 .523-.194 1.006-.62 1.315-.54.387-1.14.348-1.777.348H15.35v-3.305zm3.345 8.95c-.54.367-1.295.347-1.914.347h-1.448v-3.827h1.47c.675 0 1.352 0 1.913.406.52.387.753.947.753 1.566 0 .58-.27 1.18-.773 1.507M33.45 19.884H22.772v4.35h2.087v-2.01h2.03v9.258h-1.508v2.203h5.644v-2.203h-1.508v-9.26h2.03v2.01h1.85a11.98 11.98 0 0 1-.172-1.997c0-.8.077-1.585.223-2.35"/></g></g></symbol><symbol id="bt1apartments" viewBox="0 0 279 153"><g fill-rule="nonzero"><path d="M24.125 138.61h3.763l-2-5.096H13.93l-1.952 5.097h3.667v4.764H1.783v-5.43h3.62l9.91-23.15h-3.764v-5.432h11.384l11.91 28.58h3.62v5.432h-14.34v-4.763zm-4.145-21.77h-.048l-4.334 11.672h8.67l-4.288-11.67zM42.653 123.367h-3.24v-5.43h9.1v4c1.857-2.905 4.906-4.286 8.336-4.286 7.19 0 12.955 5.908 12.955 13.1 0 6.955-5.62 13.005-12.67 13.005-3.336 0-6.574-1.286-8.623-3.954v7.433H51.8v5.43H39.412v-5.43h3.24v-23.866zm21.15 7.384c0-4.144-3.287-7.764-7.527-7.764-4.287 0-7.812 3.334-7.812 7.717 0 4.24 3.43 7.67 7.67 7.67 4.192 0 7.67-3.43 7.67-7.622M91.858 139.945c-1.858 2.81-4.86 4.096-8.193 4.096-7.288 0-13.052-6.048-13.052-13.24 0-7.385 5.906-13.53 13.337-13.53 3.287 0 6.145 1.525 7.908 4.288v-3.62h9.1v5.43h-3.193v14.576h3.192v5.43h-9.1v-3.43zm.096-9.432c0-4.192-3.478-7.574-7.67-7.574-4.335 0-7.67 3.572-7.67 7.86 0 4.143 3.478 7.573 7.575 7.573 4.38 0 7.764-3.525 7.764-7.86M110.958 122.272c1.476-3 4.335-4.478 7.622-4.62v5.953c-1.858.096-3.573.573-5.003 1.86-1.905 1.618-2.19 3.667-2.19 6.05v6.43h3.286v5.43h-12.385v-5.43h3.287v-14.578h-3.287v-5.43h8.67v4.335zM129.963 137.944h4.62v5.43h-10.43v-20.007h-4.003v-5.43h4.002v-8.575h5.81v8.575h4.336v5.43h-4.335v14.577zM140.013 123.367h-3.287v-5.43h8.575v3.81c1.62-2.667 4.097-4.43 7.337-4.43 3.525 0 6.478 2.144 7.907 5.335 1.382-3.24 4.81-5.335 8.336-5.335 2.763 0 5.478 1.143 7.336 3.24 2 2.334 2 4.86 2 7.763v9.624h3.29v5.43h-12.387v-5.43h3.285v-8.194c0-1.668 0-3.144-.762-4.62-.952-1.382-2.524-2.097-4.144-2.097-1.573 0-3.287.667-4.288 1.906-1.19 1.523-1.19 2.953-1.19 4.81v8.194h3.286v5.43h-12.385v-5.43h3.287v-7.813c0-1.523 0-3.428-.763-4.762-.81-1.525-2.477-2.335-4.192-2.335-1.62 0-3 .572-4.05 1.86-1.285 1.57-1.38 3.237-1.38 5.19v7.86h3.287v5.43h-12.386v-5.43h3.287v-14.576zM208.463 135.896c-2 4.86-6.717 8.146-12.005 8.146-7.43 0-13.386-5.812-13.386-13.29 0-7.527 5.67-13.577 13.243-13.577 3.525 0 7.05 1.572 9.528 4.096 2.524 2.67 3.572 5.91 3.572 9.53l-.19 2.047h-20.58c.764 3.526 4.002 6.098 7.623 6.098 2.526 0 4.716-.953 6.146-3.05h6.05zm-4.43-7.527c-1-3.668-4.24-6.002-8.003-6.002-3.43 0-6.717 2.666-7.432 6h15.434zM214.177 123.367h-3.287v-5.43h9.098v3.62c1.525-2.81 4.383-4.192 7.527-4.192 2.763 0 5.478 1.143 7.336 3.143 2.097 2.335 2.144 4.573 2.144 7.48v9.956h3.288v5.43h-12.386v-5.43h3.287v-8.242c0-1.572 0-3.19-1-4.572-1.05-1.382-2.764-2.05-4.478-2.05-1.763 0-3.573.715-4.62 2.145-1.097 1.43-1.097 3.62-1.097 5.335v7.384h3.288v5.43H210.89v-5.43h3.287v-14.577zM250.95 137.944h4.62v5.43H245.14v-20.007h-4v-5.43h4v-8.575h5.812v8.575h4.335v5.43h-4.335v14.577zM263.906 135.99c.19 2.288 1.714 3.81 4.096 3.81 1.763 0 3.478-1.237 3.478-3.142 0-2.525-2.382-2.954-4.335-3.477-4.43-1.142-9.29-2.524-9.29-8.097 0-4.86 4.097-7.67 8.623-7.67 2.286 0 4.335.476 5.764 2.286v-1.763h4.288v6.907h-5.622c-.095-1.81-1.476-3-3.287-3-1.57 0-3.238.905-3.238 2.667 0 2.382 2.334 2.907 4.192 3.335 4.573 1.05 9.48 2.478 9.48 8.193 0 5.146-4.335 8.003-9.1 8.003-2.57 0-4.906-.808-6.572-2.76v2.094h-4.43v-7.383h5.954z" fill="#7a909f"/><path fill="#4b6a90" d="M.876.732h276.27v104.33H.875z"/><path d="M243.82 82.395c-3.01 7.313-10.11 12.26-18.066 12.26-11.185 0-20.147-8.747-20.147-20.003 0-11.328 8.53-20.432 19.932-20.432 5.304 0 10.61 2.365 14.337 6.165 3.8 4.014 5.378 8.89 5.378 14.34l-.288 3.08h-30.97c1.146 5.307 6.02 9.178 11.47 9.178 3.8 0 7.098-1.433 9.25-4.588h9.104zm-6.667-11.328c-1.506-5.52-6.38-9.033-12.045-9.033-5.162 0-10.11 4.015-11.184 9.033h23.23zM199.3 85.478V70.494c0-4.373-.07-7.743-3.225-11.256-2.797-3.01-6.883-4.732-11.042-4.732-4.73 0-9.033 2.08-11.327 6.31v-5.45h-13.12C157.61 41.15 144.763 30.38 129.71 30.38c-17.627 0-31.95 13.983-31.95 31.78 0 17.304 13.99 31.27 31.24 31.514l-.047.012h26.56v-4.5h3.824V67.06h-4.78v-5.192h10.79v27.32h3.824v4.463h9.483V85.48h-4.947V74.365c0-2.58 0-5.878 1.65-8.03 1.577-2.15 4.3-3.225 6.954-3.225 2.58 0 5.162 1.004 6.738 3.083 1.507 2.08 1.507 4.516 1.507 6.883v12.402h-4.947v8.173h18.64V85.48H199.3zm-69.845-3.318c-11.186 0-19.83-9.153-19.83-20.34 0-11.1 8.983-19.914 20-19.914 10.848 0 19.745 8.983 19.745 19.83 0 11.187-8.643 20.424-19.915 20.424M56.21 73.343c3.203-1.496 4.965-4.647 4.965-8.117 0-3.044-1.12-5.714-3.578-7.583-2.296-1.71-5.073-1.976-7.903-1.976H32.766v6.088h4.112v25.952h-4.112v6.088h17.728c3.258 0 6.195-.32 8.758-2.563 2.296-1.976 3.578-5.02 3.578-8.064 0-4.54-2.403-8.116-6.62-9.825M44.193 61.755h3.738c1.548 0 3.257-.107 4.592.748 1.335.854 1.976 2.242 1.976 3.79 0 1.443-.534 2.778-1.71 3.632-1.494 1.068-3.15.96-4.912.96h-3.684v-9.13zm9.238 24.724c-1.495 1.014-3.578.96-5.287.96H44.14V76.868h4.06c1.867 0 3.737 0 5.286 1.12 1.44 1.07 2.082 2.618 2.082 4.327 0 1.603-.748 3.258-2.136 4.165M94.194 55.667H64.697v12.015h5.767v-5.554h5.608v25.58h-4.166v6.087H87.5v-6.088h-4.166v-25.58h5.607v5.555h5.11c-.305-1.8-.472-3.643-.472-5.522 0-2.207.21-4.378.616-6.493" fill="#fff"/></g></symbol><symbol id="checked" viewBox="0 0 415 415"><path d="M411.47 96.426l-46.32-46.32c-5.48-5.482-14.37-5.482-19.852 0l-192.95 192.952-82.066-82.064c-5.48-5.482-14.37-5.482-19.85 0l-46.32 46.32c-5.482 5.48-5.482 14.37 0 19.852l138.31 138.31a13.99 13.99 0 0 0 9.927 4.112c3.592 0 7.185-1.37 9.925-4.112l249.195-249.2a14.034 14.034 0 0 0 0-19.85z" fill="#fff" fill-rule="nonzero"/></symbol><symbol id="discoverni-logo" viewBox="0 0 661 191"><g fill-rule="nonzero"><path d="M82.298.932L74.78 5.276c-.007 0-.01.006-.02.01L7.536 44.096l35.59 20.547L82.297.933z" fill="#fdba11"/><path d="M82.304 87.264l74.757-43.166.003-.003L89.843 5.29c-.004-.004-.008-.008-.013-.008L82.298.932l-39.17 63.71 39.176 22.622zM43.127 64.643L7.537 44.095 29.375 87.01l13.752-22.367z" fill="#faa21a"/><path d="M43.127 64.643L29.375 87.01l12.123 23.81 40.806-23.556-39.177-22.62zM82.304 87.264l40.798 23.557 33.96-66.722-74.758 43.166zM7.537 44.095C3.387 46.485 0 52.372 0 57.165v77.622L29.375 87.01 7.537 44.096z" fill="#f5821f"/><path d="M41.498 110.82l40.795 80.173.005.007 40.804-80.18-40.798-23.556-40.806 23.557zM123.102 110.82l41.505 23.967-.002-77.622c.002-1.6-.384-3.324-1.04-4.996-1.313-3.337-3.733-6.48-6.5-8.075l-.004.003-33.958 66.723zM29.375 87.01L0 134.788l41.498-23.966-12.123-23.81z" fill="#f26321"/><path d="M123.102 110.82L82.298 191h.006l7.317-4.222c.028-.02.06-.035.09-.05l.03-.02c.03-.014.066-.03.1-.053l16.486-9.516 50.737-29.294c1.806-1.04 3.468-2.738 4.77-4.72 1.69-2.58 2.774-5.635 2.774-8.34l-41.505-23.965zM82.293 190.993L41.498 110.82 0 134.788c0 2.756 1.128 5.88 2.878 8.493 1.288 1.91 2.907 3.554 4.663 4.566l49.89 28.807 17.335 10.002c.03.023.07.04.102.054l.03.02c.03.013.062.028.087.048l7.31 4.215z" fill="#ef4623"/><path d="M117.59 140.88c-10.58 5.007-23.797-9.29-30.178-18.973 6.38-9.686 19.598-23.994 30.178-18.987 8.36 3.957 6.89 15.532-1.352 18.973 8.24 3.46 9.713 15.033 1.352 18.986zm-38.448 17.468l1.684-31.406h3.04l1.688 31.406h-6.412zm-32.04-17.47c-8.36-3.952-6.89-15.526 1.345-18.985-8.235-3.44-9.705-15.016-1.344-18.973 10.578-5.007 23.795 9.3 30.18 18.987-6.385 9.684-19.602 23.98-30.18 18.972z" fill="#fff"/><path d="M63.37 85.843c3.95-8.36 15.528-6.89 18.98 1.34 3.452-8.23 15.02-9.7 18.976-1.34 5.004 10.582-9.3 23.798-18.983 30.183-9.683-6.385-23.984-19.6-18.974-30.183z" fill="#fae0b1"/><path d="M422.9 122.684V95.118l-3.226-1.1c-.547-.21-.748-.35-.748-1.097v-4.198h8.86c.9 0 1.165.212 1.444.822l1.028 2.478c2.2-2.478 5.64-4.06 9.762-4.06 3.785 0 7.355 1.246 9.7 3.644 2.118 2.27 3.294 5.084 3.294 10.596v20.482h-8.04V103.23c0-3.17-.42-5.024-1.716-6.33-1.178-1.17-3.096-1.782-5.3-1.782-2.198 0-4.12.613-5.286 1.78-1.315 1.308-1.725 3.163-1.725 6.33v19.456H422.9zM464.62 83.772c-3.628 0-4.807-1.65-4.807-4.812 0-3.166 1.18-4.81 4.806-4.81 3.653 0 4.818 1.644 4.818 4.81 0 3.162-1.165 4.812-4.82 4.812zm-3.778 11.346l-3.237-1.1c-.548-.21-.753-.35-.753-1.097v-4.198h10.87c.952 0 1.165.212 1.165 1.033v26.88h3.023c.684 0 .9.2.9.756v5.294h-16.154v-4.05c0-.56.133-.84.744-1.038l3.442-1.03V95.117z" fill="#f47720"/><g fill="#fff"><path d="M205.965 122.684V95.118l-3.242-1.1c-.55-.21-.752-.35-.752-1.097v-4.198h8.864c.896 0 1.178.212 1.445.822l1.03 2.478c2.208-2.478 5.637-4.06 9.768-4.06 3.776 0 7.356 1.246 9.69 3.644 2.127 2.27 3.293 5.084 3.293 10.596v20.482h-8.037V103.23c0-3.17-.41-5.024-1.72-6.33-1.166-1.17-3.09-1.782-5.29-1.782-2.202 0-4.13.613-5.294 1.78-1.314 1.308-1.722 3.163-1.722 6.33v19.456h-8.033zM256.885 94.84c-5.283 0-8.174 3.643-8.174 10.862 0 7.224 2.892 10.863 8.175 10.863 5.304 0 8.187-3.64 8.187-10.863 0-7.22-2.883-10.86-8.187-10.86zm0-6.878c11.35 0 16.37 7.838 16.37 17.74 0 9.896-5.02 17.738-16.37 17.738-11.336 0-16.352-7.842-16.352-17.738 0-9.902 5.016-17.74 16.352-17.74zM275.383 118.635c0-.562.133-.84.752-1.04l3.44-1.03V95.118l-3.23-1.1c-.546-.21-.757-.35-.757-1.097v-4.198h8.87c.896 0 1.23.212 1.446.822l1.03 3.025c1.927-2.884 4.812-4.608 8.11-4.608.825 0 1.93.135 2.477.35.755.27 1.03.622 1.03 1.443v5.834h-2.814c-3.517 0-5.228.56-6.394 1.8-1.313 1.376-1.725 3.58-1.725 7.35v11.895h6.057c.68 0 .822.2.822.756v5.294h-19.113v-4.05zM309.754 111.953c0 1.86.205 3.032 1.03 3.852.69.69 1.927 1.176 3.704 1.176 1.45 0 3.657-.206 5.375-.484v4.96c0 .54-.21.742-.69.882-1.784.614-4.685 1.102-7.083 1.102-3.504 0-6.045-.828-7.768-2.55-1.785-1.78-2.615-4.464-2.615-8.522V82.602c0-1.027.348-1.37 1.38-1.37h6.667v7.49h9.557v5.628c0 .555-.267.768-.888.768h-8.668v16.835zM325.154 122.684V82.122l-3.234-1.096c-.55-.21-.75-.347-.75-1.105v-4.195h10.853c.965 0 1.176.215 1.176 1.038v14.574c2.2-1.998 5.427-3.375 9.068-3.375 3.783 0 7.353 1.246 9.7 3.644 2.126 2.27 3.292 5.084 3.292 10.596v20.482h-8.047V103.23c0-3.17-.408-5.024-1.71-6.33-1.173-1.17-3.093-1.782-5.298-1.782-2.193 0-4.12.613-5.29 1.78-1.308 1.308-1.716 3.163-1.716 6.33v19.456h-8.046zM383.166 102.82c-.205-5.085-3.092-8.184-7.416-8.184-4.682 0-7.158 3.154-7.707 8.185h15.123zm-15.123 6.046c.613 5.086 4.47 8.046 11.414 8.046 3.023 0 6.95-.554 9.29-1.037v5.23c0 .616-.218.755-.618.89-2.692.824-7.026 1.445-10.323 1.445-6.045 0-10.522-1.72-13.405-4.533-3.226-3.166-4.744-7.912-4.744-13.143 0-10.25 5.57-17.802 16.014-17.802 10.312 0 15.54 7.017 15.54 17.19 0 1.23-.07 2.276-.27 3.02-.145.555-.483.694-1.112.694h-21.787zM393.814 118.635c0-.562.15-.84.766-1.04l3.436-1.03V95.118l-3.235-1.1c-.548-.21-.753-.35-.753-1.097v-4.198h8.868c.894 0 1.242.212 1.44.822l1.034 3.025c1.925-2.884 4.816-4.608 8.11-4.608.827 0 1.926.135 2.473.35.76.27 1.03.622 1.03 1.443v5.834h-2.81c-3.52 0-5.23.56-6.394 1.8-1.313 1.376-1.717 3.58-1.717 7.35v11.895h6.054c.68 0 .813.2.813.756v5.294h-19.116v-4.05zM474.453 118.635c0-.562.137-.84.748-1.04l3.448-1.03V95.118l-3.23-1.1c-.55-.21-.764-.35-.764-1.097v-4.198h8.875c.894 0 1.23.212 1.445.822l1.03 3.025c1.927-2.884 4.808-4.608 8.114-4.608.816 0 1.91.135 2.464.35.756.27 1.04.622 1.04 1.443v5.834H494.8c-3.507 0-5.222.56-6.4 1.8-1.296 1.376-1.71 3.58-1.71 7.35v11.895h6.05c.678 0 .813.2.813.756v5.294h-19.1v-4.05zM521.818 102.82c-.2-5.085-3.09-8.184-7.423-8.184-4.674 0-7.147 3.154-7.704 8.185h15.128zm-15.127 6.046c.624 5.086 4.47 8.046 11.414 8.046 3.033 0 6.94-.554 9.28-1.037v5.23c0 .616-.212.755-.613.89-2.69.824-7.025 1.445-10.315 1.445-6.05 0-10.506-1.72-13.406-4.533-3.234-3.166-4.747-7.912-4.747-13.143 0-10.25 5.57-17.802 16.02-17.802 10.31 0 15.538 7.017 15.538 17.19 0 1.23-.065 2.276-.264 3.02-.147.555-.498.694-1.098.694H506.69zM543.123 116.635h3.297c.693 0 .828.2.828.756v5.294h-5.916c-2.396 0-3.842-.412-4.8-1.303-1.032-.966-1.448-2.343-1.448-4.815V82.122l-3.23-1.096c-.547-.21-.76-.347-.76-1.105v-4.195h10.865c.962 0 1.163.215 1.163 1.038v39.872zM573.104 103.098c0-2.898-.415-4.822-1.79-6.26-1.232-1.324-3.162-2.128-5.57-2.128-5.152 0-8.39 3.978-8.39 10.992 0 7.156 2.746 10.994 8.253 10.994 2.4 0 4.397-.82 5.64-2.127 1.366-1.447 1.857-3.37 1.857-6.25v-5.222zm1.785-13.554c.14-.61.41-.822 1.106-.822h5.072v27.913h3.307c.68 0 .82.2.82.756v5.294h-6.937c-3.026 0-4.467-1.168-5.02-3.096-2.205 2.334-5.845 3.852-9.623 3.852-8.523 0-14.44-6.604-14.44-17.6 0-10.722 6.25-17.878 15.257-17.878 4.056 0 7.562 1.65 9.765 4.396l.692-2.814zM590.14 122.684V95.118l-3.234-1.1c-.547-.21-.752-.35-.752-1.097v-4.198h8.864c.896 0 1.177.212 1.455.822l1.03 2.478c2.196-2.478 5.626-4.06 9.757-4.06 3.783 0 7.36 1.246 9.69 3.644 2.13 2.27 3.308 5.084 3.308 10.596v20.482h-8.047V103.23c0-3.17-.415-5.024-1.716-6.33-1.176-1.17-3.103-1.782-5.297-1.782-2.19 0-4.12.613-5.293 1.78-1.304 1.308-1.715 3.163-1.715 6.33v19.456h-8.05zM648.852 103.098c0-2.898-.41-4.822-1.79-6.26-1.248-1.324-3.228-2.128-5.636-2.128-5.164 0-8.526 3.978-8.526 10.992 0 7.156 2.88 10.994 8.38 10.994 2.408 0 4.48-.82 5.716-2.127 1.367-1.447 1.856-3.37 1.856-6.25v-5.222zm-9.565 20.342c-8.525 0-14.56-6.604-14.56-17.6 0-10.722 6.382-17.878 15.39-17.878 3.362 0 6.46 1.18 8.66 3.17v-9.01l-3.228-1.096c-.55-.21-.76-.347-.76-1.105v-4.195h10.864c.963 0 1.166.215 1.166 1.038v39.872h3.303c.682 0 .816.2.816.756v5.294h-7.002c-3.237 0-4.48-1.098-4.95-3.16-2.207 2.336-5.914 3.916-9.7 3.916zM227.352 48.18c0-2.886-.422-4.822-1.79-6.255-1.23-1.31-3.234-2.133-5.64-2.133-5.164 0-8.533 3.986-8.533 11.004 0 7.148 2.89 10.996 8.395 10.996 2.406 0 4.47-.815 5.707-2.137 1.373-1.437 1.86-3.357 1.86-6.246v-5.23zm-9.563 20.342c-8.53 0-14.587-6.588-14.587-17.584 0-10.734 6.404-17.883 15.412-17.883 3.373 0 6.467 1.163 8.668 3.17v-9.017l-3.228-1.108c-.56-.2-.772-.34-.772-1.1v-4.19h10.875c.957 0 1.168.212 1.168 1.03v39.89h3.3c.692 0 .82.204.82.747v5.295h-7.012c-3.227 0-4.467-1.095-4.952-3.162-2.195 2.348-5.908 3.912-9.693 3.912zM249.566 28.854c-3.652 0-4.81-1.646-4.81-4.804 0-3.164 1.158-4.82 4.81-4.82 3.647 0 4.803 1.656 4.803 4.82 0 3.158-1.157 4.804-4.804 4.804zm-3.79 11.35l-3.225-1.106c-.556-.2-.763-.335-.763-1.1v-4.194h10.865c.967 0 1.168.197 1.168 1.033V61.73h3.037c.674 0 .885.204.885.747v5.295h-16.158v-4.045c0-.554.137-.834.754-1.037l3.437-1.033V40.204zM268.266 61.864c1.44.34 3.43.486 5.36.486 2.192 0 4.062-.347 5.16-.953 1.105-.638 1.65-1.672 1.65-2.914 0-2.054-1.243-3.025-5.442-4.037l-4.394-1.113c-6.66-1.647-9.973-4.33-9.973-10.106 0-3.23 1.176-5.703 3.314-7.425 2.466-1.998 5.98-2.747 10.787-2.747 3.644 0 7.7.475 10.175 1.3 1.244.413 1.446.898 1.446 1.65v7.904h-4.46c-1.11 0-1.324-.27-1.53-.896l-1.016-3.423c-1.176-.214-3.104-.333-4.893-.333-3.92 0-6.184.74-6.184 3.36 0 1.917 1.232 2.954 5.09 3.92l4.607 1.167c6.738 1.707 10.174 3.777 10.174 10.514 0 3.09-1.106 5.51-2.96 7.216-2.34 2.137-5.984 3.088-11.55 3.088-4.06 0-8.73-.61-11.21-1.283-1.027-.282-1.228-.768-1.228-1.66v-8.046h4.738c.822 0 1.166.205 1.37.885l.968 3.444zM314.748 44.75c-1.03 0-1.23-.35-1.512-1.04l-1.443-3.918c-.69-.127-1.855-.274-2.752-.274-2.88 0-5.23.82-6.802 2.47-1.86 1.92-2.685 4.952-2.685 8.808 0 3.37.824 6.195 2.414 8.035 1.78 2.07 4.453 3.24 8.79 3.24 2.333 0 5.714-.413 7.915-.888v5.356c0 .486-.207.7-.682.832-2.482.756-5.992 1.152-8.802 1.152-5.305 0-9.846-1.355-13.016-4.455-3.012-2.955-4.805-7.43-4.805-13.13 0-5.86 1.932-10.6 5.305-13.694 2.945-2.684 7.137-4.188 12.37-4.188 3.3 0 6.73.676 9.01 1.504.964.343 1.096.755 1.096 1.665v8.524h-4.4zM338.342 39.927c-5.3 0-8.194 3.636-8.194 10.87 0 7.22 2.893 10.86 8.194 10.86 5.29 0 8.18-3.64 8.18-10.86 0-7.234-2.89-10.87-8.18-10.87zm0-6.872c11.347 0 16.363 7.833 16.363 17.74 0 9.893-5.016 17.727-16.363 17.727-11.354 0-16.37-7.834-16.37-17.726 0-9.908 5.016-17.74 16.37-17.74zM364.252 33.804c.486 0 .766.126.967.755l7.56 24.413h.07l7.636-24.414c.202-.63.475-.756.96-.756h7.568L376.9 67.772h-7.822c-.685 0-.97-.2-1.176-.748l-9.562-26.888-3.365-1.104c-.54-.2-.75-.412-.75-.95v-4.278h10.027zM412.12 47.907c-.204-5.086-3.106-8.182-7.43-8.182-4.667 0-7.135 3.166-7.71 8.182h15.14zm-15.14 6.05c.633 5.09 4.48 8.046 11.426 8.046 3.03 0 6.95-.563 9.282-1.026v5.22c0 .618-.208.76-.62.9-2.673.814-7.002 1.425-10.31 1.425-6.045 0-10.524-1.707-13.414-4.53-3.223-3.16-4.74-7.907-4.74-13.126 0-10.25 5.57-17.81 16.017-17.81 10.327 0 15.544 7.013 15.544 17.193 0 1.23-.07 2.26-.273 3.01-.132.553-.474.696-1.09.696h-21.82zM422.785 63.727c0-.554.133-.834.75-1.037l3.442-1.033V40.204l-3.23-1.106c-.554-.2-.76-.335-.76-1.1v-4.194h8.868c.895 0 1.24.197 1.44.826l1.05 3.03c1.91-2.892 4.805-4.605 8.108-4.605.826 0 1.916.14 2.47.336.755.27 1.026.61 1.026 1.447v5.842h-2.813c-3.51 0-5.24.557-6.4 1.795-1.298 1.377-1.725 3.582-1.725 7.352V61.73h6.058c.684 0 .832.204.832.747v5.295h-19.117v-4.045zM198.096 164.373c-2.78 0-3.733-1.418-3.733-3.836 0-2.414.953-3.84 3.733-3.84 2.79 0 3.73 1.426 3.73 3.84 0 2.418-.94 3.836-3.73 3.836zM222.484 146.2c-.785 0-.94-.262-1.154-.795l-1.105-2.99a12.09 12.09 0 0 0-2.098-.21c-2.203 0-3.996.635-5.203 1.89-1.412 1.468-2.043 3.784-2.043 6.724 0 2.57.632 4.733 1.83 6.143 1.37 1.582 3.42 2.47 6.73 2.47 1.787 0 4.36-.312 6.042-.677v4.092c0 .373-.16.527-.53.635-1.89.574-4.565.89-6.72.89-4.052 0-7.515-1.045-9.93-3.412-2.314-2.262-3.68-5.673-3.68-10.034 0-4.465 1.474-8.086 4.05-10.453 2.258-2.05 5.46-3.207 9.455-3.207 2.518 0 5.144.525 6.887 1.156.726.254.838.57.838 1.262v6.516h-3.368zM240.504 142.514c-4.045 0-6.252 2.795-6.252 8.305 0 5.516 2.207 8.3 6.252 8.3 4.05 0 6.254-2.784 6.254-8.3 0-5.51-2.203-8.306-6.254-8.306zm0-5.248c8.67 0 12.5 5.996 12.5 13.553 0 7.567-3.83 13.553-12.5 13.553-8.662 0-12.504-5.986-12.504-13.554 0-7.558 3.842-13.554 12.504-13.554zM279.172 163.8h-6.152v-15.026c0-2.367-.254-3.682-1.15-4.68-.784-.832-2.104-1.37-3.628-1.37-1.523 0-2.838.538-3.63 1.37-.89.998-1.15 2.313-1.15 4.68V163.8h-6.148v-21.075l-2.466-.832c-.424-.162-.58-.264-.58-.844v-3.206h6.78c.684 0 .89.158 1.098.63l.788 1.892c1.632-1.832 4.1-3.1 7.2-3.1 2.886 0 5.784 1.156 7.41 3.732 1.784-2.26 4.624-3.732 8.09-3.732 2.73 0 5.04.94 6.67 2.576 1.792 1.787 2.577 4.2 2.577 8.037v15.92h-6.146v-15.026c0-2.367-.26-3.682-1.154-4.68-.79-.832-2.1-1.37-3.635-1.37-1.52 0-2.83.538-3.617 1.37-.894.998-1.156 2.313-1.156 4.68V163.8z"/></g></g></symbol><symbol id="email" viewBox="0 0 14 14"><g fill="#fff" fill-rule="nonzero"><path d="M7 9L5.268 7.484.316 11.73c.18.166.423.27.69.27h11.987c.267 0 .51-.104.688-.27L8.733 7.483 7 9z"/><path d="M13.684 2.27a1.007 1.007 0 0 0-.69-.27H1.006c-.267 0-.51.104-.69.273L7 8l6.684-5.73zM0 2.878v8.308L4.833 7.08 0 2.877zM9.167 7.08L14 11.185v-8.31L9.167 7.078z"/></g></symbol><symbol id="facebook" viewBox="0 0 90 90"><path d="M90 15c0-7.88-7.116-15-15-15H15C7.116 0 0 7.12 0 15v60c0 7.88 7.116 15 15 15h30V56H34V41h11v-5.844C45 25.076 52.568 16 61.875 16H74v15H61.875C60.548 31 59 32.61 59 35.024V41h15v15H59v34h16c7.884 0 15-7.12 15-15V15z" fill="#fff" fill-rule="nonzero"/></symbol><symbol id="instagram" viewBox="0 0 510 510"><path d="M459 0H51C22.95 0 0 22.95 0 51v408c0 28.05 22.95 51 51 51h408c28.05 0 51-22.95 51-51V51c0-28.05-22.95-51-51-51zM255 153c56.1 0 102 45.9 102 102s-45.9 102-102 102-102-45.9-102-102 45.9-102 102-102zM63.75 459C56.1 459 51 453.9 51 446.25V229.5h53.55C102 237.15 102 247.35 102 255c0 84.15 68.85 153 153 153s153-68.85 153-153c0-7.65 0-17.85-2.55-25.5H459v216.75c0 7.65-5.1 12.75-12.75 12.75H63.75zM459 114.75c0 7.65-5.1 12.75-12.75 12.75h-51c-7.65 0-12.75-5.1-12.75-12.75v-51c0-7.65 5.1-12.75 12.75-12.75h51C453.9 51 459 56.1 459 63.75v51z" fill="#fff" fill-rule="nonzero"/></symbol><symbol id="phone" viewBox="0 0 414 414"><path d="M159.138 256.452c37.217 36.944 80.295 72.236 97.207 55.195 24.215-24.392 39.12-45.614 92.854-2.76 53.733 42.873 12.695 71.726-10.758 95.362-27.064 27.268-128.432 1.91-228.91-97.805C9.063 206.71-17.07 105.54 10.015 78.258 33.474 54.62 62.02 13.378 105.268 66.8c43.27 53.394 22.16 68.462-2.054 92.86-16.904 17.035 18.7 59.84 55.924 96.792zm53.966-176.25s-11.227-1.753-19.088 6.114c-8.092 8.092-8.445 22.032.082 30.552 5.04 5.04 12.145 6.113 12.145 6.113 13.852 2.6 34.728 6.998 56.944 29.207 22.21 22.208 26.608 43.084 29.206 56.943 0 0 1.074 7.106 6.113 12.145 8.52 8.52 22.46 8.174 30.552.082 7.86-7.86 6.113-19.087 6.113-19.087-4.398-28.057-17.998-57.365-41.35-80.716-23.358-23.35-52.667-36.945-80.716-41.35zm105.31 16.756c40.72 40.72 58.08 86.932 52.43 124.38 0 0-1.973 11.858 5.772 19.603 8.718 8.72 22.535 8.216 30.695.063 5.244-5.243 6.386-13.777 6.386-13.777 4.672-32.36-1.203-97.464-64.647-160.9C285.604 2.885 220.51-2.99 188.146 1.675c0 0-8.527 1.137-13.777 6.386-8.16 8.16-8.656 21.978.06 30.695 7.747 7.746 19.605 5.773 19.605 5.773 37.45-5.65 83.66 11.71 124.38 52.428z" fill="#fff" fill-rule="nonzero"/></symbol><symbol id="twitter" viewBox="0 0 612 612"><path d="M612 116.258a250.714 250.714 0 0 1-72.088 19.772c25.93-15.527 45.777-40.155 55.184-69.41-24.322 14.378-51.17 24.82-79.775 30.48-22.906-24.438-55.49-39.66-91.63-39.66-69.333 0-125.55 56.218-125.55 125.514 0 9.828 1.11 19.427 3.25 28.606-104.325-5.24-196.834-55.223-258.75-131.174-10.822 18.51-16.98 40.078-16.98 63.1 0 43.56 22.182 81.994 55.836 104.48A125.556 125.556 0 0 1 24.63 232.21v1.568c0 60.806 43.29 111.554 100.692 123.104-10.517 2.83-21.607 4.398-33.08 4.398-8.107 0-15.947-.803-23.634-2.333 15.985 49.907 62.336 86.2 117.253 87.194-42.946 33.655-97.098 53.656-155.915 53.656-10.134 0-20.116-.612-29.944-1.72 55.568 35.68 121.537 56.484 192.44 56.484 230.947 0 357.187-191.29 357.187-357.188l-.42-16.253C573.87 163.525 595.21 141.42 612 116.257z" fill="#fff" fill-rule="nonzero"/></symbol></svg>