<?xml version="1.0" encoding="UTF-8"?><!DOCTYPE svg PUBLIC "-//W3C//DTD SVG 1.1//EN" "http://www.w3.org/Graphics/SVG/1.1/DTD/svg11.dtd"><svg xmlns="http://www.w3.org/2000/svg"><symbol id="arrow" viewBox="0 0 14 14"><path d="M12.147 11.667H1.853A1.16 1.16 0 0 0 .7 12.833 1.16 1.16 0 0 0 1.853 14h10.294a1.16 1.16 0 0 0 1.153-1.167 1.16 1.16 0 0 0-1.153-1.166zm-6-1.283c.21.211.481.321.756.34.032.002.064.009.097.009s.064-.007.096-.009c.276-.019.546-.129.757-.34l3.69-3.7a1.188 1.188 0 0 0 0-1.677 1.183 1.183 0 0 0-1.673 0L8.167 6.716V1.167a1.167 1.167 0 0 0-2.334 0v5.549L4.13 5.007a1.183 1.183 0 0 0-1.673 0 1.188 1.188 0 0 0 0 1.677l3.69 3.7z" fill="#fff"/></symbol><symbol id="b-welcome-logo" viewBox="0 0 205 227"><path d="M42.055 61.493v-4.721c2.818-.185 4.591-1.636 4.591-4.277 0-2.133-1.316-3.632-3.457-3.632-2.224 0-2.995 1.952-3.856 4.408-1.002 2.728-2.233 7.087-7.592 7.087-3.728 0-7.27-3.135-7.27-7.909 0-2.858 1.771-7.586 7.359-7.724v4.73c-2.044.268-3.04 1.499-3.04 3.223 0 1.726 1.085 2.956 2.675 2.956 2.09 0 2.634-1.819 3.275-3.912.593-1.952 2.178-7.588 8.178-7.588 4.455 0 8.042 3.092 8.042 8.454 0 3.179-1.999 8.905-8.905 8.905M37.832 92.17c-6.137 0-13.361-4.318-13.361-13.361 0-3.499 1.452-6.727 4.222-8.543v-.093h-2.97v-4.726h24.605v4.726h-3.909v.093c3.094 1.816 4.541 5.137 4.541 8.543 0 8.498-6.493 13.361-13.128 13.361m-.14 51.058c-7.543 0-13.221-5.817-13.221-12.904 0-6.817 5.543-12.771 12.907-12.816.818 0 2.09.092 2.407.135v20.862c4.86-1.184 6.861-5.091 6.861-8.271 0-3.5-2.041-6.046-4.223-7.181v-4.725c6.498 2.404 8.537 8.181 8.537 12.086 0 7.137-6.133 12.814-13.268 12.814m12.636 24.148H16.697v-8.724c0-9.497 6.956-10.5 9.317-10.5 3.726 0 5.361 1.866 6.361 3.005.82-1.414 2.958-5.002 8.18-5.002 3.456 0 9.773 1.907 9.773 11.176v10.045zm-33.975-57.838h23.813c3.099 0 5.31 0 5.532-3.049h4.822c0 1.501-.751 3.45-2.126 5.044-2.208 2.612-4.377 2.612-8.228 2.612H16.353v-4.607zm4.663-16.27c0 3.139 1.137 4.414 2.908 4.414h1.229v-4.414h4.316v4.414h20.859v4.719H29.469v2.807h-4.316v-2.807h-1.229c-2.68 0-4.548-1.043-5.862-2.995-1.229-2.044-1.365-3.364-1.365-6.138h4.319zm-1.574-58.284h5.627v-4.295h4.204v4.295h14.162c1.729 0 2.831-1.236 2.831-4.295h4.205c0 2.703-.13 3.987-1.331 5.98-1.28 1.903-3.091 2.92-5.705 2.92H29.273v2.742h-4.204v-2.742h-5.627v-4.605zm142.46 81.89c-5.201-27.109-30.301-45.341-57.278-42.468a52.42 52.42 0 0 0 3.74-31.595C102.881 14.227 75.271-4.505 46.687.981 21.513 5.805.675 25.691.675 52.512l-.037-.005.38 127.067 107.539-.11c3.784.113 7.637-.18 11.516-.918 28.579-5.476 47.31-33.089 41.829-61.672M40.555 151.062c-1.222 0-2.411.499-3.316 1.183-1.999 1.496-2.04 3.772-2.04 5.496v4.726h10.628v-5.311c0-4.959-3.543-6.094-5.272-6.094m-14.584 1.998c-4.776 0-4.776 4.594-4.776 5.682v3.725h9.498v-3.996c0-4.592-2.77-5.411-4.722-5.411m2.819-22.691c0 4.545 3.677 7.911 7.359 8.136v-16.271c-3.682.23-7.359 3.594-7.359 8.135m8.995-60.285c-5.367 0-8.995 3.864-8.995 8.725 0 5.818 5.043 8.636 8.995 8.636 4.543 0 8.861-3.591 8.861-8.587 0-4.961-4.048-8.774-8.861-8.774M139.818 201.953c-2.284 2.102-3.507 5.283-3.63 9.449v14.799h3.225v-14.809c0-2.916.637-4.998 2.003-6.553l.024-.026.018-.025c1.084-1.415 3.182-2.35 5.102-2.277 2.548.082 4.458.926 5.686 2.51 1.063 1.419 1.627 2.89 1.537 6.578v14.602h3.226v-14.58c0-3.719.298-4.907 1.675-6.691 1.371-1.784 3.743-2.419 5.51-2.419 2.176 0 3.852.596 4.984 1.766 1.485 1.486 2.2 3.884 2.2 7.344v14.58h3.23v-14.58c0-4.327-1.042-7.536-3.091-9.539-1.766-1.767-4.3-2.705-7.323-2.705-3.005 0-5.913 1.235-7.779 3.3-.38.415-.696.861-.986 1.319-.286-.477-.603-.94-.973-1.333-1.76-2.104-4.561-3.285-7.852-3.286-.341-.015-3.88-.096-6.786 2.576" fill="#fff" fill-rule="nonzero"/><path d="M146.604 199.378c.008 0 .042 0 .046.002l-.05-.002h.004M91.877 199.378c6.043 0 11.155 3.587 13.019 9.139l.43 1.28h-3.461l-.228-.65c-1.628-4.646-6.045-6.681-9.7-6.635-3.103.042-5.155.856-7.564 3.002-1.838 1.667-3.025 4.641-3.025 7.574 0 6.029 4.527 10.575 10.523 10.575 5.245-.042 8.712-3.342 9.715-6.389l.22-.666h3.482l-.44 1.285c-1.847 5.396-6.813 8.807-12.971 8.905-7.841 0-13.755-5.894-13.755-13.663 0-7.843 5.914-13.757 13.755-13.757M54.807 202.511c4.892-.196 9.49 3.777 10.284 8.551H44.484c.802-4.932 5.039-8.551 10.323-8.551m-13.801 10.624c0 7.768 5.915 13.662 13.756 13.662 5.71.053 10.467-3.01 12.714-8.192l.587-1.357h-3.517l-.263.56c-1.711 3.666-5.252 5.854-9.476 5.854-4.124.04-9.865-2.886-10.466-9.465H68.41l.11-1.647-.003-.053c-.319-7.479-6.213-13.12-13.71-13.12-7.867 0-13.801 5.915-13.801 13.758M190.43 202.511c4.89-.196 9.487 3.777 10.28 8.551h-20.605c.802-4.932 5.039-8.551 10.325-8.551m-13.804 10.624c0 7.768 5.916 13.662 13.759 13.662 5.709.053 10.465-3.01 12.712-8.192l.589-1.357h-3.519l-.262.56c-1.71 3.666-5.253 5.854-9.475 5.854-4.125.04-9.868-2.886-10.468-9.465h24.068l.111-1.647-.002-.053c-.319-7.479-6.213-13.12-13.709-13.12-7.869 0-13.804 5.915-13.804 13.758M110.055 213.088c0-6.03 4.527-10.576 10.53-10.576 6.004 0 10.532 4.546 10.532 10.576 0 6.029-4.528 10.576-10.532 10.576-6.003 0-10.53-4.547-10.53-10.576m-3.227 0c0 7.816 5.915 13.71 13.757 13.71s13.757-5.894 13.757-13.71c0-7.817-5.915-13.711-13.757-13.711s-13.757 5.894-13.757 13.711" fill="#fff" fill-rule="nonzero"/><path d="M71.303 190.33h3.181v25.447c0 4.27.866 7.18 5.046 7.316v3.136c-1.41-.047-3.317-.093-5.499-1.999-2.728-2.409-2.728-5.455-2.728-8.453V190.33zM34.912 224.185c2.286-2.102 3.507-5.28 3.63-9.446l.002-14.802h-3.227v14.81c0 2.915-.636 4.997-2.003 6.554l-.022.023-.021.026c-1.084 1.417-3.18 2.352-5.101 2.278-2.548-.082-4.458-.926-5.685-2.511-1.063-1.418-1.627-2.891-1.539-6.575v-14.605H17.72v14.581c0 3.719-.296 4.909-1.675 6.691-1.369 1.784-3.743 2.418-5.509 2.418-2.176 0-3.851-.593-4.983-1.764-1.486-1.486-2.202-3.885-2.202-7.345v-14.581H.124v14.581c0 4.325 1.04 7.537 3.088 9.537 1.768 1.768 4.302 2.706 7.324 2.706 3.006 0 5.913-1.232 7.779-3.299.379-.414.695-.861.986-1.32.286.479.604.939.974 1.334 1.759 2.104 4.56 3.285 7.852 3.285.34.015 3.879.097 6.785-2.576" fill="#fff" fill-rule="nonzero"/></symbol><symbol id="bt1apartments" viewBox="0 0 279 153"><path d="M24.125 138.611h3.763l-2-5.097H13.931l-1.953 5.097h3.667v4.763H1.783v-5.431h3.621l9.908-23.15h-3.763v-5.431h11.385l11.909 28.581h3.62v5.431H24.125v-4.763zm-4.145-21.77h-.048l-4.334 11.671h8.669l-4.287-11.671zM42.653 123.367h-3.24v-5.431h9.099v4.002c1.858-2.906 4.907-4.287 8.337-4.287 7.192 0 12.956 5.907 12.956 13.1 0 6.954-5.621 13.004-12.671 13.004-3.335 0-6.573-1.286-8.622-3.954v7.432h3.287v5.431H39.413v-5.431h3.24v-23.866zm21.15 7.384c0-4.145-3.287-7.765-7.527-7.765-4.287 0-7.812 3.334-7.812 7.717a7.665 7.665 0 0 0 7.67 7.669c4.192 0 7.669-3.429 7.669-7.621M91.858 139.945c-1.858 2.811-4.859 4.096-8.193 4.096-7.288 0-13.052-6.049-13.052-13.242 0-7.384 5.906-13.529 13.337-13.529 3.287 0 6.145 1.525 7.908 4.288v-3.621h9.099v5.43h-3.192v14.577h3.192v5.43h-9.099v-3.429zm.096-9.432c0-4.192-3.478-7.574-7.67-7.574-4.335 0-7.669 3.573-7.669 7.86 0 4.144 3.477 7.574 7.574 7.574 4.382 0 7.765-3.525 7.765-7.86M110.958 122.272c1.476-3.001 4.335-4.478 7.622-4.62v5.953c-1.858.096-3.573.573-5.003 1.859-1.905 1.619-2.191 3.668-2.191 6.05v6.43h3.287v5.431h-12.385v-5.431h3.287v-14.577h-3.287v-5.43h8.67v4.335zM129.963 137.944h4.621v5.43h-10.432v-20.007h-4.002v-5.43h4.002v-8.575h5.811v8.575h4.335v5.43h-4.335v14.577zM140.013 123.367h-3.287v-5.431h8.575v3.811c1.619-2.667 4.096-4.43 7.336-4.43 3.525 0 6.478 2.144 7.907 5.335 1.382-3.239 4.811-5.335 8.336-5.335 2.763 0 5.478 1.143 7.336 3.239 2.001 2.335 2.001 4.86 2.001 7.764v9.624h3.288v5.43h-12.386v-5.43h3.286v-8.194c0-1.668 0-3.144-.762-4.62-.952-1.382-2.524-2.097-4.144-2.097-1.572 0-3.286.667-4.287 1.906-1.191 1.524-1.191 2.954-1.191 4.811v8.194h3.287v5.43h-12.385v-5.43h3.287v-7.813c0-1.524 0-3.429-.763-4.763-.81-1.525-2.477-2.335-4.192-2.335-1.62 0-3 .572-4.049 1.859-1.286 1.571-1.381 3.238-1.381 5.192v7.86h3.287v5.43h-12.386v-5.43h3.287v-14.577zM208.463 135.896c-2.001 4.859-6.717 8.146-12.005 8.146-7.431 0-13.386-5.812-13.386-13.29 0-7.527 5.669-13.577 13.243-13.577 3.525 0 7.051 1.572 9.528 4.096 2.524 2.668 3.572 5.908 3.572 9.528l-.19 2.048h-20.579c.763 3.526 4.001 6.098 7.622 6.098 2.526 0 4.716-.953 6.146-3.049h6.049zm-4.431-7.527c-1-3.667-4.239-6.001-8.002-6.001-3.431 0-6.717 2.666-7.432 6.001h15.434zM214.177 123.367h-3.287v-5.431h9.098v3.621c1.525-2.811 4.383-4.192 7.527-4.192 2.763 0 5.478 1.143 7.336 3.143 2.096 2.335 2.143 4.573 2.143 7.48v9.956h3.288v5.43h-12.386v-5.43h3.287v-8.242c0-1.572 0-3.191-1.001-4.572-1.048-1.382-2.763-2.049-4.477-2.049-1.763 0-3.573.714-4.621 2.144-1.096 1.429-1.096 3.62-1.096 5.335v7.384h3.288v5.43H210.89v-5.43h3.287v-14.577zM250.95 137.944h4.621v5.43h-10.433v-20.007h-4.001v-5.43h4.001v-8.575h5.812v8.575h4.335v5.43h-4.335v14.577zM263.906 135.991c.19 2.287 1.714 3.81 4.096 3.81 1.763 0 3.478-1.238 3.478-3.143 0-2.525-2.382-2.954-4.335-3.477-4.43-1.143-9.289-2.525-9.289-8.098 0-4.86 4.096-7.67 8.622-7.67 2.286 0 4.335.476 5.764 2.286v-1.762h4.288v6.907h-5.622c-.095-1.809-1.476-3-3.287-3-1.572 0-3.239.905-3.239 2.667 0 2.381 2.334 2.906 4.192 3.334 4.573 1.049 9.48 2.478 9.48 8.193 0 5.146-4.335 8.003-9.099 8.003-2.572 0-4.907-.809-6.573-2.762v2.095h-4.431v-7.383h5.955z" fill="#7a909f" fill-rule="nonzero"/><path fill="#4b6a90" fill-rule="nonzero" d="M.876.732h276.269v104.329H.876z"/><path d="M243.821 82.395c-3.011 7.313-10.11 12.26-18.067 12.26-11.185 0-20.147-8.747-20.147-20.003 0-11.328 8.531-20.432 19.932-20.432 5.305 0 10.61 2.365 14.338 6.165 3.801 4.014 5.378 8.89 5.378 14.339l-.288 3.082h-30.971c1.147 5.306 6.022 9.177 11.471 9.177 3.799 0 7.098-1.433 9.249-4.588h9.105zm-6.668-11.328c-1.506-5.52-6.38-9.033-12.045-9.033-5.162 0-10.109 4.015-11.184 9.033h23.229zM199.301 85.478V70.494c0-4.373-.072-7.743-3.226-11.256-2.797-3.011-6.883-4.732-11.042-4.732-4.73 0-9.033 2.08-11.327 6.31v-5.449h-13.12c-2.977-14.217-15.823-24.987-30.877-24.987-17.626 0-31.948 13.983-31.948 31.78 0 17.304 13.99 31.271 31.239 31.514l-.047.012h26.559v-4.499h3.825V67.059h-4.781v-5.191h10.79v27.319h3.825v4.464h9.482v-8.173h-4.947V74.365c0-2.581 0-5.878 1.649-8.029 1.578-2.151 4.302-3.226 6.955-3.226 2.581 0 5.162 1.004 6.738 3.083 1.507 2.079 1.507 4.516 1.507 6.883v12.402h-4.947v8.173h18.64v-8.173h-4.947zm-69.846-3.318c-11.186 0-19.83-9.153-19.83-20.339 0-11.102 8.983-19.915 20.001-19.915 10.847 0 19.744 8.983 19.744 19.831 0 11.186-8.643 20.423-19.915 20.423M56.209 73.343c3.204-1.496 4.966-4.647 4.966-8.117 0-3.044-1.121-5.714-3.578-7.583-2.296-1.709-5.073-1.976-7.903-1.976H32.766v6.088h4.112v25.952h-4.112v6.088h17.728c3.258 0 6.195-.32 8.758-2.563 2.296-1.976 3.578-5.02 3.578-8.064 0-4.539-2.403-8.116-6.621-9.825M44.194 61.755h3.738c1.548 0 3.257-.107 4.592.748 1.335.854 1.976 2.242 1.976 3.791 0 1.442-.534 2.777-1.709 3.631-1.495 1.068-3.15.961-4.913.961h-3.684v-9.131zm9.238 24.724c-1.495 1.015-3.578.962-5.287.962H44.14V76.867h4.059c1.868 0 3.738 0 5.287 1.121 1.441 1.069 2.082 2.617 2.082 4.326 0 1.603-.748 3.258-2.136 4.165M94.194 55.667H64.697v12.015h5.767v-5.554h5.608v25.579h-4.166v6.088h15.593v-6.088h-4.165V62.128h5.607v5.554h5.108a33.115 33.115 0 0 1-.471-5.522c0-2.207.211-4.378.616-6.493" fill="#fff" fill-rule="nonzero"/></symbol><symbol id="checked" viewBox="0 0 415 415"><path d="M411.47 96.426l-46.319-46.32c-5.482-5.482-14.371-5.482-19.853 0l-192.95 192.952-82.066-82.064c-5.48-5.482-14.37-5.482-19.851 0l-46.319 46.32c-5.482 5.481-5.482 14.37 0 19.852l138.311 138.31a13.99 13.99 0 0 0 9.926 4.112c3.593 0 7.186-1.37 9.926-4.112L411.47 116.277a14.034 14.034 0 0 0 0-19.851z" fill="#fff" fill-rule="nonzero"/></symbol><symbol id="discoverni-logo" viewBox="0 0 661 191"><path d="M82.298.932l-7.517 4.344c-.008 0-.012.006-.022.01L7.537 44.095l35.59 20.548L82.298.932z" fill="#fdba11" fill-rule="nonzero"/><path d="M82.304 87.264l74.757-43.166.002-.003L89.843 5.29c-.004-.004-.008-.008-.013-.008L82.298.932 43.127 64.643l39.177 22.621zM43.127 64.643L7.537 44.095l21.838 42.916 13.752-22.368z" fill="#faa21a" fill-rule="nonzero"/><path d="M43.127 64.643L29.375 87.011l12.123 23.81 40.806-23.557-39.177-22.621zM82.304 87.264l40.798 23.557 33.959-66.723-74.757 43.166zM7.537 44.095C3.386 46.485 0 52.372.001 57.165L0 134.787l29.375-47.776L7.537 44.095z" fill="#f5821f" fill-rule="nonzero"/><path d="M41.498 110.821l40.795 80.172.005.007 40.804-80.179-40.798-23.557-40.806 23.557zM123.102 110.821l41.505 23.966-.002-77.622c.002-1.6-.384-3.324-1.041-4.996-1.312-3.336-3.732-6.479-6.5-8.074l-.003.003-33.959 66.723zM29.375 87.011L0 134.787l41.498-23.966-12.123-23.81z" fill="#f26321" fill-rule="nonzero"/><path d="M123.102 110.821L82.298 191h.006l7.317-4.222c.027-.02.06-.035.088-.049l.031-.02c.031-.015.066-.031.101-.054l16.485-9.516 50.737-29.293c1.806-1.041 3.468-2.738 4.771-4.721 1.689-2.578 2.773-5.634 2.773-8.338l-41.505-23.966zM82.293 190.993l-40.795-80.172L0 134.787c0 2.756 1.128 5.879 2.878 8.493 1.288 1.91 2.907 3.554 4.663 4.566l49.888 28.807 17.336 10.002c.031.023.069.039.102.054l.029.02a.416.416 0 0 1 .088.049l7.309 4.215z" fill="#ef4623" fill-rule="nonzero"/><path d="M117.59 140.879c-10.58 5.008-23.797-9.288-30.178-18.972 6.381-9.686 19.598-23.994 30.178-18.987 8.361 3.957 6.889 15.532-1.352 18.973 8.241 3.459 9.713 15.033 1.352 18.986zm-38.448 17.469l1.684-31.406h3.041l1.687 31.406h-6.412zm-32.039-17.469c-8.361-3.953-6.891-15.527 1.344-18.986-8.235-3.441-9.705-15.016-1.344-18.973 10.578-5.007 23.795 9.301 30.18 18.987-6.385 9.684-19.602 23.98-30.18 18.972z" fill="#fff" fill-rule="nonzero"/><path d="M63.369 85.843c3.951-8.36 15.529-6.891 18.982 1.341 3.451-8.232 15.02-9.701 18.975-1.341 5.004 10.582-9.299 23.798-18.983 30.183-9.683-6.385-23.984-19.601-18.974-30.183z" fill="#fae0b1" fill-rule="nonzero"/><path d="M422.9 122.684V95.118l-3.226-1.1c-.547-.211-.748-.349-.748-1.097v-4.199h8.859c.901 0 1.166.212 1.445.822l1.028 2.478c2.201-2.478 5.64-4.06 9.762-4.06 3.785 0 7.355 1.246 9.701 3.644 2.117 2.27 3.293 5.084 3.293 10.596v20.482h-8.041v-19.455c0-3.168-.418-5.023-1.715-6.33-1.178-1.168-3.096-1.781-5.301-1.781-2.197 0-4.119.613-5.285 1.781-1.315 1.307-1.725 3.162-1.725 6.33v19.455H422.9zM464.619 83.772c-3.627 0-4.806-1.65-4.806-4.812 0-3.166 1.179-4.809 4.806-4.809 3.654 0 4.819 1.643 4.819 4.809 0 3.162-1.165 4.812-4.819 4.812zm-3.777 11.346l-3.237-1.1c-.548-.211-.753-.349-.753-1.097v-4.199h10.869c.953 0 1.166.212 1.166 1.033v26.88h3.023c.684 0 .901.201.901.756v5.293h-16.155v-4.049c0-.562.133-.84.744-1.039l3.442-1.031V95.118z" fill="#f47720" fill-rule="nonzero"/><path d="M205.965 122.684V95.118l-3.242-1.1c-.549-.211-.752-.349-.752-1.097v-4.199h8.863c.896 0 1.178.212 1.445.822l1.03 2.478c2.209-2.478 5.638-4.06 9.769-4.06 3.776 0 7.356 1.246 9.69 3.644 2.127 2.27 3.293 5.084 3.293 10.596v20.482h-8.038v-19.455c0-3.168-.41-5.023-1.72-6.33-1.166-1.168-3.09-1.781-5.291-1.781-2.201 0-4.129.613-5.293 1.781-1.313 1.307-1.721 3.162-1.721 6.33v19.455h-8.033zM256.885 94.841c-5.283 0-8.174 3.642-8.174 10.861 0 7.224 2.891 10.863 8.174 10.863 5.304 0 8.187-3.639 8.187-10.863 0-7.219-2.883-10.861-8.187-10.861zm0-6.879c11.349 0 16.369 7.838 16.369 17.74 0 9.896-5.02 17.738-16.369 17.738-11.336 0-16.352-7.842-16.352-17.738 0-9.902 5.016-17.74 16.352-17.74zM275.383 118.635c0-.562.133-.84.752-1.039l3.439-1.031V95.118l-3.228-1.1c-.547-.211-.758-.349-.758-1.097v-4.199h8.869c.897 0 1.232.212 1.447.822l1.03 3.025c1.927-2.883 4.812-4.607 8.111-4.607.824 0 1.928.135 2.476.351.754.27 1.03.621 1.03 1.442v5.834h-2.815c-3.517 0-5.228.562-6.394 1.8-1.313 1.377-1.725 3.582-1.725 7.352v11.894h6.057c.681 0 .822.201.822.756v5.293h-19.113v-4.049zM309.754 111.953c0 1.86.205 3.032 1.029 3.852.69.691 1.928 1.176 3.705 1.176 1.451 0 3.657-.207 5.375-.485v4.959c0 .54-.209.743-.689.883-1.785.614-4.686 1.102-7.084 1.102-3.504 0-6.045-.828-7.768-2.549-1.785-1.781-2.615-4.465-2.615-8.523V82.602c0-1.027.348-1.371 1.381-1.371h6.666v7.491h9.557v5.628c0 .555-.268.768-.889.768h-8.668v16.835zM325.154 122.684V82.122l-3.234-1.096c-.549-.209-.75-.347-.75-1.105v-4.196h10.853c.965 0 1.176.215 1.176 1.038v14.574c2.201-1.998 5.428-3.375 9.069-3.375 3.783 0 7.353 1.246 9.699 3.644 2.127 2.27 3.293 5.084 3.293 10.596v20.482h-8.047v-19.455c0-3.168-.408-5.023-1.709-6.33-1.174-1.168-3.094-1.781-5.299-1.781-2.193 0-4.121.613-5.289 1.781-1.309 1.307-1.717 3.162-1.717 6.33v19.455h-8.045zM383.166 102.821c-.205-5.086-3.092-8.185-7.416-8.185-4.682 0-7.158 3.154-7.707 8.185h15.123zm-15.123 6.045c.613 5.086 4.471 8.046 11.414 8.046 3.023 0 6.949-.554 9.289-1.037v5.229c0 .617-.217.756-.617.891-2.691.824-7.025 1.445-10.322 1.445-6.045 0-10.522-1.719-13.405-4.533-3.226-3.166-4.744-7.912-4.744-13.143 0-10.25 5.571-17.802 16.014-17.802 10.312 0 15.539 7.017 15.539 17.191 0 1.23-.07 2.275-.27 3.019-.144.555-.482.694-1.111.694h-21.787zM393.814 118.635c0-.562.151-.84.766-1.039l3.436-1.031V95.118l-3.235-1.1c-.549-.211-.754-.349-.754-1.097v-4.199h8.868c.894 0 1.242.212 1.441.822l1.033 3.025c1.926-2.883 4.817-4.607 8.11-4.607.828 0 1.927.135 2.474.351.76.27 1.029.621 1.029 1.442v5.834h-2.808c-3.52 0-5.231.562-6.395 1.8-1.312 1.377-1.716 3.582-1.716 7.352v11.894h6.054c.68 0 .813.201.813.756v5.293h-19.116v-4.049zM474.453 118.635c0-.562.137-.84.748-1.039l3.447-1.031V95.118l-3.23-1.1c-.549-.211-.764-.349-.764-1.097v-4.199h8.875c.895 0 1.231.212 1.446.822l1.031 3.025c1.926-2.883 4.807-4.607 8.113-4.607.817 0 1.91.135 2.465.351.756.27 1.041.621 1.041 1.442v5.834h-2.826c-3.506 0-5.221.562-6.399 1.8-1.296 1.377-1.711 3.582-1.711 7.352v11.894h6.051c.678 0 .813.201.813.756v5.293h-19.1v-4.049zM521.818 102.821c-.201-5.086-3.091-8.185-7.423-8.185-4.674 0-7.147 3.154-7.704 8.185h15.127zm-15.127 6.045c.623 5.086 4.469 8.046 11.413 8.046 3.033 0 6.941-.554 9.281-1.037v5.229c0 .617-.213.756-.614.891-2.69.824-7.026 1.445-10.316 1.445-6.049 0-10.506-1.719-13.406-4.533-3.233-3.166-4.746-7.912-4.746-13.143 0-10.25 5.57-17.802 16.019-17.802 10.311 0 15.539 7.017 15.539 17.191 0 1.23-.066 2.275-.265 3.019-.147.555-.498.694-1.098.694h-21.807zM543.123 116.635h3.297c.693 0 .828.201.828.756v5.293h-5.916c-2.396 0-3.842-.412-4.801-1.303-1.031-.967-1.447-2.344-1.447-4.816V82.122l-3.229-1.096c-.548-.209-.761-.347-.761-1.105v-4.196h10.865c.963 0 1.164.215 1.164 1.038v39.872zM573.104 103.098c0-2.898-.415-4.822-1.79-6.259-1.232-1.325-3.162-2.129-5.57-2.129-5.152 0-8.39 3.978-8.39 10.992 0 7.156 2.746 10.994 8.253 10.994 2.399 0 4.397-.821 5.639-2.127 1.367-1.446 1.858-3.369 1.858-6.25v-5.221zm1.785-13.554c.142-.61.412-.822 1.107-.822h5.072v27.913h3.307c.68 0 .82.201.82.756v5.293h-6.937c-3.026 0-4.467-1.168-5.02-3.096-2.205 2.334-5.845 3.852-9.623 3.852-8.523 0-14.439-6.604-14.439-17.6 0-10.722 6.25-17.878 15.256-17.878 4.056 0 7.562 1.65 9.765 4.396l.692-2.814zM590.141 122.684V95.118l-3.235-1.1c-.547-.211-.752-.349-.752-1.097v-4.199h8.864c.896 0 1.177.212 1.455.822l1.029 2.478c2.197-2.478 5.627-4.06 9.758-4.06 3.783 0 7.359 1.246 9.689 3.644 2.131 2.27 3.309 5.084 3.309 10.596v20.482h-8.047v-19.455c0-3.168-.416-5.023-1.717-6.33-1.176-1.168-3.103-1.781-5.297-1.781-2.191 0-4.119.613-5.293 1.781-1.304 1.307-1.715 3.162-1.715 6.33v19.455h-8.048zM648.852 103.098c0-2.898-.411-4.822-1.791-6.259-1.247-1.325-3.227-2.129-5.635-2.129-5.164 0-8.526 3.978-8.526 10.992 0 7.156 2.879 10.994 8.381 10.994 2.407 0 4.479-.821 5.715-2.127 1.367-1.446 1.856-3.369 1.856-6.25v-5.221zm-9.565 20.342c-8.525 0-14.56-6.604-14.56-17.6 0-10.722 6.382-17.878 15.39-17.878 3.362 0 6.461 1.181 8.66 3.17v-9.01l-3.228-1.096c-.549-.209-.76-.347-.76-1.105v-4.196h10.865c.963 0 1.166.215 1.166 1.038v39.872h3.303c.682 0 .816.201.816.756v5.293h-7.001c-3.237 0-4.479-1.098-4.95-3.16-2.207 2.336-5.914 3.916-9.701 3.916zM227.352 48.18c0-2.886-.422-4.822-1.789-6.255-1.231-1.309-3.235-2.133-5.641-2.133-5.164 0-8.533 3.986-8.533 11.004 0 7.148 2.89 10.996 8.396 10.996 2.406 0 4.469-.815 5.707-2.137 1.373-1.437 1.86-3.357 1.86-6.246V48.18zm-9.563 20.342c-8.529 0-14.586-6.588-14.586-17.584 0-10.734 6.404-17.883 15.412-17.883 3.373 0 6.467 1.163 8.668 3.17v-9.017l-3.228-1.108c-.559-.199-.772-.341-.772-1.101v-4.188h10.875c.957 0 1.168.211 1.168 1.03v39.888h3.299c.693 0 .822.205.822.748v5.295h-7.013c-3.227 0-4.467-1.095-4.952-3.162-2.195 2.348-5.908 3.912-9.693 3.912zM249.566 28.854c-3.652 0-4.81-1.646-4.81-4.804 0-3.164 1.158-4.819 4.81-4.819 3.647 0 4.803 1.655 4.803 4.819 0 3.158-1.156 4.804-4.803 4.804zm-3.791 11.35l-3.224-1.106c-.557-.201-.764-.335-.764-1.099v-4.195h10.865c.967 0 1.168.197 1.168 1.033v26.892h3.037c.674 0 .885.205.885.748v5.295h-16.158v-4.045c0-.554.137-.834.754-1.037l3.437-1.033V40.204zM268.266 61.864c1.441.34 3.429.486 5.361.486 2.191 0 4.061-.347 5.16-.953 1.104-.638 1.649-1.672 1.649-2.914 0-2.054-1.243-3.025-5.442-4.037l-4.394-1.113c-6.659-1.647-9.973-4.33-9.973-10.106 0-3.23 1.176-5.703 3.314-7.425 2.465-1.998 5.979-2.747 10.786-2.747 3.644 0 7.701.475 10.175 1.301 1.244.412 1.446.897 1.446 1.649v7.904h-4.461c-1.108 0-1.323-.27-1.53-.895l-1.015-3.423c-1.176-.215-3.104-.334-4.893-.334-3.918 0-6.183.74-6.183 3.361 0 1.916 1.232 2.953 5.091 3.918l4.606 1.168c6.738 1.707 10.174 3.777 10.174 10.514 0 3.091-1.106 5.509-2.961 7.216-2.338 2.137-5.983 3.088-11.549 3.088-4.061 0-8.729-.611-11.211-1.283-1.026-.281-1.227-.767-1.227-1.658v-8.047h4.739c.822 0 1.166.205 1.369.885l.969 3.445zM314.748 44.749c-1.031 0-1.23-.35-1.512-1.039l-1.443-3.918c-.689-.127-1.855-.274-2.752-.274-2.881 0-5.232.819-6.803 2.471-1.861 1.92-2.685 4.951-2.685 8.807 0 3.369.824 6.195 2.414 8.035 1.779 2.07 4.453 3.238 8.789 3.238 2.334 0 5.715-.412 7.916-.887v5.356c0 .486-.207.701-.682.832-2.482.756-5.992 1.152-8.802 1.152-5.305 0-9.846-1.355-13.016-4.455-3.012-2.955-4.805-7.429-4.805-13.129 0-5.861 1.932-10.601 5.305-13.695 2.945-2.684 7.137-4.188 12.369-4.188 3.301 0 6.73.676 9.012 1.504.963.344 1.095.756 1.095 1.666v8.524h-4.4zM338.342 39.927c-5.301 0-8.194 3.636-8.194 10.869 0 7.22 2.893 10.861 8.194 10.861 5.289 0 8.179-3.641 8.179-10.861 0-7.233-2.89-10.869-8.179-10.869zm0-6.872c11.347 0 16.363 7.833 16.363 17.741 0 9.892-5.016 17.726-16.363 17.726-11.354 0-16.369-7.834-16.369-17.726 0-9.908 5.015-17.741 16.369-17.741zM364.252 33.804c.486 0 .766.126.967.755l7.56 24.414h.071l7.636-24.414c.202-.629.475-.755.961-.755h7.567L376.9 67.772h-7.822c-.685 0-.969-.201-1.176-.748l-9.562-26.888-3.365-1.104c-.541-.201-.75-.412-.75-.951v-4.277h10.027zM412.121 47.907c-.205-5.086-3.107-8.182-7.43-8.182-4.668 0-7.136 3.166-7.711 8.182h15.141zm-15.141 6.049c.633 5.09 4.479 8.047 11.426 8.047 3.03 0 6.949-.563 9.282-1.026v5.221c0 .617-.208.76-.62.899-2.673.814-7.002 1.425-10.31 1.425-6.045 0-10.524-1.707-13.414-4.529-3.223-3.162-4.74-7.908-4.74-13.127 0-10.25 5.57-17.811 16.017-17.811 10.326 0 15.543 7.014 15.543 17.194 0 1.232-.07 2.262-.273 3.01-.133.554-.475.697-1.092.697H396.98zM422.785 63.727c0-.554.133-.834.75-1.037l3.442-1.033V40.204l-3.231-1.106c-.553-.201-.76-.335-.76-1.099v-4.195h8.869c.895 0 1.241.197 1.44.826l1.049 3.029c1.91-2.891 4.806-4.604 8.109-4.604.826 0 1.916.141 2.471.336.754.27 1.025.61 1.025 1.446v5.842h-2.812c-3.51 0-5.239.558-6.401 1.796-1.297 1.377-1.724 3.582-1.724 7.352v11.902h6.058c.684 0 .832.205.832.748v5.295h-19.117v-4.045zM198.096 164.373c-2.78 0-3.733-1.418-3.733-3.836 0-2.414.953-3.839 3.733-3.839 2.789 0 3.73 1.425 3.73 3.839 0 2.418-.941 3.836-3.73 3.836zM222.484 146.2c-.785 0-.939-.262-1.154-.795l-1.105-2.989a12.09 12.09 0 0 0-2.098-.211c-2.203 0-3.996.635-5.203 1.889-1.412 1.469-2.043 3.785-2.043 6.725 0 2.57.631 4.734 1.83 6.144 1.369 1.582 3.42 2.469 6.728 2.469 1.788 0 4.362-.311 6.043-.676v4.092c0 .373-.16.527-.529.635-1.892.574-4.566.89-6.721.89-4.052 0-7.515-1.045-9.931-3.412-2.313-2.263-3.678-5.674-3.678-10.035 0-4.465 1.473-8.086 4.049-10.453 2.258-2.051 5.459-3.207 9.455-3.207 2.518 0 5.144.525 6.887 1.156.726.254.838.571.838 1.262v6.516h-3.368zM240.504 142.514c-4.045 0-6.252 2.795-6.252 8.305 0 5.517 2.207 8.302 6.252 8.302 4.051 0 6.254-2.785 6.254-8.302 0-5.51-2.203-8.305-6.254-8.305zm0-5.248c8.67 0 12.5 5.996 12.5 13.553 0 7.568-3.83 13.554-12.5 13.554-8.662 0-12.504-5.986-12.504-13.554 0-7.557 3.842-13.553 12.504-13.553zM279.172 163.799h-6.152v-15.025c0-2.367-.254-3.682-1.151-4.68-.783-.832-2.103-1.369-3.627-1.369-1.523 0-2.838.537-3.629 1.369-.89.998-1.152 2.313-1.152 4.68v15.025h-6.147v-21.074l-2.466-.832c-.424-.162-.58-.264-.58-.844v-3.205h6.779c.685 0 .89.158 1.099.629l.788 1.893c1.632-1.832 4.101-3.1 7.201-3.1 2.885 0 5.783 1.156 7.41 3.732 1.783-2.259 4.623-3.732 8.09-3.732 2.728 0 5.039.941 6.67 2.576 1.791 1.787 2.576 4.199 2.576 8.037v15.92h-6.147v-15.025c0-2.367-.261-3.682-1.154-4.68-.789-.832-2.101-1.369-3.635-1.369-1.521 0-2.83.537-3.617 1.369-.894.998-1.156 2.313-1.156 4.68v15.025z" fill="#fff" fill-rule="nonzero"/></symbol><symbol id="email" viewBox="0 0 14 14"><path d="M7 9L5.268 7.484.316 11.729c.18.167.423.271.691.271h11.986c.267 0 .509-.104.688-.271L8.732 7.484 7 9z" fill="#fff" fill-rule="nonzero"/><path d="M13.684 2.271A1.007 1.007 0 0 0 12.993 2H1.007c-.267 0-.509.104-.689.273L7 8l6.684-5.729zM0 2.878v8.308l4.833-4.107L0 2.878zM9.167 7.079L14 11.186V2.875L9.167 7.079z" fill="#fff" fill-rule="nonzero"/></symbol><symbol id="facebook" viewBox="0 0 90 90"><path d="M90 15.001C90 7.119 82.884 0 75 0H15C7.116 0 0 7.119 0 15.001v59.998C0 82.881 7.116 90 15.001 90H45V56H34V41h11v-5.844C45 25.077 52.568 16 61.875 16H74v15H61.875C60.548 31 59 32.611 59 35.024V41h15v15H59v34h16c7.884 0 15-7.119 15-15.001V15.001z" fill="#fff" fill-rule="nonzero"/></symbol><symbol id="instagram" viewBox="0 0 510 510"><path d="M459 0H51C22.95 0 0 22.95 0 51v408c0 28.05 22.95 51 51 51h408c28.05 0 51-22.95 51-51V51c0-28.05-22.95-51-51-51zM255 153c56.1 0 102 45.9 102 102s-45.9 102-102 102-102-45.9-102-102 45.9-102 102-102zM63.75 459C56.1 459 51 453.9 51 446.25V229.5h53.55C102 237.15 102 247.35 102 255c0 84.15 68.85 153 153 153s153-68.85 153-153c0-7.65 0-17.85-2.55-25.5H459v216.75c0 7.65-5.1 12.75-12.75 12.75H63.75zM459 114.75c0 7.65-5.1 12.75-12.75 12.75h-51c-7.65 0-12.75-5.1-12.75-12.75v-51c0-7.65 5.1-12.75 12.75-12.75h51C453.9 51 459 56.1 459 63.75v51z" fill="#fff" fill-rule="nonzero"/></symbol><symbol id="phone" viewBox="0 0 414 414"><path d="M159.138 256.452c37.217 36.944 80.295 72.236 97.207 55.195 24.215-24.392 39.12-45.614 92.854-2.761 53.734 42.874 12.696 71.727-10.757 95.363-27.064 27.269-128.432 1.911-228.909-97.804C9.062 206.71-17.07 105.54 10.014 78.258 33.474 54.621 62.02 13.379 105.268 66.8c43.269 53.394 22.161 68.462-2.054 92.861-16.904 17.034 18.701 59.84 55.924 96.791zm53.966-176.249s-11.227-1.754-19.088 6.113c-8.092 8.092-8.445 22.032.082 30.552 5.039 5.039 12.145 6.113 12.145 6.113 13.852 2.598 34.728 6.997 56.944 29.206 22.209 22.208 26.608 43.084 29.206 56.943 0 0 1.074 7.106 6.113 12.145 8.521 8.521 22.46 8.174 30.552.082 7.861-7.86 6.113-19.087 6.113-19.087-4.399-28.057-17.999-57.365-41.351-80.716-23.358-23.351-52.667-36.945-80.716-41.351zm105.311 16.755c40.719 40.719 58.079 86.932 52.428 124.379 0 0-1.972 11.859 5.773 19.604 8.718 8.718 22.535 8.215 30.695.062 5.243-5.243 6.385-13.777 6.385-13.777 4.672-32.361-1.203-97.464-64.647-160.901C285.605 2.887 220.509-2.988 188.147 1.677c0 0-8.527 1.136-13.777 6.385-8.16 8.16-8.656 21.978.061 30.695 7.746 7.746 19.604 5.773 19.604 5.773 37.449-5.651 83.661 11.71 124.38 52.428z" fill="#fff" fill-rule="nonzero"/></symbol><symbol id="twitter" viewBox="0 0 612 612"><path d="M612 116.258a250.714 250.714 0 0 1-72.088 19.772c25.929-15.527 45.777-40.155 55.184-69.411-24.322 14.379-51.169 24.82-79.775 30.48-22.907-24.437-55.49-39.658-91.63-39.658-69.334 0-125.551 56.217-125.551 125.513 0 9.828 1.109 19.427 3.251 28.606-104.326-5.24-196.835-55.223-258.75-131.174-10.823 18.51-16.98 40.078-16.98 63.101 0 43.559 22.181 81.993 55.835 104.479a125.556 125.556 0 0 1-56.867-15.756v1.568c0 60.806 43.291 111.554 100.693 123.104-10.517 2.83-21.607 4.398-33.08 4.398-8.107 0-15.947-.803-23.634-2.333 15.985 49.907 62.336 86.199 117.253 87.194-42.947 33.654-97.099 53.655-155.916 53.655-10.134 0-20.116-.612-29.944-1.721 55.567 35.681 121.536 56.485 192.438 56.485 230.948 0 357.188-191.291 357.188-357.188l-.421-16.253c24.666-17.593 46.005-39.697 62.794-64.861z" fill="#fff" fill-rule="nonzero"/></symbol></svg>