<svg viewBox="0 0 14 14" xmlns="http://www.w3.org/2000/svg" fill-rule="evenodd" clip-rule="evenodd" stroke-linejoin="round" stroke-miterlimit="1.414"><path d="M12.147 11.667H1.853A1.16 1.16 0 0 0 .7 12.833 1.16 1.16 0 0 0 1.853 14h10.294a1.16 1.16 0 0 0 1.153-1.167 1.16 1.16 0 0 0-1.153-1.166zm-6-1.283c.21.21.48.32.756.34.032.002.064.01.097.01s.064-.008.096-.01c.276-.02.546-.13.757-.34l3.69-3.7a1.188 1.188 0 0 0 0-1.677 1.183 1.183 0 0 0-1.673 0l-1.703 1.71v-5.55a1.167 1.167 0 0 0-2.334 0v5.55L4.13 5.006a1.183 1.183 0 0 0-1.673 0 1.188 1.188 0 0 0 0 1.677l3.69 3.7z" fill="#fff"/></svg>