<svg viewBox="0 0 14 14" xmlns="http://www.w3.org/2000/svg" fill-rule="evenodd" clip-rule="evenodd" stroke-linejoin="round" stroke-miterlimit="1.414"><path d="M12.147 11.667H1.853A1.16 1.16 0 0 0 .7 12.833 1.16 1.16 0 0 0 1.853 14h10.294a1.16 1.16 0 0 0 1.153-1.167 1.16 1.16 0 0 0-1.153-1.166zm-6-1.283c.21.211.481.321.756.34.032.002.064.009.097.009s.064-.007.096-.009c.276-.019.546-.129.757-.34l3.69-3.7a1.188 1.188 0 0 0 0-1.677 1.183 1.183 0 0 0-1.673 0L8.167 6.716V1.167a1.167 1.167 0 0 0-2.334 0v5.549L4.13 5.007a1.183 1.183 0 0 0-1.673 0 1.188 1.188 0 0 0 0 1.677l3.69 3.7z" fill="#fff"/></svg>