<svg viewBox="0 0 205 227" xmlns="http://www.w3.org/2000/svg" fill-rule="evenodd" clip-rule="evenodd" stroke-linejoin="round" stroke-miterlimit="1.414"><g fill="#fff" fill-rule="nonzero"><path d="M42.055 61.493v-4.72c2.818-.186 4.59-1.637 4.59-4.278 0-2.133-1.315-3.632-3.456-3.632-2.225 0-2.996 1.952-3.857 4.408C38.33 56 37.1 60.36 31.74 60.36c-3.727 0-7.27-3.135-7.27-7.91 0-2.857 1.772-7.585 7.36-7.723v4.73c-2.044.268-3.04 1.5-3.04 3.223 0 1.726 1.085 2.956 2.675 2.956 2.09 0 2.634-1.82 3.275-3.912.593-1.952 2.178-7.588 8.178-7.588 4.455 0 8.042 3.092 8.042 8.454 0 3.18-2 8.905-8.905 8.905M37.832 92.17c-6.137 0-13.36-4.318-13.36-13.36 0-3.5 1.45-6.728 4.22-8.544v-.093h-2.97v-4.726H50.33v4.726h-3.91v.093c3.095 1.816 4.542 5.137 4.542 8.543 0 8.497-6.493 13.36-13.128 13.36m-.14 51.058c-7.543 0-13.22-5.817-13.22-12.904 0-6.817 5.542-12.77 12.906-12.816.818 0 2.09.092 2.407.135v20.862c4.86-1.184 6.86-5.09 6.86-8.27 0-3.5-2.04-6.047-4.222-7.182v-4.725c6.498 2.404 8.537 8.18 8.537 12.086 0 7.137-6.133 12.814-13.268 12.814m12.636 24.148h-33.63v-8.724c0-9.497 6.955-10.5 9.316-10.5 3.726 0 5.36 1.866 6.36 3.005.82-1.414 2.96-5.002 8.18-5.002 3.457 0 9.774 1.907 9.774 11.176v10.046zm-33.975-57.838h23.813c3.1 0 5.31 0 5.532-3.05h4.822c0 1.502-.75 3.45-2.126 5.045-2.208 2.612-4.377 2.612-8.228 2.612H16.353v-4.607zm4.663-16.27c0 3.14 1.137 4.414 2.908 4.414h1.23v-4.414h4.315v4.414h20.858v4.72h-20.86v2.806h-4.315V102.4h-1.23c-2.68 0-4.547-1.042-5.86-2.994-1.23-2.044-1.366-3.364-1.366-6.138h4.32zm-1.574-58.284h5.627V30.69h4.203v4.294h14.162c1.73 0 2.83-1.236 2.83-4.295h4.206c0 2.702-.13 3.986-1.33 5.98-1.28 1.902-3.09 2.92-5.705 2.92H29.273v2.74H25.07v-2.74H19.44v-4.606zm142.46 81.89c-5.2-27.11-30.3-45.34-57.278-42.468a52.42 52.42 0 0 0 3.74-31.595C102.88 14.228 75.27-4.504 46.687.98 21.513 5.806.675 25.69.675 52.513l-.037-.005.38 127.067 107.54-.11c3.783.113 7.636-.18 11.515-.918 28.58-5.476 47.31-33.09 41.83-61.672M40.554 151.062c-1.222 0-2.41.5-3.316 1.183-2 1.496-2.04 3.772-2.04 5.496v4.727h10.627v-5.31c0-4.96-3.543-6.095-5.272-6.095M25.97 153.06c-4.775 0-4.775 4.594-4.775 5.682v3.725h9.498v-3.996c0-4.59-2.77-5.41-4.722-5.41m2.82-22.69c0 4.544 3.677 7.91 7.36 8.135v-16.27c-3.683.23-7.36 3.593-7.36 8.134m8.995-60.286c-5.367 0-8.995 3.864-8.995 8.725 0 5.817 5.043 8.635 8.995 8.635 4.543 0 8.86-3.59 8.86-8.587 0-4.96-4.047-8.774-8.86-8.774M139.818 201.953c-2.284 2.102-3.507 5.283-3.63 9.45V226.2h3.225v-14.808c0-2.916.637-4.998 2.003-6.553l.024-.027.018-.025c1.084-1.415 3.182-2.35 5.102-2.277 2.548.083 4.458.927 5.686 2.51 1.063 1.42 1.627 2.89 1.537 6.58v14.6h3.226v-14.58c0-3.718.297-4.906 1.674-6.69 1.37-1.784 3.743-2.42 5.51-2.42 2.176 0 3.852.597 4.984 1.767 1.485 1.486 2.2 3.884 2.2 7.344v14.58h3.23v-14.58c0-4.326-1.042-7.535-3.09-9.538-1.767-1.767-4.3-2.705-7.324-2.705-3.005 0-5.913 1.235-7.78 3.3-.38.415-.695.86-.985 1.32-.287-.478-.604-.94-.974-1.334-1.76-2.104-4.56-3.285-7.852-3.286-.34-.015-3.88-.096-6.786 2.576"/><path d="M146.604 199.378c.008 0 .042 0 .046.002l-.05-.002h.004M91.877 199.378c6.043 0 11.155 3.587 13.02 9.14l.43 1.28h-3.462l-.228-.65c-1.628-4.647-6.045-6.682-9.7-6.636-3.103.042-5.155.856-7.564 3.002-1.838 1.667-3.025 4.64-3.025 7.574 0 6.03 4.527 10.575 10.523 10.575 5.246-.042 8.713-3.342 9.716-6.39l.22-.665h3.482l-.44 1.285c-1.847 5.396-6.813 8.807-12.97 8.905-7.842 0-13.756-5.894-13.756-13.663 0-7.843 5.914-13.757 13.755-13.757M54.807 202.51c4.892-.195 9.49 3.778 10.284 8.552H44.485c.802-4.932 5.04-8.55 10.323-8.55m-13.8 10.623c0 7.768 5.914 13.662 13.755 13.662 5.71.053 10.467-3.01 12.714-8.192l.587-1.357h-3.517l-.263.56c-1.71 3.666-5.252 5.854-9.476 5.854-4.124.04-9.865-2.886-10.466-9.465h24.07l.11-1.647-.003-.053c-.32-7.48-6.213-13.12-13.71-13.12-7.867 0-13.8 5.915-13.8 13.758M190.43 202.51c4.89-.195 9.487 3.778 10.28 8.552h-20.605c.802-4.932 5.04-8.55 10.325-8.55m-13.804 10.623c0 7.768 5.916 13.662 13.76 13.662 5.708.053 10.464-3.01 12.71-8.192l.59-1.357h-3.52l-.26.56c-1.71 3.666-5.254 5.854-9.476 5.854-4.125.04-9.868-2.886-10.468-9.465h24.068l.11-1.647v-.053c-.32-7.48-6.214-13.12-13.71-13.12-7.87 0-13.804 5.915-13.804 13.758M110.055 213.088c0-6.03 4.527-10.576 10.53-10.576 6.004 0 10.532 4.546 10.532 10.576s-4.528 10.576-10.532 10.576c-6.003 0-10.53-4.547-10.53-10.576m-3.227 0c0 7.816 5.915 13.71 13.757 13.71s13.757-5.894 13.757-13.71c0-7.817-5.915-13.71-13.757-13.71s-13.757 5.893-13.757 13.71"/><path d="M71.303 190.33h3.18v25.447c0 4.27.867 7.18 5.047 7.316v3.136c-1.41-.048-3.317-.094-5.5-2-2.727-2.41-2.727-5.455-2.727-8.453V190.33zM34.912 224.185c2.286-2.102 3.507-5.28 3.63-9.446l.002-14.803h-3.227v14.81c0 2.915-.636 4.997-2.003 6.554l-.022.024-.02.026c-1.085 1.417-3.18 2.352-5.102 2.278-2.548-.082-4.458-.926-5.685-2.51-1.063-1.42-1.627-2.892-1.54-6.576v-14.605H17.72v14.58c0 3.72-.296 4.91-1.675 6.692-1.37 1.783-3.743 2.417-5.51 2.417-2.175 0-3.85-.593-4.982-1.764-1.486-1.486-2.202-3.885-2.202-7.345v-14.58H.125v14.58c0 4.325 1.04 7.537 3.088 9.537 1.768 1.768 4.302 2.706 7.324 2.706 3.006 0 5.913-1.23 7.78-3.298.378-.414.694-.86.985-1.32.287.48.605.94.975 1.334 1.76 2.104 4.56 3.285 7.852 3.285.34.016 3.88.098 6.785-2.575"/></g></svg>