<svg viewBox="0 0 205 227" xmlns="http://www.w3.org/2000/svg" fill-rule="evenodd" clip-rule="evenodd" stroke-linejoin="round" stroke-miterlimit="1.414"><g fill="#fff" fill-rule="nonzero"><path d="M42.055 61.493v-4.721c2.818-.185 4.591-1.636 4.591-4.277 0-2.133-1.316-3.632-3.457-3.632-2.224 0-2.995 1.952-3.856 4.408-1.002 2.728-2.233 7.087-7.592 7.087-3.728 0-7.27-3.135-7.27-7.909 0-2.858 1.771-7.586 7.359-7.724v4.73c-2.044.268-3.04 1.499-3.04 3.223 0 1.726 1.085 2.956 2.675 2.956 2.09 0 2.634-1.819 3.275-3.912.593-1.952 2.178-7.588 8.178-7.588 4.455 0 8.042 3.092 8.042 8.454 0 3.179-1.999 8.905-8.905 8.905M37.832 92.17c-6.137 0-13.361-4.318-13.361-13.361 0-3.499 1.452-6.727 4.222-8.543v-.093h-2.97v-4.726h24.605v4.726h-3.909v.093c3.094 1.816 4.541 5.137 4.541 8.543 0 8.498-6.493 13.361-13.128 13.361m-.14 51.058c-7.543 0-13.221-5.817-13.221-12.904 0-6.817 5.543-12.771 12.907-12.816.818 0 2.09.092 2.407.135v20.862c4.86-1.184 6.861-5.091 6.861-8.271 0-3.5-2.041-6.046-4.223-7.181v-4.725c6.498 2.404 8.537 8.181 8.537 12.086 0 7.137-6.133 12.814-13.268 12.814m12.636 24.148H16.697v-8.724c0-9.497 6.956-10.5 9.317-10.5 3.726 0 5.361 1.866 6.361 3.005.82-1.414 2.958-5.002 8.18-5.002 3.456 0 9.773 1.907 9.773 11.176v10.045zm-33.975-57.838h23.813c3.099 0 5.31 0 5.532-3.049h4.822c0 1.501-.751 3.45-2.126 5.044-2.208 2.612-4.377 2.612-8.228 2.612H16.353v-4.607zm4.663-16.27c0 3.139 1.137 4.414 2.908 4.414h1.229v-4.414h4.316v4.414h20.859v4.719H29.469v2.807h-4.316v-2.807h-1.229c-2.68 0-4.548-1.043-5.862-2.995-1.229-2.044-1.365-3.364-1.365-6.138h4.319zm-1.574-58.284h5.627v-4.295h4.204v4.295h14.162c1.729 0 2.831-1.236 2.831-4.295h4.205c0 2.703-.13 3.987-1.331 5.98-1.28 1.903-3.091 2.92-5.705 2.92H29.273v2.742h-4.204v-2.742h-5.627v-4.605zm142.46 81.89c-5.201-27.109-30.301-45.341-57.278-42.468a52.42 52.42 0 0 0 3.74-31.595C102.881 14.227 75.271-4.505 46.687.981 21.513 5.805.675 25.691.675 52.512l-.037-.005.38 127.067 107.539-.11c3.784.113 7.637-.18 11.516-.918 28.579-5.476 47.31-33.089 41.829-61.672M40.555 151.062c-1.222 0-2.411.499-3.316 1.183-1.999 1.496-2.04 3.772-2.04 5.496v4.726h10.628v-5.311c0-4.959-3.543-6.094-5.272-6.094m-14.584 1.998c-4.776 0-4.776 4.594-4.776 5.682v3.725h9.498v-3.996c0-4.592-2.77-5.411-4.722-5.411m2.819-22.691c0 4.545 3.677 7.911 7.359 8.136v-16.271c-3.682.23-7.359 3.594-7.359 8.135m8.995-60.285c-5.367 0-8.995 3.864-8.995 8.725 0 5.818 5.043 8.636 8.995 8.636 4.543 0 8.861-3.591 8.861-8.587 0-4.961-4.048-8.774-8.861-8.774M139.818 201.953c-2.284 2.102-3.507 5.283-3.63 9.449v14.799h3.225v-14.809c0-2.916.637-4.998 2.003-6.553l.024-.026.018-.025c1.084-1.415 3.182-2.35 5.102-2.277 2.548.082 4.458.926 5.686 2.51 1.063 1.419 1.627 2.89 1.537 6.578v14.602h3.226v-14.58c0-3.719.298-4.907 1.675-6.691 1.371-1.784 3.743-2.419 5.51-2.419 2.176 0 3.852.596 4.984 1.766 1.485 1.486 2.2 3.884 2.2 7.344v14.58h3.23v-14.58c0-4.327-1.042-7.536-3.091-9.539-1.766-1.767-4.3-2.705-7.323-2.705-3.005 0-5.913 1.235-7.779 3.3-.38.415-.696.861-.986 1.319-.286-.477-.603-.94-.973-1.333-1.76-2.104-4.561-3.285-7.852-3.286-.341-.015-3.88-.096-6.786 2.576"/><path d="M146.604 199.378c.008 0 .042 0 .046.002l-.05-.002h.004M91.877 199.378c6.043 0 11.155 3.587 13.019 9.139l.43 1.28h-3.461l-.228-.65c-1.628-4.646-6.045-6.681-9.7-6.635-3.103.042-5.155.856-7.564 3.002-1.838 1.667-3.025 4.641-3.025 7.574 0 6.029 4.527 10.575 10.523 10.575 5.245-.042 8.712-3.342 9.715-6.389l.22-.666h3.482l-.44 1.285c-1.847 5.396-6.813 8.807-12.971 8.905-7.841 0-13.755-5.894-13.755-13.663 0-7.843 5.914-13.757 13.755-13.757M54.807 202.511c4.892-.196 9.49 3.777 10.284 8.551H44.484c.802-4.932 5.039-8.551 10.323-8.551m-13.801 10.624c0 7.768 5.915 13.662 13.756 13.662 5.71.053 10.467-3.01 12.714-8.192l.587-1.357h-3.517l-.263.56c-1.711 3.666-5.252 5.854-9.476 5.854-4.124.04-9.865-2.886-10.466-9.465H68.41l.11-1.647-.003-.053c-.319-7.479-6.213-13.12-13.71-13.12-7.867 0-13.801 5.915-13.801 13.758M190.43 202.511c4.89-.196 9.487 3.777 10.28 8.551h-20.605c.802-4.932 5.039-8.551 10.325-8.551m-13.804 10.624c0 7.768 5.916 13.662 13.759 13.662 5.709.053 10.465-3.01 12.712-8.192l.589-1.357h-3.519l-.262.56c-1.71 3.666-5.253 5.854-9.475 5.854-4.125.04-9.868-2.886-10.468-9.465h24.068l.111-1.647-.002-.053c-.319-7.479-6.213-13.12-13.709-13.12-7.869 0-13.804 5.915-13.804 13.758M110.055 213.088c0-6.03 4.527-10.576 10.53-10.576 6.004 0 10.532 4.546 10.532 10.576 0 6.029-4.528 10.576-10.532 10.576-6.003 0-10.53-4.547-10.53-10.576m-3.227 0c0 7.816 5.915 13.71 13.757 13.71s13.757-5.894 13.757-13.71c0-7.817-5.915-13.711-13.757-13.711s-13.757 5.894-13.757 13.711"/><path d="M71.303 190.33h3.181v25.447c0 4.27.866 7.18 5.046 7.316v3.136c-1.41-.047-3.317-.093-5.499-1.999-2.728-2.409-2.728-5.455-2.728-8.453V190.33zM34.912 224.185c2.286-2.102 3.507-5.28 3.63-9.446l.002-14.802h-3.227v14.81c0 2.915-.636 4.997-2.003 6.554l-.022.023-.021.026c-1.084 1.417-3.18 2.352-5.101 2.278-2.548-.082-4.458-.926-5.685-2.511-1.063-1.418-1.627-2.891-1.539-6.575v-14.605H17.72v14.581c0 3.719-.296 4.909-1.675 6.691-1.369 1.784-3.743 2.418-5.509 2.418-2.176 0-3.851-.593-4.983-1.764-1.486-1.486-2.202-3.885-2.202-7.345v-14.581H.124v14.581c0 4.325 1.04 7.537 3.088 9.537 1.768 1.768 4.302 2.706 7.324 2.706 3.006 0 5.913-1.232 7.779-3.299.379-.414.695-.861.986-1.32.286.479.604.939.974 1.334 1.759 2.104 4.56 3.285 7.852 3.285.34.015 3.879.097 6.785-2.576"/></g></svg>