<svg viewBox="0 0 279 153" xmlns="http://www.w3.org/2000/svg" fill-rule="evenodd" clip-rule="evenodd" stroke-linejoin="round" stroke-miterlimit="1.414"><g fill-rule="nonzero"><path d="M24.125 138.61h3.763l-2-5.096H13.93l-1.952 5.097h3.667v4.764H1.783v-5.43h3.62l9.91-23.15h-3.764v-5.432h11.384l11.91 28.58h3.62v5.432h-14.34v-4.763zm-4.145-21.77h-.048l-4.334 11.672h8.67l-4.288-11.67zM42.653 123.367h-3.24v-5.43h9.1v4c1.857-2.905 4.906-4.286 8.336-4.286 7.19 0 12.955 5.908 12.955 13.1 0 6.955-5.62 13.005-12.67 13.005-3.336 0-6.574-1.286-8.623-3.954v7.433H51.8v5.43H39.412v-5.43h3.24v-23.866zm21.15 7.384c0-4.144-3.287-7.764-7.527-7.764-4.287 0-7.812 3.334-7.812 7.717 0 4.24 3.43 7.67 7.67 7.67 4.192 0 7.67-3.43 7.67-7.622M91.858 139.945c-1.858 2.81-4.86 4.096-8.193 4.096-7.288 0-13.052-6.048-13.052-13.24 0-7.385 5.906-13.53 13.337-13.53 3.287 0 6.145 1.525 7.908 4.288v-3.62h9.1v5.43h-3.193v14.576h3.192v5.43h-9.1v-3.43zm.096-9.432c0-4.192-3.478-7.574-7.67-7.574-4.335 0-7.67 3.572-7.67 7.86 0 4.143 3.478 7.573 7.575 7.573 4.38 0 7.764-3.525 7.764-7.86M110.958 122.272c1.476-3 4.335-4.478 7.622-4.62v5.953c-1.858.096-3.573.573-5.003 1.86-1.905 1.618-2.19 3.667-2.19 6.05v6.43h3.286v5.43h-12.385v-5.43h3.287v-14.578h-3.287v-5.43h8.67v4.335zM129.963 137.944h4.62v5.43h-10.43v-20.007h-4.003v-5.43h4.002v-8.575h5.81v8.575h4.336v5.43h-4.335v14.577zM140.013 123.367h-3.287v-5.43h8.575v3.81c1.62-2.667 4.097-4.43 7.337-4.43 3.525 0 6.478 2.144 7.907 5.335 1.382-3.24 4.81-5.335 8.336-5.335 2.763 0 5.478 1.143 7.336 3.24 2 2.334 2 4.86 2 7.763v9.624h3.29v5.43h-12.387v-5.43h3.285v-8.194c0-1.668 0-3.144-.762-4.62-.952-1.382-2.524-2.097-4.144-2.097-1.573 0-3.287.667-4.288 1.906-1.19 1.523-1.19 2.953-1.19 4.81v8.194h3.286v5.43h-12.385v-5.43h3.287v-7.813c0-1.523 0-3.428-.763-4.762-.81-1.525-2.477-2.335-4.192-2.335-1.62 0-3 .572-4.05 1.86-1.285 1.57-1.38 3.237-1.38 5.19v7.86h3.287v5.43h-12.386v-5.43h3.287v-14.576zM208.463 135.896c-2 4.86-6.717 8.146-12.005 8.146-7.43 0-13.386-5.812-13.386-13.29 0-7.527 5.67-13.577 13.243-13.577 3.525 0 7.05 1.572 9.528 4.096 2.524 2.67 3.572 5.91 3.572 9.53l-.19 2.047h-20.58c.764 3.526 4.002 6.098 7.623 6.098 2.526 0 4.716-.953 6.146-3.05h6.05zm-4.43-7.527c-1-3.668-4.24-6.002-8.003-6.002-3.43 0-6.717 2.666-7.432 6h15.434zM214.177 123.367h-3.287v-5.43h9.098v3.62c1.525-2.81 4.383-4.192 7.527-4.192 2.763 0 5.478 1.143 7.336 3.143 2.097 2.335 2.144 4.573 2.144 7.48v9.956h3.288v5.43h-12.386v-5.43h3.287v-8.242c0-1.572 0-3.19-1-4.572-1.05-1.382-2.764-2.05-4.478-2.05-1.763 0-3.573.715-4.62 2.145-1.097 1.43-1.097 3.62-1.097 5.335v7.384h3.288v5.43H210.89v-5.43h3.287v-14.577zM250.95 137.944h4.62v5.43H245.14v-20.007h-4v-5.43h4v-8.575h5.812v8.575h4.335v5.43h-4.335v14.577zM263.906 135.99c.19 2.288 1.714 3.81 4.096 3.81 1.763 0 3.478-1.237 3.478-3.142 0-2.525-2.382-2.954-4.335-3.477-4.43-1.142-9.29-2.524-9.29-8.097 0-4.86 4.097-7.67 8.623-7.67 2.286 0 4.335.476 5.764 2.286v-1.763h4.288v6.907h-5.622c-.095-1.81-1.476-3-3.287-3-1.57 0-3.238.905-3.238 2.667 0 2.382 2.334 2.907 4.192 3.335 4.573 1.05 9.48 2.478 9.48 8.193 0 5.146-4.335 8.003-9.1 8.003-2.57 0-4.906-.808-6.572-2.76v2.094h-4.43v-7.383h5.954z" fill="#7a909f"/><path fill="#4b6a90" d="M.876.732h276.27v104.33H.875z"/><path d="M243.82 82.395c-3.01 7.313-10.11 12.26-18.066 12.26-11.185 0-20.147-8.747-20.147-20.003 0-11.328 8.53-20.432 19.932-20.432 5.304 0 10.61 2.365 14.337 6.165 3.8 4.014 5.378 8.89 5.378 14.34l-.288 3.08h-30.97c1.146 5.307 6.02 9.178 11.47 9.178 3.8 0 7.098-1.433 9.25-4.588h9.104zm-6.667-11.328c-1.506-5.52-6.38-9.033-12.045-9.033-5.162 0-10.11 4.015-11.184 9.033h23.23zM199.3 85.478V70.494c0-4.373-.07-7.743-3.225-11.256-2.797-3.01-6.883-4.732-11.042-4.732-4.73 0-9.033 2.08-11.327 6.31v-5.45h-13.12C157.61 41.15 144.763 30.38 129.71 30.38c-17.627 0-31.95 13.983-31.95 31.78 0 17.304 13.99 31.27 31.24 31.514l-.047.012h26.56v-4.5h3.824V67.06h-4.78v-5.192h10.79v27.32h3.824v4.463h9.483V85.48h-4.947V74.365c0-2.58 0-5.878 1.65-8.03 1.577-2.15 4.3-3.225 6.954-3.225 2.58 0 5.162 1.004 6.738 3.083 1.507 2.08 1.507 4.516 1.507 6.883v12.402h-4.947v8.173h18.64V85.48H199.3zm-69.845-3.318c-11.186 0-19.83-9.153-19.83-20.34 0-11.1 8.983-19.914 20-19.914 10.848 0 19.745 8.983 19.745 19.83 0 11.187-8.643 20.424-19.915 20.424M56.21 73.343c3.203-1.496 4.965-4.647 4.965-8.117 0-3.044-1.12-5.714-3.578-7.583-2.296-1.71-5.073-1.976-7.903-1.976H32.766v6.088h4.112v25.952h-4.112v6.088h17.728c3.258 0 6.195-.32 8.758-2.563 2.296-1.976 3.578-5.02 3.578-8.064 0-4.54-2.403-8.116-6.62-9.825M44.193 61.755h3.738c1.548 0 3.257-.107 4.592.748 1.335.854 1.976 2.242 1.976 3.79 0 1.443-.534 2.778-1.71 3.632-1.494 1.068-3.15.96-4.912.96h-3.684v-9.13zm9.238 24.724c-1.495 1.014-3.578.96-5.287.96H44.14V76.868h4.06c1.867 0 3.737 0 5.286 1.12 1.44 1.07 2.082 2.618 2.082 4.327 0 1.603-.748 3.258-2.136 4.165M94.194 55.667H64.697v12.015h5.767v-5.554h5.608v25.58h-4.166v6.087H87.5v-6.088h-4.166v-25.58h5.607v5.555h5.11c-.305-1.8-.472-3.643-.472-5.522 0-2.207.21-4.378.616-6.493" fill="#fff"/></g></svg>