<svg viewBox="0 0 100 55" xmlns="http://www.w3.org/2000/svg" fill-rule="evenodd" clip-rule="evenodd" stroke-linejoin="round" stroke-miterlimit="1.414"><g fill-rule="nonzero"><g fill="#a6a6a6"><path d="M8.087 49.907H9.45l-.725-1.845H4.397l-.707 1.845h1.328v1.724H0v-1.965h1.31l3.587-8.38H3.535V39.32h4.12l4.312 10.345h1.31v1.966h-5.19v-1.723zm-1.5-7.88H6.57L5 46.252H8.14l-1.55-4.225zM14.793 44.39H13.62v-1.966h3.294v1.448c.673-1.052 1.776-1.552 3.018-1.552 2.603 0 4.69 2.14 4.69 4.742 0 2.517-2.035 4.707-4.587 4.707-1.207 0-2.38-.466-3.12-1.432v2.69h1.19v1.966H13.62v-1.966h1.173v-8.64zm7.656 2.672c0-1.5-1.19-2.81-2.726-2.81-1.55 0-2.827 1.206-2.827 2.793a2.775 2.775 0 0 0 2.776 2.776c1.517 0 2.776-1.24 2.776-2.758M32.604 50.39c-.673 1.017-1.76 1.483-2.966 1.483-2.638 0-4.724-2.19-4.724-4.794 0-2.673 2.138-4.898 4.827-4.898 1.19 0 2.226.552 2.864 1.553v-1.31h3.293v1.964h-1.155v5.276h1.155v1.965h-3.293v-1.24zm.035-3.414c0-1.517-1.26-2.742-2.778-2.742-1.57 0-2.776 1.294-2.776 2.845 0 1.5 1.26 2.74 2.742 2.74 1.586 0 2.81-1.275 2.81-2.844M39.517 43.993c.535-1.086 1.57-1.62 2.76-1.672v2.156c-.673.034-1.294.207-1.812.672-.69.586-.793 1.328-.793 2.19v2.328h1.19v1.966H36.38v-1.966h1.19V44.39h-1.19v-1.966h3.137v1.57zM46.396 49.666h1.673v1.965h-3.777v-7.24h-1.448v-1.966h1.448V39.32h2.103v3.104h1.57v1.965h-1.57v5.276zM50.034 44.39h-1.19v-1.966h3.104v1.38c.586-.966 1.483-1.604 2.656-1.604 1.276 0 2.344.776 2.862 1.93.5-1.172 1.74-1.93 3.017-1.93 1 0 1.983.413 2.655 1.172.725.845.725 1.76.725 2.81v3.484h1.19v1.965H60.57v-1.964h1.19V46.7c0-.604 0-1.138-.277-1.672-.344-.5-.913-.76-1.5-.76-.57 0-1.19.242-1.552.69-.43.552-.43 1.07-.43 1.742v2.966h1.19v1.965h-4.483v-1.964h1.19v-2.828c0-.552 0-1.24-.276-1.724-.292-.552-.896-.846-1.517-.846-.586 0-1.085.208-1.465.673-.466.57-.5 1.173-.5 1.88v2.846h1.19v1.965h-4.484v-1.964h1.19V44.39zM74.81 48.924c-.724 1.76-2.43 2.95-4.345 2.95-2.69 0-4.845-2.105-4.845-4.812 0-2.724 2.052-4.914 4.793-4.914 1.276 0 2.553.57 3.45 1.483.913.966 1.292 2.14 1.292 3.45l-.07.74H67.64c.276 1.277 1.448 2.208 2.758 2.208.915 0 1.707-.345 2.225-1.104h2.19zM73.208 46.2c-.362-1.327-1.535-2.172-2.897-2.172-1.242 0-2.43.965-2.69 2.172h5.587zM76.88 44.39h-1.19v-1.966h3.292v1.31c.552-1.017 1.587-1.517 2.725-1.517 1 0 1.983.414 2.655 1.138.76.845.776 1.655.776 2.707v3.604h1.19v1.965h-4.483v-1.964h1.19v-2.984c0-.57 0-1.155-.363-1.654-.38-.5-1-.742-1.62-.742-.64 0-1.294.258-1.673.776-.398.517-.398 1.31-.398 1.93v2.674h1.19v1.965H75.69v-1.964h1.19V44.39zM90.19 49.666h1.672v1.965h-3.776v-7.24h-1.45v-1.966h1.45V39.32h2.103v3.104h1.568v1.965h-1.57v5.276zM94.88 48.96c.068.827.62 1.378 1.482 1.378.638 0 1.258-.448 1.258-1.138 0-.914-.862-1.07-1.57-1.258-1.602-.414-3.36-.914-3.36-2.93 0-1.76 1.482-2.778 3.12-2.778.827 0 1.57.173 2.086.828v-.638h1.552v2.5h-2.035c-.034-.655-.534-1.086-1.19-1.086-.568 0-1.172.328-1.172.965 0 .862.846 1.052 1.52 1.207 1.654.38 3.43.897 3.43 2.966 0 1.862-1.57 2.897-3.294 2.897-.93 0-1.776-.293-2.38-1v.758h-1.603v-2.67h2.156z"/></g><g fill="#fff"><path d="M87.61 29.56c-1.09 2.646-3.66 4.437-6.54 4.437-4.05 0-7.293-3.166-7.293-7.24 0-4.1 3.088-7.396 7.214-7.396 1.922 0 3.842.857 5.19 2.232 1.377 1.453 1.948 3.218 1.948 5.19l-.104 1.116h-11.21c.415 1.92 2.18 3.322 4.15 3.322 1.377 0 2.57-.52 3.35-1.66h3.295zm-2.415-4.1c-.545-2-2.31-3.27-4.36-3.27-1.868 0-3.66 1.452-4.048 3.27h8.408zM71.494 30.675V25.25c0-1.582-.026-2.8-1.167-4.073-1.013-1.09-2.492-1.713-3.997-1.713-1.712 0-3.27.753-4.1 2.284v-1.972h-4.75c-1.077-5.146-5.726-9.045-11.175-9.045-6.38 0-11.564 5.063-11.564 11.505 0 6.263 5.064 11.32 11.308 11.407l-.017.004h9.614v-1.63h1.385V24.01h-1.732v-1.88h3.906v9.89h1.384v1.615h3.432v-2.958h-1.79v-4.023c0-.934 0-2.127.597-2.906.57-.778 1.557-1.167 2.517-1.167.934 0 1.87.362 2.44 1.114.545.753.545 1.635.545 2.492v4.49h-1.792v2.957h6.747v-2.958h-1.79zm-25.28-1.2c-4.05 0-7.18-3.314-7.18-7.363 0-4.02 3.252-7.21 7.24-7.21 3.927 0 7.147 3.253 7.147 7.18 0 4.05-3.127 7.392-7.207 7.392M19.7 26.283c1.16-.542 1.798-1.683 1.798-2.94 0-1.1-.406-2.067-1.295-2.743-.83-.62-1.837-.716-2.86-.716h-6.128v2.204h1.488v9.394h-1.488v2.203h6.417c1.18 0 2.242-.115 3.17-.927.83-.716 1.295-1.817 1.295-2.92 0-1.642-.87-2.937-2.397-3.555m-4.35-4.195h1.354c.56 0 1.18-.04 1.662.27.484.31.716.812.716 1.373 0 .523-.194 1.006-.62 1.315-.54.387-1.14.348-1.777.348H15.35v-3.305zm3.345 8.95c-.54.367-1.295.347-1.914.347h-1.448v-3.827h1.47c.675 0 1.352 0 1.913.406.52.387.753.947.753 1.566 0 .58-.27 1.18-.773 1.507M33.45 19.884H22.772v4.35h2.087v-2.01h2.03v9.258h-1.508v2.203h5.644v-2.203h-1.508v-9.26h2.03v2.01h1.85a11.98 11.98 0 0 1-.172-1.997c0-.8.077-1.585.223-2.35"/></g></g></svg>