<svg viewBox="0 0 100 55" xmlns="http://www.w3.org/2000/svg" fill-rule="evenodd" clip-rule="evenodd" stroke-linejoin="round" stroke-miterlimit="1.414"><g fill-rule="nonzero"><g fill="#a6a6a6"><path d="M8.087 49.907h1.362l-.724-1.845H4.397l-.707 1.845h1.328v1.724H0v-1.966h1.311l3.586-8.379H3.535V39.32h4.121l4.311 10.345h1.31v1.966h-5.19v-1.724zm-1.5-7.88h-.018l-1.568 4.225h3.137l-1.551-4.225zM14.793 44.389h-1.172v-1.965h3.293v1.448c.673-1.052 1.776-1.552 3.018-1.552 2.603 0 4.689 2.139 4.689 4.742 0 2.517-2.034 4.707-4.586 4.707-1.207 0-2.379-.465-3.121-1.431v2.69h1.19v1.966h-4.483v-1.966h1.172v-8.639zm7.656 2.673c0-1.5-1.19-2.811-2.725-2.811-1.551 0-2.827 1.207-2.827 2.794a2.775 2.775 0 0 0 2.776 2.776c1.517 0 2.776-1.242 2.776-2.759M32.604 50.39c-.673 1.017-1.759 1.483-2.966 1.483-2.638 0-4.724-2.19-4.724-4.794 0-2.672 2.138-4.897 4.827-4.897 1.19 0 2.225.552 2.863 1.553v-1.311h3.293v1.965h-1.155v5.277h1.155v1.965h-3.293V50.39zm.035-3.414c0-1.517-1.259-2.742-2.777-2.742-1.569 0-2.776 1.294-2.776 2.845 0 1.5 1.259 2.742 2.742 2.742 1.586 0 2.811-1.276 2.811-2.845M39.517 43.993c.535-1.086 1.569-1.621 2.759-1.672v2.155c-.672.034-1.293.207-1.811.672-.689.586-.793 1.328-.793 2.19v2.328h1.19v1.966h-4.483v-1.966h1.19v-5.277h-1.19v-1.965h3.138v1.569zM46.396 49.666h1.673v1.965h-3.776v-7.242h-1.448v-1.965h1.448V39.32h2.103v3.104h1.57v1.965h-1.57v5.277zM50.034 44.389h-1.19v-1.965h3.104v1.379c.586-.965 1.483-1.603 2.656-1.603 1.276 0 2.344.776 2.862 1.931.5-1.173 1.741-1.931 3.017-1.931 1 0 1.983.413 2.655 1.172.725.845.725 1.759.725 2.81v3.484h1.19v1.965H60.57v-1.965h1.189V46.7c0-.604 0-1.138-.276-1.672-.344-.501-.913-.76-1.5-.76-.569 0-1.189.242-1.552.69C58 45.51 58 46.028 58 46.7v2.966h1.19v1.965h-4.483v-1.965h1.19v-2.828c0-.552 0-1.241-.276-1.724-.293-.552-.897-.846-1.518-.846-.586 0-1.085.208-1.465.673-.466.569-.5 1.172-.5 1.88v2.845h1.19v1.965h-4.484v-1.965h1.19v-5.277zM74.811 48.924c-.725 1.759-2.432 2.949-4.346 2.949-2.69 0-4.845-2.104-4.845-4.811 0-2.724 2.052-4.914 4.793-4.914 1.276 0 2.553.569 3.449 1.483.914.965 1.293 2.138 1.293 3.448l-.069.742h-7.448c.276 1.276 1.448 2.207 2.758 2.207.915 0 1.707-.345 2.225-1.104h2.19zM73.207 46.2c-.362-1.327-1.535-2.172-2.897-2.172-1.242 0-2.431.965-2.69 2.172h5.587zM76.879 44.389h-1.19v-1.965h3.293v1.31c.552-1.017 1.587-1.517 2.725-1.517 1 0 1.983.414 2.655 1.138.759.845.776 1.655.776 2.707v3.604h1.19v1.965h-4.483v-1.965h1.189v-2.984c0-.569 0-1.155-.362-1.654-.379-.501-1-.742-1.62-.742-.639 0-1.294.258-1.673.776-.397.517-.397 1.31-.397 1.931v2.673h1.19v1.965h-4.483v-1.965h1.19v-5.277zM90.189 49.666h1.673v1.965h-3.776v-7.242h-1.449v-1.965h1.449V39.32h2.103v3.104h1.569v1.965h-1.569v5.277zM94.879 48.959c.069.828.62 1.379 1.483 1.379.638 0 1.258-.448 1.258-1.138 0-.914-.862-1.069-1.569-1.258-1.603-.414-3.362-.914-3.362-2.931 0-1.76 1.483-2.777 3.121-2.777.827 0 1.569.173 2.086.828v-.638h1.552v2.5h-2.035c-.034-.655-.534-1.086-1.189-1.086-.569 0-1.173.328-1.173.965 0 .862.845 1.052 1.518 1.207 1.655.38 3.431.897 3.431 2.966 0 1.862-1.569 2.897-3.294 2.897-.93 0-1.776-.293-2.379-1v.758h-1.604v-2.672h2.156z"/></g><g fill="#fff"><path d="M87.609 29.559c-1.09 2.647-3.66 4.438-6.54 4.438-4.048 0-7.292-3.166-7.292-7.241 0-4.1 3.088-7.395 7.214-7.395 1.921 0 3.841.856 5.19 2.231 1.376 1.453 1.947 3.218 1.947 5.19l-.104 1.116H76.813c.416 1.921 2.18 3.322 4.152 3.322 1.376 0 2.57-.519 3.348-1.661h3.296zm-2.414-4.1c-.545-1.998-2.309-3.27-4.36-3.27-1.868 0-3.659 1.453-4.048 3.27h8.408zM71.494 30.675v-5.424c0-1.583-.026-2.802-1.167-4.074-1.013-1.09-2.492-1.713-3.997-1.713-1.712 0-3.27.753-4.1 2.284v-1.972h-4.749c-1.078-5.146-5.727-9.045-11.176-9.045-6.38 0-11.564 5.062-11.564 11.504 0 6.263 5.063 11.319 11.307 11.407l-.017.004h9.613v-1.629h1.385v-8.009h-1.731v-1.879h3.906v9.888h1.384v1.616h3.432v-2.958h-1.79v-4.023c0-.934 0-2.127.597-2.906.571-.778 1.557-1.167 2.517-1.167.934 0 1.869.363 2.439 1.115.546.753.546 1.635.546 2.492v4.489h-1.791v2.958h6.747v-2.958h-1.791zm-25.281-1.201c-4.049 0-7.178-3.313-7.178-7.362 0-4.019 3.251-7.209 7.239-7.209 3.927 0 7.147 3.252 7.147 7.179 0 4.049-3.128 7.392-7.208 7.392M19.7 26.283c1.16-.542 1.798-1.683 1.798-2.939 0-1.101-.406-2.068-1.295-2.744-.831-.619-1.837-.716-2.861-.716h-6.127v2.204h1.488v9.394h-1.488v2.203h6.417c1.179 0 2.242-.115 3.17-.927.831-.716 1.295-1.817 1.295-2.919 0-1.643-.87-2.938-2.397-3.556m-4.349-4.195h1.353c.561 0 1.179-.039 1.662.271.484.309.716.811.716 1.372 0 .522-.194 1.005-.619 1.314-.541.387-1.14.348-1.778.348h-1.334v-3.305zm3.344 8.949c-.541.368-1.295.348-1.914.348h-1.449v-3.827h1.469c.676 0 1.353 0 1.914.406.521.387.753.947.753 1.566 0 .58-.271 1.179-.773 1.507M33.449 19.884H22.773v4.349h2.087v-2.01h2.03v9.259h-1.508v2.203h5.644v-2.203h-1.508v-9.259h2.03v2.01h1.849a11.98 11.98 0 0 1-.171-1.998c0-.799.077-1.585.223-2.351"/></g></g></svg>