<svg viewBox="0 0 279 153" xmlns="http://www.w3.org/2000/svg" fill-rule="evenodd" clip-rule="evenodd" stroke-linejoin="round" stroke-miterlimit="1.414"><g fill-rule="nonzero"><path d="M24.125 138.611h3.763l-2-5.097H13.931l-1.953 5.097h3.667v4.763H1.783v-5.431h3.621l9.908-23.15h-3.763v-5.431h11.385l11.909 28.581h3.62v5.431H24.125v-4.763zm-4.145-21.77h-.048l-4.334 11.671h8.669l-4.287-11.671zM42.653 123.367h-3.24v-5.431h9.099v4.002c1.858-2.906 4.907-4.287 8.337-4.287 7.192 0 12.956 5.907 12.956 13.1 0 6.954-5.621 13.004-12.671 13.004-3.335 0-6.573-1.286-8.622-3.954v7.432h3.287v5.431H39.413v-5.431h3.24v-23.866zm21.15 7.384c0-4.145-3.287-7.765-7.527-7.765-4.287 0-7.812 3.334-7.812 7.717a7.665 7.665 0 0 0 7.67 7.669c4.192 0 7.669-3.429 7.669-7.621M91.858 139.945c-1.858 2.811-4.859 4.096-8.193 4.096-7.288 0-13.052-6.049-13.052-13.242 0-7.384 5.906-13.529 13.337-13.529 3.287 0 6.145 1.525 7.908 4.288v-3.621h9.099v5.43h-3.192v14.577h3.192v5.43h-9.099v-3.429zm.096-9.432c0-4.192-3.478-7.574-7.67-7.574-4.335 0-7.669 3.573-7.669 7.86 0 4.144 3.477 7.574 7.574 7.574 4.382 0 7.765-3.525 7.765-7.86M110.958 122.272c1.476-3.001 4.335-4.478 7.622-4.62v5.953c-1.858.096-3.573.573-5.003 1.859-1.905 1.619-2.191 3.668-2.191 6.05v6.43h3.287v5.431h-12.385v-5.431h3.287v-14.577h-3.287v-5.43h8.67v4.335zM129.963 137.944h4.621v5.43h-10.432v-20.007h-4.002v-5.43h4.002v-8.575h5.811v8.575h4.335v5.43h-4.335v14.577zM140.013 123.367h-3.287v-5.431h8.575v3.811c1.619-2.667 4.096-4.43 7.336-4.43 3.525 0 6.478 2.144 7.907 5.335 1.382-3.239 4.811-5.335 8.336-5.335 2.763 0 5.478 1.143 7.336 3.239 2.001 2.335 2.001 4.86 2.001 7.764v9.624h3.288v5.43h-12.386v-5.43h3.286v-8.194c0-1.668 0-3.144-.762-4.62-.952-1.382-2.524-2.097-4.144-2.097-1.572 0-3.286.667-4.287 1.906-1.191 1.524-1.191 2.954-1.191 4.811v8.194h3.287v5.43h-12.385v-5.43h3.287v-7.813c0-1.524 0-3.429-.763-4.763-.81-1.525-2.477-2.335-4.192-2.335-1.62 0-3 .572-4.049 1.859-1.286 1.571-1.381 3.238-1.381 5.192v7.86h3.287v5.43h-12.386v-5.43h3.287v-14.577zM208.463 135.896c-2.001 4.859-6.717 8.146-12.005 8.146-7.431 0-13.386-5.812-13.386-13.29 0-7.527 5.669-13.577 13.243-13.577 3.525 0 7.051 1.572 9.528 4.096 2.524 2.668 3.572 5.908 3.572 9.528l-.19 2.048h-20.579c.763 3.526 4.001 6.098 7.622 6.098 2.526 0 4.716-.953 6.146-3.049h6.049zm-4.431-7.527c-1-3.667-4.239-6.001-8.002-6.001-3.431 0-6.717 2.666-7.432 6.001h15.434zM214.177 123.367h-3.287v-5.431h9.098v3.621c1.525-2.811 4.383-4.192 7.527-4.192 2.763 0 5.478 1.143 7.336 3.143 2.096 2.335 2.143 4.573 2.143 7.48v9.956h3.288v5.43h-12.386v-5.43h3.287v-8.242c0-1.572 0-3.191-1.001-4.572-1.048-1.382-2.763-2.049-4.477-2.049-1.763 0-3.573.714-4.621 2.144-1.096 1.429-1.096 3.62-1.096 5.335v7.384h3.288v5.43H210.89v-5.43h3.287v-14.577zM250.95 137.944h4.621v5.43h-10.433v-20.007h-4.001v-5.43h4.001v-8.575h5.812v8.575h4.335v5.43h-4.335v14.577zM263.906 135.991c.19 2.287 1.714 3.81 4.096 3.81 1.763 0 3.478-1.238 3.478-3.143 0-2.525-2.382-2.954-4.335-3.477-4.43-1.143-9.289-2.525-9.289-8.098 0-4.86 4.096-7.67 8.622-7.67 2.286 0 4.335.476 5.764 2.286v-1.762h4.288v6.907h-5.622c-.095-1.809-1.476-3-3.287-3-1.572 0-3.239.905-3.239 2.667 0 2.381 2.334 2.906 4.192 3.334 4.573 1.049 9.48 2.478 9.48 8.193 0 5.146-4.335 8.003-9.099 8.003-2.572 0-4.907-.809-6.573-2.762v2.095h-4.431v-7.383h5.955z" fill="#7a909f"/><path fill="#4b6a90" d="M.876.732h276.269v104.329H.876z"/><path d="M243.821 82.395c-3.011 7.313-10.11 12.26-18.067 12.26-11.185 0-20.147-8.747-20.147-20.003 0-11.328 8.531-20.432 19.932-20.432 5.305 0 10.61 2.365 14.338 6.165 3.801 4.014 5.378 8.89 5.378 14.339l-.288 3.082h-30.971c1.147 5.306 6.022 9.177 11.471 9.177 3.799 0 7.098-1.433 9.249-4.588h9.105zm-6.668-11.328c-1.506-5.52-6.38-9.033-12.045-9.033-5.162 0-10.109 4.015-11.184 9.033h23.229zM199.301 85.478V70.494c0-4.373-.072-7.743-3.226-11.256-2.797-3.011-6.883-4.732-11.042-4.732-4.73 0-9.033 2.08-11.327 6.31v-5.449h-13.12c-2.977-14.217-15.823-24.987-30.877-24.987-17.626 0-31.948 13.983-31.948 31.78 0 17.304 13.99 31.271 31.239 31.514l-.047.012h26.559v-4.499h3.825V67.059h-4.781v-5.191h10.79v27.319h3.825v4.464h9.482v-8.173h-4.947V74.365c0-2.581 0-5.878 1.649-8.029 1.578-2.151 4.302-3.226 6.955-3.226 2.581 0 5.162 1.004 6.738 3.083 1.507 2.079 1.507 4.516 1.507 6.883v12.402h-4.947v8.173h18.64v-8.173h-4.947zm-69.846-3.318c-11.186 0-19.83-9.153-19.83-20.339 0-11.102 8.983-19.915 20.001-19.915 10.847 0 19.744 8.983 19.744 19.831 0 11.186-8.643 20.423-19.915 20.423M56.209 73.343c3.204-1.496 4.966-4.647 4.966-8.117 0-3.044-1.121-5.714-3.578-7.583-2.296-1.709-5.073-1.976-7.903-1.976H32.766v6.088h4.112v25.952h-4.112v6.088h17.728c3.258 0 6.195-.32 8.758-2.563 2.296-1.976 3.578-5.02 3.578-8.064 0-4.539-2.403-8.116-6.621-9.825M44.194 61.755h3.738c1.548 0 3.257-.107 4.592.748 1.335.854 1.976 2.242 1.976 3.791 0 1.442-.534 2.777-1.709 3.631-1.495 1.068-3.15.961-4.913.961h-3.684v-9.131zm9.238 24.724c-1.495 1.015-3.578.962-5.287.962H44.14V76.867h4.059c1.868 0 3.738 0 5.287 1.121 1.441 1.069 2.082 2.617 2.082 4.326 0 1.603-.748 3.258-2.136 4.165M94.194 55.667H64.697v12.015h5.767v-5.554h5.608v25.579h-4.166v6.088h15.593v-6.088h-4.165V62.128h5.607v5.554h5.108a33.115 33.115 0 0 1-.471-5.522c0-2.207.211-4.378.616-6.493" fill="#fff"/></g></svg>