<svg viewBox="0 0 661 191" xmlns="http://www.w3.org/2000/svg" fill-rule="evenodd" clip-rule="evenodd" stroke-linejoin="round" stroke-miterlimit="1.414"><g fill-rule="nonzero"><path d="M82.298.932L74.78 5.276c-.007 0-.01.006-.02.01L7.536 44.096l35.59 20.547L82.297.933z" fill="#fdba11"/><path d="M82.304 87.264l74.757-43.166.003-.003L89.843 5.29c-.004-.004-.008-.008-.013-.008L82.298.932l-39.17 63.71 39.176 22.622zM43.127 64.643L7.537 44.095 29.375 87.01l13.752-22.367z" fill="#faa21a"/><path d="M43.127 64.643L29.375 87.01l12.123 23.81 40.806-23.556-39.177-22.62zM82.304 87.264l40.798 23.557 33.96-66.722-74.758 43.166zM7.537 44.095C3.387 46.485 0 52.372 0 57.165v77.622L29.375 87.01 7.537 44.096z" fill="#f5821f"/><path d="M41.498 110.82l40.795 80.173.005.007 40.804-80.18-40.798-23.556-40.806 23.557zM123.102 110.82l41.505 23.967-.002-77.622c.002-1.6-.384-3.324-1.04-4.996-1.313-3.337-3.733-6.48-6.5-8.075l-.004.003-33.958 66.723zM29.375 87.01L0 134.788l41.498-23.966-12.123-23.81z" fill="#f26321"/><path d="M123.102 110.82L82.298 191h.006l7.317-4.222c.028-.02.06-.035.09-.05l.03-.02c.03-.014.066-.03.1-.053l16.486-9.516 50.737-29.294c1.806-1.04 3.468-2.738 4.77-4.72 1.69-2.58 2.774-5.635 2.774-8.34l-41.505-23.965zM82.293 190.993L41.498 110.82 0 134.788c0 2.756 1.128 5.88 2.878 8.493 1.288 1.91 2.907 3.554 4.663 4.566l49.89 28.807 17.335 10.002c.03.023.07.04.102.054l.03.02c.03.013.062.028.087.048l7.31 4.215z" fill="#ef4623"/><path d="M117.59 140.88c-10.58 5.007-23.797-9.29-30.178-18.973 6.38-9.686 19.598-23.994 30.178-18.987 8.36 3.957 6.89 15.532-1.352 18.973 8.24 3.46 9.713 15.033 1.352 18.986zm-38.448 17.468l1.684-31.406h3.04l1.688 31.406h-6.412zm-32.04-17.47c-8.36-3.952-6.89-15.526 1.345-18.985-8.235-3.44-9.705-15.016-1.344-18.973 10.578-5.007 23.795 9.3 30.18 18.987-6.385 9.684-19.602 23.98-30.18 18.972z" fill="#fff"/><path d="M63.37 85.843c3.95-8.36 15.528-6.89 18.98 1.34 3.452-8.23 15.02-9.7 18.976-1.34 5.004 10.582-9.3 23.798-18.983 30.183-9.683-6.385-23.984-19.6-18.974-30.183z" fill="#fae0b1"/><path d="M422.9 122.684V95.118l-3.226-1.1c-.547-.21-.748-.35-.748-1.097v-4.198h8.86c.9 0 1.165.212 1.444.822l1.028 2.478c2.2-2.478 5.64-4.06 9.762-4.06 3.785 0 7.355 1.246 9.7 3.644 2.118 2.27 3.294 5.084 3.294 10.596v20.482h-8.04V103.23c0-3.17-.42-5.024-1.716-6.33-1.178-1.17-3.096-1.782-5.3-1.782-2.198 0-4.12.613-5.286 1.78-1.315 1.308-1.725 3.163-1.725 6.33v19.456H422.9zM464.62 83.772c-3.628 0-4.807-1.65-4.807-4.812 0-3.166 1.18-4.81 4.806-4.81 3.653 0 4.818 1.644 4.818 4.81 0 3.162-1.165 4.812-4.82 4.812zm-3.778 11.346l-3.237-1.1c-.548-.21-.753-.35-.753-1.097v-4.198h10.87c.952 0 1.165.212 1.165 1.033v26.88h3.023c.684 0 .9.2.9.756v5.294h-16.154v-4.05c0-.56.133-.84.744-1.038l3.442-1.03V95.117z" fill="#f47720"/><g fill="#fff"><path d="M205.965 122.684V95.118l-3.242-1.1c-.55-.21-.752-.35-.752-1.097v-4.198h8.864c.896 0 1.178.212 1.445.822l1.03 2.478c2.208-2.478 5.637-4.06 9.768-4.06 3.776 0 7.356 1.246 9.69 3.644 2.127 2.27 3.293 5.084 3.293 10.596v20.482h-8.037V103.23c0-3.17-.41-5.024-1.72-6.33-1.166-1.17-3.09-1.782-5.29-1.782-2.202 0-4.13.613-5.294 1.78-1.314 1.308-1.722 3.163-1.722 6.33v19.456h-8.033zM256.885 94.84c-5.283 0-8.174 3.643-8.174 10.862 0 7.224 2.892 10.863 8.175 10.863 5.304 0 8.187-3.64 8.187-10.863 0-7.22-2.883-10.86-8.187-10.86zm0-6.878c11.35 0 16.37 7.838 16.37 17.74 0 9.896-5.02 17.738-16.37 17.738-11.336 0-16.352-7.842-16.352-17.738 0-9.902 5.016-17.74 16.352-17.74zM275.383 118.635c0-.562.133-.84.752-1.04l3.44-1.03V95.118l-3.23-1.1c-.546-.21-.757-.35-.757-1.097v-4.198h8.87c.896 0 1.23.212 1.446.822l1.03 3.025c1.927-2.884 4.812-4.608 8.11-4.608.825 0 1.93.135 2.477.35.755.27 1.03.622 1.03 1.443v5.834h-2.814c-3.517 0-5.228.56-6.394 1.8-1.313 1.376-1.725 3.58-1.725 7.35v11.895h6.057c.68 0 .822.2.822.756v5.294h-19.113v-4.05zM309.754 111.953c0 1.86.205 3.032 1.03 3.852.69.69 1.927 1.176 3.704 1.176 1.45 0 3.657-.206 5.375-.484v4.96c0 .54-.21.742-.69.882-1.784.614-4.685 1.102-7.083 1.102-3.504 0-6.045-.828-7.768-2.55-1.785-1.78-2.615-4.464-2.615-8.522V82.602c0-1.027.348-1.37 1.38-1.37h6.667v7.49h9.557v5.628c0 .555-.267.768-.888.768h-8.668v16.835zM325.154 122.684V82.122l-3.234-1.096c-.55-.21-.75-.347-.75-1.105v-4.195h10.853c.965 0 1.176.215 1.176 1.038v14.574c2.2-1.998 5.427-3.375 9.068-3.375 3.783 0 7.353 1.246 9.7 3.644 2.126 2.27 3.292 5.084 3.292 10.596v20.482h-8.047V103.23c0-3.17-.408-5.024-1.71-6.33-1.173-1.17-3.093-1.782-5.298-1.782-2.193 0-4.12.613-5.29 1.78-1.308 1.308-1.716 3.163-1.716 6.33v19.456h-8.046zM383.166 102.82c-.205-5.085-3.092-8.184-7.416-8.184-4.682 0-7.158 3.154-7.707 8.185h15.123zm-15.123 6.046c.613 5.086 4.47 8.046 11.414 8.046 3.023 0 6.95-.554 9.29-1.037v5.23c0 .616-.218.755-.618.89-2.692.824-7.026 1.445-10.323 1.445-6.045 0-10.522-1.72-13.405-4.533-3.226-3.166-4.744-7.912-4.744-13.143 0-10.25 5.57-17.802 16.014-17.802 10.312 0 15.54 7.017 15.54 17.19 0 1.23-.07 2.276-.27 3.02-.145.555-.483.694-1.112.694h-21.787zM393.814 118.635c0-.562.15-.84.766-1.04l3.436-1.03V95.118l-3.235-1.1c-.548-.21-.753-.35-.753-1.097v-4.198h8.868c.894 0 1.242.212 1.44.822l1.034 3.025c1.925-2.884 4.816-4.608 8.11-4.608.827 0 1.926.135 2.473.35.76.27 1.03.622 1.03 1.443v5.834h-2.81c-3.52 0-5.23.56-6.394 1.8-1.313 1.376-1.717 3.58-1.717 7.35v11.895h6.054c.68 0 .813.2.813.756v5.294h-19.116v-4.05zM474.453 118.635c0-.562.137-.84.748-1.04l3.448-1.03V95.118l-3.23-1.1c-.55-.21-.764-.35-.764-1.097v-4.198h8.875c.894 0 1.23.212 1.445.822l1.03 3.025c1.927-2.884 4.808-4.608 8.114-4.608.816 0 1.91.135 2.464.35.756.27 1.04.622 1.04 1.443v5.834H494.8c-3.507 0-5.222.56-6.4 1.8-1.296 1.376-1.71 3.58-1.71 7.35v11.895h6.05c.678 0 .813.2.813.756v5.294h-19.1v-4.05zM521.818 102.82c-.2-5.085-3.09-8.184-7.423-8.184-4.674 0-7.147 3.154-7.704 8.185h15.128zm-15.127 6.046c.624 5.086 4.47 8.046 11.414 8.046 3.033 0 6.94-.554 9.28-1.037v5.23c0 .616-.212.755-.613.89-2.69.824-7.025 1.445-10.315 1.445-6.05 0-10.506-1.72-13.406-4.533-3.234-3.166-4.747-7.912-4.747-13.143 0-10.25 5.57-17.802 16.02-17.802 10.31 0 15.538 7.017 15.538 17.19 0 1.23-.065 2.276-.264 3.02-.147.555-.498.694-1.098.694H506.69zM543.123 116.635h3.297c.693 0 .828.2.828.756v5.294h-5.916c-2.396 0-3.842-.412-4.8-1.303-1.032-.966-1.448-2.343-1.448-4.815V82.122l-3.23-1.096c-.547-.21-.76-.347-.76-1.105v-4.195h10.865c.962 0 1.163.215 1.163 1.038v39.872zM573.104 103.098c0-2.898-.415-4.822-1.79-6.26-1.232-1.324-3.162-2.128-5.57-2.128-5.152 0-8.39 3.978-8.39 10.992 0 7.156 2.746 10.994 8.253 10.994 2.4 0 4.397-.82 5.64-2.127 1.366-1.447 1.857-3.37 1.857-6.25v-5.222zm1.785-13.554c.14-.61.41-.822 1.106-.822h5.072v27.913h3.307c.68 0 .82.2.82.756v5.294h-6.937c-3.026 0-4.467-1.168-5.02-3.096-2.205 2.334-5.845 3.852-9.623 3.852-8.523 0-14.44-6.604-14.44-17.6 0-10.722 6.25-17.878 15.257-17.878 4.056 0 7.562 1.65 9.765 4.396l.692-2.814zM590.14 122.684V95.118l-3.234-1.1c-.547-.21-.752-.35-.752-1.097v-4.198h8.864c.896 0 1.177.212 1.455.822l1.03 2.478c2.196-2.478 5.626-4.06 9.757-4.06 3.783 0 7.36 1.246 9.69 3.644 2.13 2.27 3.308 5.084 3.308 10.596v20.482h-8.047V103.23c0-3.17-.415-5.024-1.716-6.33-1.176-1.17-3.103-1.782-5.297-1.782-2.19 0-4.12.613-5.293 1.78-1.304 1.308-1.715 3.163-1.715 6.33v19.456h-8.05zM648.852 103.098c0-2.898-.41-4.822-1.79-6.26-1.248-1.324-3.228-2.128-5.636-2.128-5.164 0-8.526 3.978-8.526 10.992 0 7.156 2.88 10.994 8.38 10.994 2.408 0 4.48-.82 5.716-2.127 1.367-1.447 1.856-3.37 1.856-6.25v-5.222zm-9.565 20.342c-8.525 0-14.56-6.604-14.56-17.6 0-10.722 6.382-17.878 15.39-17.878 3.362 0 6.46 1.18 8.66 3.17v-9.01l-3.228-1.096c-.55-.21-.76-.347-.76-1.105v-4.195h10.864c.963 0 1.166.215 1.166 1.038v39.872h3.303c.682 0 .816.2.816.756v5.294h-7.002c-3.237 0-4.48-1.098-4.95-3.16-2.207 2.336-5.914 3.916-9.7 3.916zM227.352 48.18c0-2.886-.422-4.822-1.79-6.255-1.23-1.31-3.234-2.133-5.64-2.133-5.164 0-8.533 3.986-8.533 11.004 0 7.148 2.89 10.996 8.395 10.996 2.406 0 4.47-.815 5.707-2.137 1.373-1.437 1.86-3.357 1.86-6.246v-5.23zm-9.563 20.342c-8.53 0-14.587-6.588-14.587-17.584 0-10.734 6.404-17.883 15.412-17.883 3.373 0 6.467 1.163 8.668 3.17v-9.017l-3.228-1.108c-.56-.2-.772-.34-.772-1.1v-4.19h10.875c.957 0 1.168.212 1.168 1.03v39.89h3.3c.692 0 .82.204.82.747v5.295h-7.012c-3.227 0-4.467-1.095-4.952-3.162-2.195 2.348-5.908 3.912-9.693 3.912zM249.566 28.854c-3.652 0-4.81-1.646-4.81-4.804 0-3.164 1.158-4.82 4.81-4.82 3.647 0 4.803 1.656 4.803 4.82 0 3.158-1.157 4.804-4.804 4.804zm-3.79 11.35l-3.225-1.106c-.556-.2-.763-.335-.763-1.1v-4.194h10.865c.967 0 1.168.197 1.168 1.033V61.73h3.037c.674 0 .885.204.885.747v5.295h-16.158v-4.045c0-.554.137-.834.754-1.037l3.437-1.033V40.204zM268.266 61.864c1.44.34 3.43.486 5.36.486 2.192 0 4.062-.347 5.16-.953 1.105-.638 1.65-1.672 1.65-2.914 0-2.054-1.243-3.025-5.442-4.037l-4.394-1.113c-6.66-1.647-9.973-4.33-9.973-10.106 0-3.23 1.176-5.703 3.314-7.425 2.466-1.998 5.98-2.747 10.787-2.747 3.644 0 7.7.475 10.175 1.3 1.244.413 1.446.898 1.446 1.65v7.904h-4.46c-1.11 0-1.324-.27-1.53-.896l-1.016-3.423c-1.176-.214-3.104-.333-4.893-.333-3.92 0-6.184.74-6.184 3.36 0 1.917 1.232 2.954 5.09 3.92l4.607 1.167c6.738 1.707 10.174 3.777 10.174 10.514 0 3.09-1.106 5.51-2.96 7.216-2.34 2.137-5.984 3.088-11.55 3.088-4.06 0-8.73-.61-11.21-1.283-1.027-.282-1.228-.768-1.228-1.66v-8.046h4.738c.822 0 1.166.205 1.37.885l.968 3.444zM314.748 44.75c-1.03 0-1.23-.35-1.512-1.04l-1.443-3.918c-.69-.127-1.855-.274-2.752-.274-2.88 0-5.23.82-6.802 2.47-1.86 1.92-2.685 4.952-2.685 8.808 0 3.37.824 6.195 2.414 8.035 1.78 2.07 4.453 3.24 8.79 3.24 2.333 0 5.714-.413 7.915-.888v5.356c0 .486-.207.7-.682.832-2.482.756-5.992 1.152-8.802 1.152-5.305 0-9.846-1.355-13.016-4.455-3.012-2.955-4.805-7.43-4.805-13.13 0-5.86 1.932-10.6 5.305-13.694 2.945-2.684 7.137-4.188 12.37-4.188 3.3 0 6.73.676 9.01 1.504.964.343 1.096.755 1.096 1.665v8.524h-4.4zM338.342 39.927c-5.3 0-8.194 3.636-8.194 10.87 0 7.22 2.893 10.86 8.194 10.86 5.29 0 8.18-3.64 8.18-10.86 0-7.234-2.89-10.87-8.18-10.87zm0-6.872c11.347 0 16.363 7.833 16.363 17.74 0 9.893-5.016 17.727-16.363 17.727-11.354 0-16.37-7.834-16.37-17.726 0-9.908 5.016-17.74 16.37-17.74zM364.252 33.804c.486 0 .766.126.967.755l7.56 24.413h.07l7.636-24.414c.202-.63.475-.756.96-.756h7.568L376.9 67.772h-7.822c-.685 0-.97-.2-1.176-.748l-9.562-26.888-3.365-1.104c-.54-.2-.75-.412-.75-.95v-4.278h10.027zM412.12 47.907c-.204-5.086-3.106-8.182-7.43-8.182-4.667 0-7.135 3.166-7.71 8.182h15.14zm-15.14 6.05c.633 5.09 4.48 8.046 11.426 8.046 3.03 0 6.95-.563 9.282-1.026v5.22c0 .618-.208.76-.62.9-2.673.814-7.002 1.425-10.31 1.425-6.045 0-10.524-1.707-13.414-4.53-3.223-3.16-4.74-7.907-4.74-13.126 0-10.25 5.57-17.81 16.017-17.81 10.327 0 15.544 7.013 15.544 17.193 0 1.23-.07 2.26-.273 3.01-.132.553-.474.696-1.09.696h-21.82zM422.785 63.727c0-.554.133-.834.75-1.037l3.442-1.033V40.204l-3.23-1.106c-.554-.2-.76-.335-.76-1.1v-4.194h8.868c.895 0 1.24.197 1.44.826l1.05 3.03c1.91-2.892 4.805-4.605 8.108-4.605.826 0 1.916.14 2.47.336.755.27 1.026.61 1.026 1.447v5.842h-2.813c-3.51 0-5.24.557-6.4 1.795-1.298 1.377-1.725 3.582-1.725 7.352V61.73h6.058c.684 0 .832.204.832.747v5.295h-19.117v-4.045zM198.096 164.373c-2.78 0-3.733-1.418-3.733-3.836 0-2.414.953-3.84 3.733-3.84 2.79 0 3.73 1.426 3.73 3.84 0 2.418-.94 3.836-3.73 3.836zM222.484 146.2c-.785 0-.94-.262-1.154-.795l-1.105-2.99a12.09 12.09 0 0 0-2.098-.21c-2.203 0-3.996.635-5.203 1.89-1.412 1.468-2.043 3.784-2.043 6.724 0 2.57.632 4.733 1.83 6.143 1.37 1.582 3.42 2.47 6.73 2.47 1.787 0 4.36-.312 6.042-.677v4.092c0 .373-.16.527-.53.635-1.89.574-4.565.89-6.72.89-4.052 0-7.515-1.045-9.93-3.412-2.314-2.262-3.68-5.673-3.68-10.034 0-4.465 1.474-8.086 4.05-10.453 2.258-2.05 5.46-3.207 9.455-3.207 2.518 0 5.144.525 6.887 1.156.726.254.838.57.838 1.262v6.516h-3.368zM240.504 142.514c-4.045 0-6.252 2.795-6.252 8.305 0 5.516 2.207 8.3 6.252 8.3 4.05 0 6.254-2.784 6.254-8.3 0-5.51-2.203-8.306-6.254-8.306zm0-5.248c8.67 0 12.5 5.996 12.5 13.553 0 7.567-3.83 13.553-12.5 13.553-8.662 0-12.504-5.986-12.504-13.554 0-7.558 3.842-13.554 12.504-13.554zM279.172 163.8h-6.152v-15.026c0-2.367-.254-3.682-1.15-4.68-.784-.832-2.104-1.37-3.628-1.37-1.523 0-2.838.538-3.63 1.37-.89.998-1.15 2.313-1.15 4.68V163.8h-6.148v-21.075l-2.466-.832c-.424-.162-.58-.264-.58-.844v-3.206h6.78c.684 0 .89.158 1.098.63l.788 1.892c1.632-1.832 4.1-3.1 7.2-3.1 2.886 0 5.784 1.156 7.41 3.732 1.784-2.26 4.624-3.732 8.09-3.732 2.73 0 5.04.94 6.67 2.576 1.792 1.787 2.577 4.2 2.577 8.037v15.92h-6.146v-15.026c0-2.367-.26-3.682-1.154-4.68-.79-.832-2.1-1.37-3.635-1.37-1.52 0-2.83.538-3.617 1.37-.894.998-1.156 2.313-1.156 4.68V163.8z"/></g></g></svg>