<svg viewBox="0 0 661 191" xmlns="http://www.w3.org/2000/svg" fill-rule="evenodd" clip-rule="evenodd" stroke-linejoin="round" stroke-miterlimit="1.414"><g fill-rule="nonzero"><path d="M82.298.932l-7.517 4.344c-.008 0-.012.006-.022.01L7.537 44.095l35.59 20.548L82.298.932z" fill="#fdba11"/><path d="M82.304 87.264l74.757-43.166.002-.003L89.843 5.29c-.004-.004-.008-.008-.013-.008L82.298.932 43.127 64.643l39.177 22.621zM43.127 64.643L7.537 44.095l21.838 42.916 13.752-22.368z" fill="#faa21a"/><path d="M43.127 64.643L29.375 87.011l12.123 23.81 40.806-23.557-39.177-22.621zM82.304 87.264l40.798 23.557 33.959-66.723-74.757 43.166zM7.537 44.095C3.386 46.485 0 52.372.001 57.165L0 134.787l29.375-47.776L7.537 44.095z" fill="#f5821f"/><path d="M41.498 110.821l40.795 80.172.005.007 40.804-80.179-40.798-23.557-40.806 23.557zM123.102 110.821l41.505 23.966-.002-77.622c.002-1.6-.384-3.324-1.041-4.996-1.312-3.336-3.732-6.479-6.5-8.074l-.003.003-33.959 66.723zM29.375 87.011L0 134.787l41.498-23.966-12.123-23.81z" fill="#f26321"/><path d="M123.102 110.821L82.298 191h.006l7.317-4.222c.027-.02.06-.035.088-.049l.031-.02c.031-.015.066-.031.101-.054l16.485-9.516 50.737-29.293c1.806-1.041 3.468-2.738 4.771-4.721 1.689-2.578 2.773-5.634 2.773-8.338l-41.505-23.966zM82.293 190.993l-40.795-80.172L0 134.787c0 2.756 1.128 5.879 2.878 8.493 1.288 1.91 2.907 3.554 4.663 4.566l49.888 28.807 17.336 10.002c.031.023.069.039.102.054l.029.02a.416.416 0 0 1 .088.049l7.309 4.215z" fill="#ef4623"/><path d="M117.59 140.879c-10.58 5.008-23.797-9.288-30.178-18.972 6.381-9.686 19.598-23.994 30.178-18.987 8.361 3.957 6.889 15.532-1.352 18.973 8.241 3.459 9.713 15.033 1.352 18.986zm-38.448 17.469l1.684-31.406h3.041l1.687 31.406h-6.412zm-32.039-17.469c-8.361-3.953-6.891-15.527 1.344-18.986-8.235-3.441-9.705-15.016-1.344-18.973 10.578-5.007 23.795 9.301 30.18 18.987-6.385 9.684-19.602 23.98-30.18 18.972z" fill="#fff"/><path d="M63.369 85.843c3.951-8.36 15.529-6.891 18.982 1.341 3.451-8.232 15.02-9.701 18.975-1.341 5.004 10.582-9.299 23.798-18.983 30.183-9.683-6.385-23.984-19.601-18.974-30.183z" fill="#fae0b1"/><path d="M422.9 122.684V95.118l-3.226-1.1c-.547-.211-.748-.349-.748-1.097v-4.199h8.859c.901 0 1.166.212 1.445.822l1.028 2.478c2.201-2.478 5.64-4.06 9.762-4.06 3.785 0 7.355 1.246 9.701 3.644 2.117 2.27 3.293 5.084 3.293 10.596v20.482h-8.041v-19.455c0-3.168-.418-5.023-1.715-6.33-1.178-1.168-3.096-1.781-5.301-1.781-2.197 0-4.119.613-5.285 1.781-1.315 1.307-1.725 3.162-1.725 6.33v19.455H422.9zM464.619 83.772c-3.627 0-4.806-1.65-4.806-4.812 0-3.166 1.179-4.809 4.806-4.809 3.654 0 4.819 1.643 4.819 4.809 0 3.162-1.165 4.812-4.819 4.812zm-3.777 11.346l-3.237-1.1c-.548-.211-.753-.349-.753-1.097v-4.199h10.869c.953 0 1.166.212 1.166 1.033v26.88h3.023c.684 0 .901.201.901.756v5.293h-16.155v-4.049c0-.562.133-.84.744-1.039l3.442-1.031V95.118z" fill="#f47720"/><g fill="#fff"><path d="M205.965 122.684V95.118l-3.242-1.1c-.549-.211-.752-.349-.752-1.097v-4.199h8.863c.896 0 1.178.212 1.445.822l1.03 2.478c2.209-2.478 5.638-4.06 9.769-4.06 3.776 0 7.356 1.246 9.69 3.644 2.127 2.27 3.293 5.084 3.293 10.596v20.482h-8.038v-19.455c0-3.168-.41-5.023-1.72-6.33-1.166-1.168-3.09-1.781-5.291-1.781-2.201 0-4.129.613-5.293 1.781-1.313 1.307-1.721 3.162-1.721 6.33v19.455h-8.033zM256.885 94.841c-5.283 0-8.174 3.642-8.174 10.861 0 7.224 2.891 10.863 8.174 10.863 5.304 0 8.187-3.639 8.187-10.863 0-7.219-2.883-10.861-8.187-10.861zm0-6.879c11.349 0 16.369 7.838 16.369 17.74 0 9.896-5.02 17.738-16.369 17.738-11.336 0-16.352-7.842-16.352-17.738 0-9.902 5.016-17.74 16.352-17.74zM275.383 118.635c0-.562.133-.84.752-1.039l3.439-1.031V95.118l-3.228-1.1c-.547-.211-.758-.349-.758-1.097v-4.199h8.869c.897 0 1.232.212 1.447.822l1.03 3.025c1.927-2.883 4.812-4.607 8.111-4.607.824 0 1.928.135 2.476.351.754.27 1.03.621 1.03 1.442v5.834h-2.815c-3.517 0-5.228.562-6.394 1.8-1.313 1.377-1.725 3.582-1.725 7.352v11.894h6.057c.681 0 .822.201.822.756v5.293h-19.113v-4.049zM309.754 111.953c0 1.86.205 3.032 1.029 3.852.69.691 1.928 1.176 3.705 1.176 1.451 0 3.657-.207 5.375-.485v4.959c0 .54-.209.743-.689.883-1.785.614-4.686 1.102-7.084 1.102-3.504 0-6.045-.828-7.768-2.549-1.785-1.781-2.615-4.465-2.615-8.523V82.602c0-1.027.348-1.371 1.381-1.371h6.666v7.491h9.557v5.628c0 .555-.268.768-.889.768h-8.668v16.835zM325.154 122.684V82.122l-3.234-1.096c-.549-.209-.75-.347-.75-1.105v-4.196h10.853c.965 0 1.176.215 1.176 1.038v14.574c2.201-1.998 5.428-3.375 9.069-3.375 3.783 0 7.353 1.246 9.699 3.644 2.127 2.27 3.293 5.084 3.293 10.596v20.482h-8.047v-19.455c0-3.168-.408-5.023-1.709-6.33-1.174-1.168-3.094-1.781-5.299-1.781-2.193 0-4.121.613-5.289 1.781-1.309 1.307-1.717 3.162-1.717 6.33v19.455h-8.045zM383.166 102.821c-.205-5.086-3.092-8.185-7.416-8.185-4.682 0-7.158 3.154-7.707 8.185h15.123zm-15.123 6.045c.613 5.086 4.471 8.046 11.414 8.046 3.023 0 6.949-.554 9.289-1.037v5.229c0 .617-.217.756-.617.891-2.691.824-7.025 1.445-10.322 1.445-6.045 0-10.522-1.719-13.405-4.533-3.226-3.166-4.744-7.912-4.744-13.143 0-10.25 5.571-17.802 16.014-17.802 10.312 0 15.539 7.017 15.539 17.191 0 1.23-.07 2.275-.27 3.019-.144.555-.482.694-1.111.694h-21.787zM393.814 118.635c0-.562.151-.84.766-1.039l3.436-1.031V95.118l-3.235-1.1c-.549-.211-.754-.349-.754-1.097v-4.199h8.868c.894 0 1.242.212 1.441.822l1.033 3.025c1.926-2.883 4.817-4.607 8.11-4.607.828 0 1.927.135 2.474.351.76.27 1.029.621 1.029 1.442v5.834h-2.808c-3.52 0-5.231.562-6.395 1.8-1.312 1.377-1.716 3.582-1.716 7.352v11.894h6.054c.68 0 .813.201.813.756v5.293h-19.116v-4.049zM474.453 118.635c0-.562.137-.84.748-1.039l3.447-1.031V95.118l-3.23-1.1c-.549-.211-.764-.349-.764-1.097v-4.199h8.875c.895 0 1.231.212 1.446.822l1.031 3.025c1.926-2.883 4.807-4.607 8.113-4.607.817 0 1.91.135 2.465.351.756.27 1.041.621 1.041 1.442v5.834h-2.826c-3.506 0-5.221.562-6.399 1.8-1.296 1.377-1.711 3.582-1.711 7.352v11.894h6.051c.678 0 .813.201.813.756v5.293h-19.1v-4.049zM521.818 102.821c-.201-5.086-3.091-8.185-7.423-8.185-4.674 0-7.147 3.154-7.704 8.185h15.127zm-15.127 6.045c.623 5.086 4.469 8.046 11.413 8.046 3.033 0 6.941-.554 9.281-1.037v5.229c0 .617-.213.756-.614.891-2.69.824-7.026 1.445-10.316 1.445-6.049 0-10.506-1.719-13.406-4.533-3.233-3.166-4.746-7.912-4.746-13.143 0-10.25 5.57-17.802 16.019-17.802 10.311 0 15.539 7.017 15.539 17.191 0 1.23-.066 2.275-.265 3.019-.147.555-.498.694-1.098.694h-21.807zM543.123 116.635h3.297c.693 0 .828.201.828.756v5.293h-5.916c-2.396 0-3.842-.412-4.801-1.303-1.031-.967-1.447-2.344-1.447-4.816V82.122l-3.229-1.096c-.548-.209-.761-.347-.761-1.105v-4.196h10.865c.963 0 1.164.215 1.164 1.038v39.872zM573.104 103.098c0-2.898-.415-4.822-1.79-6.259-1.232-1.325-3.162-2.129-5.57-2.129-5.152 0-8.39 3.978-8.39 10.992 0 7.156 2.746 10.994 8.253 10.994 2.399 0 4.397-.821 5.639-2.127 1.367-1.446 1.858-3.369 1.858-6.25v-5.221zm1.785-13.554c.142-.61.412-.822 1.107-.822h5.072v27.913h3.307c.68 0 .82.201.82.756v5.293h-6.937c-3.026 0-4.467-1.168-5.02-3.096-2.205 2.334-5.845 3.852-9.623 3.852-8.523 0-14.439-6.604-14.439-17.6 0-10.722 6.25-17.878 15.256-17.878 4.056 0 7.562 1.65 9.765 4.396l.692-2.814zM590.141 122.684V95.118l-3.235-1.1c-.547-.211-.752-.349-.752-1.097v-4.199h8.864c.896 0 1.177.212 1.455.822l1.029 2.478c2.197-2.478 5.627-4.06 9.758-4.06 3.783 0 7.359 1.246 9.689 3.644 2.131 2.27 3.309 5.084 3.309 10.596v20.482h-8.047v-19.455c0-3.168-.416-5.023-1.717-6.33-1.176-1.168-3.103-1.781-5.297-1.781-2.191 0-4.119.613-5.293 1.781-1.304 1.307-1.715 3.162-1.715 6.33v19.455h-8.048zM648.852 103.098c0-2.898-.411-4.822-1.791-6.259-1.247-1.325-3.227-2.129-5.635-2.129-5.164 0-8.526 3.978-8.526 10.992 0 7.156 2.879 10.994 8.381 10.994 2.407 0 4.479-.821 5.715-2.127 1.367-1.446 1.856-3.369 1.856-6.25v-5.221zm-9.565 20.342c-8.525 0-14.56-6.604-14.56-17.6 0-10.722 6.382-17.878 15.39-17.878 3.362 0 6.461 1.181 8.66 3.17v-9.01l-3.228-1.096c-.549-.209-.76-.347-.76-1.105v-4.196h10.865c.963 0 1.166.215 1.166 1.038v39.872h3.303c.682 0 .816.201.816.756v5.293h-7.001c-3.237 0-4.479-1.098-4.95-3.16-2.207 2.336-5.914 3.916-9.701 3.916zM227.352 48.18c0-2.886-.422-4.822-1.789-6.255-1.231-1.309-3.235-2.133-5.641-2.133-5.164 0-8.533 3.986-8.533 11.004 0 7.148 2.89 10.996 8.396 10.996 2.406 0 4.469-.815 5.707-2.137 1.373-1.437 1.86-3.357 1.86-6.246V48.18zm-9.563 20.342c-8.529 0-14.586-6.588-14.586-17.584 0-10.734 6.404-17.883 15.412-17.883 3.373 0 6.467 1.163 8.668 3.17v-9.017l-3.228-1.108c-.559-.199-.772-.341-.772-1.101v-4.188h10.875c.957 0 1.168.211 1.168 1.03v39.888h3.299c.693 0 .822.205.822.748v5.295h-7.013c-3.227 0-4.467-1.095-4.952-3.162-2.195 2.348-5.908 3.912-9.693 3.912zM249.566 28.854c-3.652 0-4.81-1.646-4.81-4.804 0-3.164 1.158-4.819 4.81-4.819 3.647 0 4.803 1.655 4.803 4.819 0 3.158-1.156 4.804-4.803 4.804zm-3.791 11.35l-3.224-1.106c-.557-.201-.764-.335-.764-1.099v-4.195h10.865c.967 0 1.168.197 1.168 1.033v26.892h3.037c.674 0 .885.205.885.748v5.295h-16.158v-4.045c0-.554.137-.834.754-1.037l3.437-1.033V40.204zM268.266 61.864c1.441.34 3.429.486 5.361.486 2.191 0 4.061-.347 5.16-.953 1.104-.638 1.649-1.672 1.649-2.914 0-2.054-1.243-3.025-5.442-4.037l-4.394-1.113c-6.659-1.647-9.973-4.33-9.973-10.106 0-3.23 1.176-5.703 3.314-7.425 2.465-1.998 5.979-2.747 10.786-2.747 3.644 0 7.701.475 10.175 1.301 1.244.412 1.446.897 1.446 1.649v7.904h-4.461c-1.108 0-1.323-.27-1.53-.895l-1.015-3.423c-1.176-.215-3.104-.334-4.893-.334-3.918 0-6.183.74-6.183 3.361 0 1.916 1.232 2.953 5.091 3.918l4.606 1.168c6.738 1.707 10.174 3.777 10.174 10.514 0 3.091-1.106 5.509-2.961 7.216-2.338 2.137-5.983 3.088-11.549 3.088-4.061 0-8.729-.611-11.211-1.283-1.026-.281-1.227-.767-1.227-1.658v-8.047h4.739c.822 0 1.166.205 1.369.885l.969 3.445zM314.748 44.749c-1.031 0-1.23-.35-1.512-1.039l-1.443-3.918c-.689-.127-1.855-.274-2.752-.274-2.881 0-5.232.819-6.803 2.471-1.861 1.92-2.685 4.951-2.685 8.807 0 3.369.824 6.195 2.414 8.035 1.779 2.07 4.453 3.238 8.789 3.238 2.334 0 5.715-.412 7.916-.887v5.356c0 .486-.207.701-.682.832-2.482.756-5.992 1.152-8.802 1.152-5.305 0-9.846-1.355-13.016-4.455-3.012-2.955-4.805-7.429-4.805-13.129 0-5.861 1.932-10.601 5.305-13.695 2.945-2.684 7.137-4.188 12.369-4.188 3.301 0 6.73.676 9.012 1.504.963.344 1.095.756 1.095 1.666v8.524h-4.4zM338.342 39.927c-5.301 0-8.194 3.636-8.194 10.869 0 7.22 2.893 10.861 8.194 10.861 5.289 0 8.179-3.641 8.179-10.861 0-7.233-2.89-10.869-8.179-10.869zm0-6.872c11.347 0 16.363 7.833 16.363 17.741 0 9.892-5.016 17.726-16.363 17.726-11.354 0-16.369-7.834-16.369-17.726 0-9.908 5.015-17.741 16.369-17.741zM364.252 33.804c.486 0 .766.126.967.755l7.56 24.414h.071l7.636-24.414c.202-.629.475-.755.961-.755h7.567L376.9 67.772h-7.822c-.685 0-.969-.201-1.176-.748l-9.562-26.888-3.365-1.104c-.541-.201-.75-.412-.75-.951v-4.277h10.027zM412.121 47.907c-.205-5.086-3.107-8.182-7.43-8.182-4.668 0-7.136 3.166-7.711 8.182h15.141zm-15.141 6.049c.633 5.09 4.479 8.047 11.426 8.047 3.03 0 6.949-.563 9.282-1.026v5.221c0 .617-.208.76-.62.899-2.673.814-7.002 1.425-10.31 1.425-6.045 0-10.524-1.707-13.414-4.529-3.223-3.162-4.74-7.908-4.74-13.127 0-10.25 5.57-17.811 16.017-17.811 10.326 0 15.543 7.014 15.543 17.194 0 1.232-.07 2.262-.273 3.01-.133.554-.475.697-1.092.697H396.98zM422.785 63.727c0-.554.133-.834.75-1.037l3.442-1.033V40.204l-3.231-1.106c-.553-.201-.76-.335-.76-1.099v-4.195h8.869c.895 0 1.241.197 1.44.826l1.049 3.029c1.91-2.891 4.806-4.604 8.109-4.604.826 0 1.916.141 2.471.336.754.27 1.025.61 1.025 1.446v5.842h-2.812c-3.51 0-5.239.558-6.401 1.796-1.297 1.377-1.724 3.582-1.724 7.352v11.902h6.058c.684 0 .832.205.832.748v5.295h-19.117v-4.045zM198.096 164.373c-2.78 0-3.733-1.418-3.733-3.836 0-2.414.953-3.839 3.733-3.839 2.789 0 3.73 1.425 3.73 3.839 0 2.418-.941 3.836-3.73 3.836zM222.484 146.2c-.785 0-.939-.262-1.154-.795l-1.105-2.989a12.09 12.09 0 0 0-2.098-.211c-2.203 0-3.996.635-5.203 1.889-1.412 1.469-2.043 3.785-2.043 6.725 0 2.57.631 4.734 1.83 6.144 1.369 1.582 3.42 2.469 6.728 2.469 1.788 0 4.362-.311 6.043-.676v4.092c0 .373-.16.527-.529.635-1.892.574-4.566.89-6.721.89-4.052 0-7.515-1.045-9.931-3.412-2.313-2.263-3.678-5.674-3.678-10.035 0-4.465 1.473-8.086 4.049-10.453 2.258-2.051 5.459-3.207 9.455-3.207 2.518 0 5.144.525 6.887 1.156.726.254.838.571.838 1.262v6.516h-3.368zM240.504 142.514c-4.045 0-6.252 2.795-6.252 8.305 0 5.517 2.207 8.302 6.252 8.302 4.051 0 6.254-2.785 6.254-8.302 0-5.51-2.203-8.305-6.254-8.305zm0-5.248c8.67 0 12.5 5.996 12.5 13.553 0 7.568-3.83 13.554-12.5 13.554-8.662 0-12.504-5.986-12.504-13.554 0-7.557 3.842-13.553 12.504-13.553zM279.172 163.799h-6.152v-15.025c0-2.367-.254-3.682-1.151-4.68-.783-.832-2.103-1.369-3.627-1.369-1.523 0-2.838.537-3.629 1.369-.89.998-1.152 2.313-1.152 4.68v15.025h-6.147v-21.074l-2.466-.832c-.424-.162-.58-.264-.58-.844v-3.205h6.779c.685 0 .89.158 1.099.629l.788 1.893c1.632-1.832 4.101-3.1 7.201-3.1 2.885 0 5.783 1.156 7.41 3.732 1.783-2.259 4.623-3.732 8.09-3.732 2.728 0 5.039.941 6.67 2.576 1.791 1.787 2.576 4.199 2.576 8.037v15.92h-6.147v-15.025c0-2.367-.261-3.682-1.154-4.68-.789-.832-2.101-1.369-3.635-1.369-1.521 0-2.83.537-3.617 1.369-.894.998-1.156 2.313-1.156 4.68v15.025z"/></g></g></svg>