<svg viewBox="0 0 414 414" xmlns="http://www.w3.org/2000/svg" fill-rule="evenodd" clip-rule="evenodd" stroke-linejoin="round" stroke-miterlimit="1.414"><path d="M159.138 256.452c37.217 36.944 80.295 72.236 97.207 55.195 24.215-24.392 39.12-45.614 92.854-2.76 53.733 42.873 12.695 71.726-10.758 95.362-27.064 27.268-128.432 1.91-228.91-97.805C9.063 206.71-17.07 105.54 10.015 78.258 33.474 54.62 62.02 13.378 105.268 66.8c43.27 53.394 22.16 68.462-2.054 92.86-16.904 17.035 18.7 59.84 55.924 96.792zm53.966-176.25s-11.227-1.753-19.088 6.114c-8.092 8.092-8.445 22.032.082 30.552 5.04 5.04 12.145 6.113 12.145 6.113 13.852 2.6 34.728 6.998 56.944 29.207 22.21 22.208 26.608 43.084 29.206 56.943 0 0 1.074 7.106 6.113 12.145 8.52 8.52 22.46 8.174 30.552.082 7.86-7.86 6.113-19.087 6.113-19.087-4.398-28.057-17.998-57.365-41.35-80.716-23.358-23.35-52.667-36.945-80.716-41.35zm105.31 16.756c40.72 40.72 58.08 86.932 52.43 124.38 0 0-1.973 11.858 5.772 19.603 8.718 8.72 22.535 8.216 30.695.063 5.244-5.243 6.386-13.777 6.386-13.777 4.672-32.36-1.203-97.464-64.647-160.9C285.604 2.885 220.51-2.99 188.146 1.675c0 0-8.527 1.137-13.777 6.386-8.16 8.16-8.656 21.978.06 30.695 7.747 7.746 19.605 5.773 19.605 5.773 37.45-5.65 83.66 11.71 124.38 52.428z" fill="#fff" fill-rule="nonzero"/></svg>