<?xml version="1.0" encoding="UTF-8" standalone="no"?><!DOCTYPE svg PUBLIC "-//W3C//DTD SVG 1.1//EN" "http://www.w3.org/Graphics/SVG/1.1/DTD/svg11.dtd"><svg width="100%" height="100%" viewBox="0 0 16 16" version="1.1" xmlns="http://www.w3.org/2000/svg" xmlns:xlink="http://www.w3.org/1999/xlink" xml:space="preserve" style="fill-rule:evenodd;clip-rule:evenodd;stroke-linejoin:round;stroke-miterlimit:1.41421;"><path d="M12.277,11.458c0.115,0.534 0.606,0.924 1.154,0.924c0.383,0 0.715,-0.145 0.931,-0.462l0.917,0c-0.303,0.736 -1.018,1.234 -1.819,1.234c-1.126,0 -2.028,-0.881 -2.028,-2.014c0,-1.14 0.859,-2.056 2.007,-2.056c0.534,0 1.068,0.238 1.443,0.62c0.382,0.404 0.541,0.895 0.541,1.444l-0.029,0.31l-3.117,0Zm-5.887,1.598l-2.673,0l0.004,-0.001c-1.736,-0.024 -3.144,-1.43 -3.144,-3.172c0,-1.791 1.441,-3.199 3.216,-3.199c1.515,0 2.808,1.084 3.108,2.515l1.32,0l0,0.549c0.231,-0.426 0.664,-0.636 1.14,-0.636c0.419,0 0.83,0.174 1.112,0.477c0.317,0.353 0.325,0.693 0.325,1.133l0,1.508l-0.001,0l0.001,0l0,0l0.497,0l0,0.823l-1.876,0l0,-0.823l0.498,0l0,-1.248c0,-0.239 0,-0.484 -0.151,-0.693c-0.159,-0.209 -0.419,-0.31 -0.679,-0.31c-0.267,0 -0.541,0.108 -0.7,0.324c-0.166,0.217 -0.166,0.549 -0.166,0.808l0,1.119l0.498,0l0,0.823l-0.954,0l0,-0.45l-0.385,0l0,-2.749l-1.086,0l0,0.522l0.481,0l0,2.227l-0.385,0l0,0.453Zm-2.623,-1.16c1.135,0 2.005,-0.93 2.005,-2.056c0,-1.091 -0.896,-1.996 -1.988,-1.996c-1.109,0 -2.013,0.887 -2.013,2.005c0,1.126 0.87,2.047 1.996,2.047Zm10.841,-1.116c-0.152,-0.556 -0.643,-0.91 -1.213,-0.91c-0.519,0 -1.017,0.404 -1.126,0.91l2.339,0Zm-7.996,-7.934c0.285,0 0.565,0.027 0.796,0.199c0.247,0.188 0.36,0.457 0.36,0.763c0,0.35 -0.177,0.667 -0.5,0.818c0.425,0.172 0.667,0.532 0.667,0.988c0,0.307 -0.129,0.613 -0.361,0.812c-0.258,0.226 -0.553,0.258 -0.881,0.258l-1.785,0l0,-0.613l0.414,0l0,-2.612l-0.414,0l0,-0.613l1.704,0Zm4.48,0l-0.003,1.21l-0.526,0l0,-0.559l-0.565,0l0,2.574l0.42,0l0,0.613l-1.57,0l0,-0.613l0.419,0l0,-2.574l-0.564,0l0,0.559l-0.581,0l0,-1.21l2.97,0Zm-4.63,2.134l-0.409,0l0,1.065l0.403,0c0.172,0 0.382,0.005 0.533,-0.097l0,0c0.139,-0.092 0.215,-0.258 0.215,-0.42c0,-0.171 -0.065,-0.327 -0.21,-0.435c-0.156,-0.113 -0.344,-0.113 -0.532,-0.113Zm0.806,-0.354l0,-0.001l0,0.001l0,0Zm-0.838,-0.248c0.177,0 0.344,0.011 0.494,-0.097c0.118,-0.086 0.172,-0.22 0.172,-0.365c0,-0.156 -0.064,-0.296 -0.199,-0.382c-0.134,-0.086 -0.306,-0.075 -0.462,-0.075l-0.376,0l0,0.919l0.371,0Zm4.662,-1.532l0,0l0,0Z"/></svg>