<?xml version="1.0" standalone="no"?><!DOCTYPE svg PUBLIC "-//W3C//DTD SVG 1.1//EN" "http://www.w3.org/Graphics/SVG/1.1/DTD/svg11.dtd"><svg width="100%" height="100%" viewBox="0 0 205 227" version="1.1" xmlns="http://www.w3.org/2000/svg" xmlns:xlink="http://www.w3.org/1999/xlink" xml:space="preserve" style="fill-rule:evenodd;clip-rule:evenodd;stroke-linejoin:round;stroke-miterlimit:1.41421;"><g><path d="M42.055,61.493l0,-4.721c2.818,-0.185 4.591,-1.636 4.591,-4.277c0,-2.133 -1.316,-3.632 -3.457,-3.632c-2.224,0 -2.995,1.952 -3.856,4.408c-1.002,2.728 -2.233,7.087 -7.592,7.087c-3.728,0 -7.27,-3.135 -7.27,-7.909c0,-2.858 1.771,-7.586 7.359,-7.724l0,4.73c-2.044,0.268 -3.04,1.499 -3.04,3.223c0,1.726 1.085,2.956 2.675,2.956c2.09,0 2.634,-1.819 3.275,-3.912c0.593,-1.952 2.178,-7.588 8.178,-7.588c4.455,0 8.042,3.092 8.042,8.454c0,3.179 -1.999,8.905 -8.905,8.905M37.832,92.17c-6.137,0 -13.361,-4.318 -13.361,-13.361c0,-3.499 1.452,-6.727 4.222,-8.543l0,-0.093l-2.97,0l0,-4.726l24.605,0l0,4.726l-3.909,0l0,0.093c3.094,1.816 4.541,5.137 4.541,8.543c0,8.498 -6.493,13.361 -13.128,13.361M37.692,143.228c-7.543,0 -13.221,-5.817 -13.221,-12.904c0,-6.817 5.543,-12.771 12.907,-12.816c0.818,0 2.09,0.092 2.407,0.135l0,20.862c4.86,-1.184 6.861,-5.091 6.861,-8.271c0,-3.5 -2.041,-6.046 -4.223,-7.181l0,-4.725c6.498,2.404 8.537,8.181 8.537,12.086c0,7.137 -6.133,12.814 -13.268,12.814M50.328,167.376l-33.631,0l0,-8.724c0,-9.497 6.956,-10.5 9.317,-10.5c3.726,0 5.361,1.866 6.361,3.005c0.82,-1.414 2.958,-5.002 8.18,-5.002c3.456,0 9.773,1.907 9.773,11.176l0,10.045ZM16.353,109.538l23.813,0c3.099,0 5.31,0 5.532,-3.049l4.822,0c0,1.501 -0.751,3.45 -2.126,5.044c-2.208,2.612 -4.377,2.612 -8.228,2.612l-23.813,0l0,-4.607ZM21.016,93.268c0,3.139 1.137,4.414 2.908,4.414l1.229,0l0,-4.414l4.316,0l0,4.414l20.859,0l0,4.719l-20.859,0l0,2.807l-4.316,0l0,-2.807l-1.229,0c-2.68,0 -4.548,-1.043 -5.862,-2.995c-1.229,-2.044 -1.365,-3.364 -1.365,-6.138l4.319,0ZM19.442,34.984l5.627,0l0,-4.295l4.204,0l0,4.295l14.162,0c1.729,0 2.831,-1.236 2.831,-4.295l4.205,0c0,2.703 -0.13,3.987 -1.331,5.98c-1.28,1.903 -3.091,2.92 -5.705,2.92l-14.162,0l0,2.742l-4.204,0l0,-2.742l-5.627,0l0,-4.605ZM161.902,116.874c-5.201,-27.109 -30.301,-45.341 -57.278,-42.468c4.331,-9.566 5.864,-20.499 3.74,-31.595c-5.483,-28.584 -33.093,-47.316 -61.677,-41.83c-25.174,4.824 -46.012,24.71 -46.012,51.531l-0.037,-0.005l0.38,127.067l107.539,-0.11c3.784,0.113 7.637,-0.18 11.516,-0.918c28.579,-5.476 47.31,-33.089 41.829,-61.672M40.555,151.062c-1.222,0 -2.411,0.499 -3.316,1.183c-1.999,1.496 -2.04,3.772 -2.04,5.496l0,4.726l10.628,0l0,-5.311c0,-4.959 -3.543,-6.094 -5.272,-6.094M25.971,153.06c-4.776,0 -4.776,4.594 -4.776,5.682l0,3.725l9.498,0l0,-3.996c0,-4.592 -2.77,-5.411 -4.722,-5.411M28.79,130.369c0,4.545 3.677,7.911 7.359,8.136l0,-16.271c-3.682,0.23 -7.359,3.594 -7.359,8.135M37.785,70.084c-5.367,0 -8.995,3.864 -8.995,8.725c0,5.818 5.043,8.636 8.995,8.636c4.543,0 8.861,-3.591 8.861,-8.587c0,-4.961 -4.048,-8.774 -8.861,-8.774" style="fill:#fff;fill-rule:nonzero;"/><g><path d="M139.818,201.953c-2.284,2.102 -3.507,5.283 -3.63,9.449l0,14.799l3.225,0l0,-14.809c0,-2.916 0.637,-4.998 2.003,-6.553l0.024,-0.026l0.018,-0.025c1.084,-1.415 3.182,-2.35 5.102,-2.277c2.548,0.082 4.458,0.926 5.686,2.51c1.063,1.419 1.627,2.89 1.537,6.578l0,14.602l3.226,0l0,-14.58c0,-3.719 0.298,-4.907 1.675,-6.691c1.371,-1.784 3.743,-2.419 5.51,-2.419c2.176,0 3.852,0.596 4.984,1.766c1.485,1.486 2.2,3.884 2.2,7.344l0,14.58l3.23,0l0,-14.58c0,-4.327 -1.042,-7.536 -3.091,-9.539c-1.766,-1.767 -4.3,-2.705 -7.323,-2.705c-3.005,0 -5.913,1.235 -7.779,3.3c-0.38,0.415 -0.696,0.861 -0.986,1.319c-0.286,-0.477 -0.603,-0.94 -0.973,-1.333c-1.76,-2.104 -4.561,-3.285 -7.852,-3.286c-0.341,-0.015 -3.88,-0.096 -6.786,2.576" style="fill:#fff;fill-rule:nonzero;"/><path d="M146.604,199.378c0.008,0 0.042,0 0.046,0.002l-0.05,-0.002l0.004,0" style="fill:#fff;fill-rule:nonzero;"/><path d="M91.877,199.378c6.043,0 11.155,3.587 13.019,9.139l0.43,1.28l-3.461,0l-0.228,-0.65c-1.628,-4.646 -6.045,-6.681 -9.7,-6.635c-3.103,0.042 -5.155,0.856 -7.564,3.002c-1.838,1.667 -3.025,4.641 -3.025,7.574c0,6.029 4.527,10.575 10.523,10.575c5.245,-0.042 8.712,-3.342 9.715,-6.389l0.22,-0.666l3.482,0l-0.44,1.285c-1.847,5.396 -6.813,8.807 -12.971,8.905c-7.841,0 -13.755,-5.894 -13.755,-13.663c0,-7.843 5.914,-13.757 13.755,-13.757" style="fill:#fff;fill-rule:nonzero;"/><path d="M54.807,202.511c4.892,-0.196 9.49,3.777 10.284,8.551l-20.607,0c0.802,-4.932 5.039,-8.551 10.323,-8.551M41.006,213.135c0,7.768 5.915,13.662 13.756,13.662c5.71,0.053 10.467,-3.01 12.714,-8.192l0.587,-1.357l-3.517,0l-0.263,0.56c-1.711,3.666 -5.252,5.854 -9.476,5.854c-4.124,0.04 -9.865,-2.886 -10.466,-9.465l24.069,0l0.11,-1.647l-0.003,-0.053c-0.319,-7.479 -6.213,-13.12 -13.71,-13.12c-7.867,0 -13.801,5.915 -13.801,13.758" style="fill:#fff;fill-rule:nonzero;"/><path d="M190.43,202.511c4.89,-0.196 9.487,3.777 10.28,8.551l-20.605,0c0.802,-4.932 5.039,-8.551 10.325,-8.551M176.626,213.135c0,7.768 5.916,13.662 13.759,13.662c5.709,0.053 10.465,-3.01 12.712,-8.192l0.589,-1.357l-3.519,0l-0.262,0.56c-1.71,3.666 -5.253,5.854 -9.475,5.854c-4.125,0.04 -9.868,-2.886 -10.468,-9.465l24.068,0l0.111,-1.647l-0.002,-0.053c-0.319,-7.479 -6.213,-13.12 -13.709,-13.12c-7.869,0 -13.804,5.915 -13.804,13.758" style="fill:#fff;fill-rule:nonzero;"/><path d="M110.055,213.088c0,-6.03 4.527,-10.576 10.53,-10.576c6.004,0 10.532,4.546 10.532,10.576c0,6.029 -4.528,10.576 -10.532,10.576c-6.003,0 -10.53,-4.547 -10.53,-10.576M106.828,213.088c0,7.816 5.915,13.71 13.757,13.71c7.842,0 13.757,-5.894 13.757,-13.71c0,-7.817 -5.915,-13.711 -13.757,-13.711c-7.842,0 -13.757,5.894 -13.757,13.711" style="fill:#fff;fill-rule:nonzero;"/><path d="M71.303,190.33l3.181,0l0,25.447c0,4.27 0.866,7.18 5.046,7.316l0,3.136c-1.41,-0.047 -3.317,-0.093 -5.499,-1.999c-2.728,-2.409 -2.728,-5.455 -2.728,-8.453l0,-25.447Z" style="fill:#fff;fill-rule:nonzero;"/><path d="M34.912,224.185c2.286,-2.102 3.507,-5.28 3.63,-9.446l0.002,-14.802l-3.227,0l0,14.81c0,2.915 -0.636,4.997 -2.003,6.554l-0.022,0.023l-0.021,0.026c-1.084,1.417 -3.18,2.352 -5.101,2.278c-2.548,-0.082 -4.458,-0.926 -5.685,-2.511c-1.063,-1.418 -1.627,-2.891 -1.539,-6.575l0,-14.605l-3.226,0l0,14.581c0,3.719 -0.296,4.909 -1.675,6.691c-1.369,1.784 -3.743,2.418 -5.509,2.418c-2.176,0 -3.851,-0.593 -4.983,-1.764c-1.486,-1.486 -2.202,-3.885 -2.202,-7.345l0,-14.581l-3.227,0l0,14.581c0,4.325 1.04,7.537 3.088,9.537c1.768,1.768 4.302,2.706 7.324,2.706c3.006,0 5.913,-1.232 7.779,-3.299c0.379,-0.414 0.695,-0.861 0.986,-1.32c0.286,0.479 0.604,0.939 0.974,1.334c1.759,2.104 4.56,3.285 7.852,3.285c0.34,0.015 3.879,0.097 6.785,-2.576" style="fill:#fff;fill-rule:nonzero;"/></g></g></svg>