<svg width="100%" height="100%" viewBox="0 0 279 153" version="1.1" xmlns="http://www.w3.org/2000/svg" xmlns:xlink="http://www.w3.org/1999/xlink" xml:space="preserve" fill-rule="evenodd" clip-rule="evenodd" stroke-linejoin="round" stroke-miterlimit="1.41421"><path d="M24.125,138.611l3.763,0l-2,-5.097l-11.957,0l-1.953,5.097l3.667,0l0,4.763l-13.862,0l0,-5.431l3.621,0l9.908,-23.15l-3.763,0l0,-5.431l11.385,0l11.909,28.581l3.62,0l0,5.431l-14.338,0l0,-4.763ZM19.98,116.841l-0.048,0l-4.334,11.671l8.669,0l-4.287,-11.671Z" fill="#7a909f" fill-rule="nonzero"/><path d="M42.653,123.367l-3.24,0l0,-5.431l9.099,0l0,4.002c1.858,-2.906 4.907,-4.287 8.337,-4.287c7.192,0 12.956,5.907 12.956,13.1c0,6.954 -5.621,13.004 -12.671,13.004c-3.335,0 -6.573,-1.286 -8.622,-3.954l0,7.432l3.287,0l0,5.431l-12.386,0l0,-5.431l3.24,0l0,-23.866ZM63.803,130.751c0,-4.145 -3.287,-7.765 -7.527,-7.765c-4.287,0 -7.812,3.334 -7.812,7.717c0,4.24 3.431,7.669 7.67,7.669c4.192,0 7.669,-3.429 7.669,-7.621" fill="#7a909f" fill-rule="nonzero"/><path d="M91.858,139.945c-1.858,2.811 -4.859,4.096 -8.193,4.096c-7.288,0 -13.052,-6.049 -13.052,-13.242c0,-7.384 5.906,-13.529 13.337,-13.529c3.287,0 6.145,1.525 7.908,4.288l0,-3.621l9.099,0l0,5.43l-3.192,0l0,14.577l3.192,0l0,5.43l-9.099,0l0,-3.429ZM91.954,130.513c0,-4.192 -3.478,-7.574 -7.67,-7.574c-4.335,0 -7.669,3.573 -7.669,7.86c0,4.144 3.477,7.574 7.574,7.574c4.382,0 7.765,-3.525 7.765,-7.86" fill="#7a909f" fill-rule="nonzero"/><path d="M110.958,122.272c1.476,-3.001 4.335,-4.478 7.622,-4.62l0,5.953c-1.858,0.096 -3.573,0.573 -5.003,1.859c-1.905,1.619 -2.191,3.668 -2.191,6.05l0,6.43l3.287,0l0,5.431l-12.385,0l0,-5.431l3.287,0l0,-14.577l-3.287,0l0,-5.43l8.67,0l0,4.335Z" fill="#7a909f" fill-rule="nonzero"/><path d="M129.963,137.944l4.621,0l0,5.43l-10.432,0l0,-20.007l-4.002,0l0,-5.43l4.002,0l0,-8.575l5.811,0l0,8.575l4.335,0l0,5.43l-4.335,0l0,14.577Z" fill="#7a909f" fill-rule="nonzero"/><path d="M140.013,123.367l-3.287,0l0,-5.431l8.575,0l0,3.811c1.619,-2.667 4.096,-4.43 7.336,-4.43c3.525,0 6.478,2.144 7.907,5.335c1.382,-3.239 4.811,-5.335 8.336,-5.335c2.763,0 5.478,1.143 7.336,3.239c2.001,2.335 2.001,4.86 2.001,7.764l0,9.624l3.288,0l0,5.43l-12.386,0l0,-5.43l3.286,0l0,-8.194c0,-1.668 0,-3.144 -0.762,-4.62c-0.952,-1.382 -2.524,-2.097 -4.144,-2.097c-1.572,0 -3.286,0.667 -4.287,1.906c-1.191,1.524 -1.191,2.954 -1.191,4.811l0,8.194l3.287,0l0,5.43l-12.385,0l0,-5.43l3.287,0l0,-7.813c0,-1.524 0,-3.429 -0.763,-4.763c-0.81,-1.525 -2.477,-2.335 -4.192,-2.335c-1.62,0 -3,0.572 -4.049,1.859c-1.286,1.571 -1.381,3.238 -1.381,5.192l0,7.86l3.287,0l0,5.43l-12.386,0l0,-5.43l3.287,0l0,-14.577Z" fill="#7a909f" fill-rule="nonzero"/><path d="M208.463,135.896c-2.001,4.859 -6.717,8.146 -12.005,8.146c-7.431,0 -13.386,-5.812 -13.386,-13.29c0,-7.527 5.669,-13.577 13.243,-13.577c3.525,0 7.051,1.572 9.528,4.096c2.524,2.668 3.572,5.908 3.572,9.528l-0.19,2.048l-20.579,0c0.763,3.526 4.001,6.098 7.622,6.098c2.526,0 4.716,-0.953 6.146,-3.049l6.049,0ZM204.032,128.369c-1,-3.667 -4.239,-6.001 -8.002,-6.001c-3.431,0 -6.717,2.666 -7.432,6.001l15.434,0Z" fill="#7a909f" fill-rule="nonzero"/><path d="M214.177,123.367l-3.287,0l0,-5.431l9.098,0l0,3.621c1.525,-2.811 4.383,-4.192 7.527,-4.192c2.763,0 5.478,1.143 7.336,3.143c2.096,2.335 2.143,4.573 2.143,7.48l0,9.956l3.288,0l0,5.43l-12.386,0l0,-5.43l3.287,0l0,-8.242c0,-1.572 0,-3.191 -1.001,-4.572c-1.048,-1.382 -2.763,-2.049 -4.477,-2.049c-1.763,0 -3.573,0.714 -4.621,2.144c-1.096,1.429 -1.096,3.62 -1.096,5.335l0,7.384l3.288,0l0,5.43l-12.386,0l0,-5.43l3.287,0l0,-14.577Z" fill="#7a909f" fill-rule="nonzero"/><path d="M250.95,137.944l4.621,0l0,5.43l-10.433,0l0,-20.007l-4.001,0l0,-5.43l4.001,0l0,-8.575l5.812,0l0,8.575l4.335,0l0,5.43l-4.335,0l0,14.577Z" fill="#7a909f" fill-rule="nonzero"/><path d="M263.906,135.991c0.19,2.287 1.714,3.81 4.096,3.81c1.763,0 3.478,-1.238 3.478,-3.143c0,-2.525 -2.382,-2.954 -4.335,-3.477c-4.43,-1.143 -9.289,-2.525 -9.289,-8.098c0,-4.86 4.096,-7.67 8.622,-7.67c2.286,0 4.335,0.476 5.764,2.286l0,-1.762l4.288,0l0,6.907l-5.622,0c-0.095,-1.809 -1.476,-3 -3.287,-3c-1.572,0 -3.239,0.905 -3.239,2.667c0,2.381 2.334,2.906 4.192,3.334c4.573,1.049 9.48,2.478 9.48,8.193c0,5.146 -4.335,8.003 -9.099,8.003c-2.572,0 -4.907,-0.809 -6.573,-2.762l0,2.095l-4.431,0l0,-7.383l5.955,0Z" fill="#7a909f" fill-rule="nonzero"/><rect x=".876" y=".732" width="276.269" height="104.329" fill="#4b6a90" fill-rule="nonzero"/><path d="M243.821,82.395c-3.011,7.313 -10.11,12.26 -18.067,12.26c-11.185,0 -20.147,-8.747 -20.147,-20.003c0,-11.328 8.531,-20.432 19.932,-20.432c5.305,0 10.61,2.365 14.338,6.165c3.801,4.014 5.378,8.89 5.378,14.339l-0.288,3.082l-30.971,0c1.147,5.306 6.022,9.177 11.471,9.177c3.799,0 7.098,-1.433 9.249,-4.588l9.105,0ZM237.153,71.067c-1.506,-5.52 -6.38,-9.033 -12.045,-9.033c-5.162,0 -10.109,4.015 -11.184,9.033l23.229,0Z" fill="#fff" fill-rule="nonzero"/><path d="M199.301,85.478l0,-14.984c0,-4.373 -0.072,-7.743 -3.226,-11.256c-2.797,-3.011 -6.883,-4.732 -11.042,-4.732c-4.73,0 -9.033,2.08 -11.327,6.31l0,-5.449l-13.12,0c-2.977,-14.217 -15.823,-24.987 -30.877,-24.987c-17.626,0 -31.948,13.983 -31.948,31.78c0,17.304 13.99,31.271 31.239,31.514l-0.047,0.012l26.559,0l0,-4.499l3.825,0l0,-22.128l-4.781,0l0,-5.191l10.79,0l0,27.319l3.825,0l0,4.464l9.482,0l0,-8.173l-4.947,0l0,-11.113c0,-2.581 0,-5.878 1.649,-8.029c1.578,-2.151 4.302,-3.226 6.955,-3.226c2.581,0 5.162,1.004 6.738,3.083c1.507,2.079 1.507,4.516 1.507,6.883l0,12.402l-4.947,0l0,8.173l18.64,0l0,-8.173l-4.947,0ZM129.455,82.16c-11.186,0 -19.83,-9.153 -19.83,-20.339c0,-11.102 8.983,-19.915 20.001,-19.915c10.847,0 19.744,8.983 19.744,19.831c0,11.186 -8.643,20.423 -19.915,20.423" fill="#fff" fill-rule="nonzero"/><path d="M56.209,73.343c3.204,-1.496 4.966,-4.647 4.966,-8.117c0,-3.044 -1.121,-5.714 -3.578,-7.583c-2.296,-1.709 -5.073,-1.976 -7.903,-1.976l-16.928,0l0,6.088l4.112,0l0,25.952l-4.112,0l0,6.088l17.728,0c3.258,0 6.195,-0.32 8.758,-2.563c2.296,-1.976 3.578,-5.02 3.578,-8.064c0,-4.539 -2.403,-8.116 -6.621,-9.825M44.194,61.755l3.738,0c1.548,0 3.257,-0.107 4.592,0.748c1.335,0.854 1.976,2.242 1.976,3.791c0,1.442 -0.534,2.777 -1.709,3.631c-1.495,1.068 -3.15,0.961 -4.913,0.961l-3.684,0l0,-9.131ZM53.432,86.479c-1.495,1.015 -3.578,0.962 -5.287,0.962l-4.005,0l0,-10.574l4.059,0c1.868,0 3.738,0 5.287,1.121c1.441,1.069 2.082,2.617 2.082,4.326c0,1.603 -0.748,3.258 -2.136,4.165" fill="#fff" fill-rule="nonzero"/><path d="M94.194,55.667l-29.497,0l0,12.015l5.767,0l0,-5.554l5.608,0l0,25.579l-4.166,0l0,6.088l15.593,0l0,-6.088l-4.165,0l0,-25.579l5.607,0l0,5.554l5.108,0c-0.304,-1.799 -0.471,-3.643 -0.471,-5.522c0,-2.207 0.211,-4.378 0.616,-6.493" fill="#fff" fill-rule="nonzero"/></svg>