<?xml version="1.0" standalone="no"?><!DOCTYPE svg PUBLIC "-//W3C//DTD SVG 1.1//EN" "http://www.w3.org/Graphics/SVG/1.1/DTD/svg11.dtd"><svg width="100%" height="100%" viewBox="0 0 100 55" version="1.1" xmlns="http://www.w3.org/2000/svg" xmlns:xlink="http://www.w3.org/1999/xlink" xml:space="preserve" style="fill-rule:evenodd;clip-rule:evenodd;stroke-linejoin:round;stroke-miterlimit:1.41421;"><g><g id="apartments"><path d="M8.087,49.907l1.362,0l-0.724,-1.845l-4.328,0l-0.707,1.845l1.328,0l0,1.724l-5.018,0l0,-1.966l1.311,0l3.586,-8.379l-1.362,0l0,-1.966l4.121,0l4.311,10.345l1.31,0l0,1.966l-5.19,0l0,-1.724ZM6.587,42.027l-0.018,0l-1.568,4.225l3.137,0l-1.551,-4.225Z" style="fill:#a6a6a6;fill-rule:nonzero;"/><path d="M14.793,44.389l-1.172,0l0,-1.965l3.293,0l0,1.448c0.673,-1.052 1.776,-1.552 3.018,-1.552c2.603,0 4.689,2.139 4.689,4.742c0,2.517 -2.034,4.707 -4.586,4.707c-1.207,0 -2.379,-0.465 -3.121,-1.431l0,2.69l1.19,0l0,1.966l-4.483,0l0,-1.966l1.172,0l0,-8.639l0,0ZM22.449,47.062c0,-1.5 -1.19,-2.811 -2.725,-2.811c-1.551,0 -2.827,1.207 -2.827,2.794c0,1.534 1.242,2.776 2.776,2.776c1.517,0 2.776,-1.242 2.776,-2.759" style="fill:#a6a6a6;fill-rule:nonzero;"/><path d="M32.604,50.39c-0.673,1.017 -1.759,1.483 -2.966,1.483c-2.638,0 -4.724,-2.19 -4.724,-4.794c0,-2.672 2.138,-4.897 4.827,-4.897c1.19,0 2.225,0.552 2.863,1.553l0,-1.311l3.293,0l0,1.965l-1.155,0l0,5.277l1.155,0l0,1.965l-3.293,0l0,-1.241l0,0ZM32.639,46.976c0,-1.517 -1.259,-2.742 -2.777,-2.742c-1.569,0 -2.776,1.294 -2.776,2.845c0,1.5 1.259,2.742 2.742,2.742c1.586,0 2.811,-1.276 2.811,-2.845" style="fill:#a6a6a6;fill-rule:nonzero;"/><path d="M39.517,43.993c0.535,-1.086 1.569,-1.621 2.759,-1.672l0,2.155c-0.672,0.034 -1.293,0.207 -1.811,0.672c-0.689,0.586 -0.793,1.328 -0.793,2.19l0,2.328l1.19,0l0,1.966l-4.483,0l0,-1.966l1.19,0l0,-5.277l-1.19,0l0,-1.965l3.138,0l0,1.569Z" style="fill:#a6a6a6;fill-rule:nonzero;"/><path d="M46.396,49.666l1.673,0l0,1.965l-3.776,0l0,-7.242l-1.448,0l0,-1.965l1.448,0l0,-3.104l2.103,0l0,3.104l1.57,0l0,1.965l-1.57,0l0,5.277Z" style="fill:#a6a6a6;fill-rule:nonzero;"/><path d="M50.034,44.389l-1.19,0l0,-1.965l3.104,0l0,1.379c0.586,-0.965 1.483,-1.603 2.656,-1.603c1.276,0 2.344,0.776 2.862,1.931c0.5,-1.173 1.741,-1.931 3.017,-1.931c1,0 1.983,0.413 2.655,1.172c0.725,0.845 0.725,1.759 0.725,2.81l0,3.484l1.19,0l0,1.965l-4.483,0l0,-1.965l1.189,0l0,-2.966c0,-0.604 0,-1.138 -0.276,-1.672c-0.344,-0.501 -0.913,-0.76 -1.5,-0.76c-0.569,0 -1.189,0.242 -1.552,0.69c-0.431,0.552 -0.431,1.07 -0.431,1.742l0,2.966l1.19,0l0,1.965l-4.483,0l0,-1.965l1.19,0l0,-2.828c0,-0.552 0,-1.241 -0.276,-1.724c-0.293,-0.552 -0.897,-0.846 -1.518,-0.846c-0.586,0 -1.085,0.208 -1.465,0.673c-0.466,0.569 -0.5,1.172 -0.5,1.88l0,2.845l1.19,0l0,1.965l-4.484,0l0,-1.965l1.19,0l0,-5.277Z" style="fill:#a6a6a6;fill-rule:nonzero;"/><path d="M74.811,48.924c-0.725,1.759 -2.432,2.949 -4.346,2.949c-2.69,0 -4.845,-2.104 -4.845,-4.811c0,-2.724 2.052,-4.914 4.793,-4.914c1.276,0 2.553,0.569 3.449,1.483c0.914,0.965 1.293,2.138 1.293,3.448l-0.069,0.742l-7.448,0c0.276,1.276 1.448,2.207 2.758,2.207c0.915,0 1.707,-0.345 2.225,-1.104l2.19,0ZM73.207,46.2c-0.362,-1.327 -1.535,-2.172 -2.897,-2.172c-1.242,0 -2.431,0.965 -2.69,2.172l5.587,0Z" style="fill:#a6a6a6;fill-rule:nonzero;"/><path d="M76.879,44.389l-1.19,0l0,-1.965l3.293,0l0,1.31c0.552,-1.017 1.587,-1.517 2.725,-1.517c1,0 1.983,0.414 2.655,1.138c0.759,0.845 0.776,1.655 0.776,2.707l0,3.604l1.19,0l0,1.965l-4.483,0l0,-1.965l1.189,0l0,-2.984c0,-0.569 0,-1.155 -0.362,-1.654c-0.379,-0.501 -1,-0.742 -1.62,-0.742c-0.639,0 -1.294,0.258 -1.673,0.776c-0.397,0.517 -0.397,1.31 -0.397,1.931l0,2.673l1.19,0l0,1.965l-4.483,0l0,-1.965l1.19,0l0,-5.277l0,0Z" style="fill:#a6a6a6;fill-rule:nonzero;"/><path d="M90.189,49.666l1.673,0l0,1.965l-3.776,0l0,-7.242l-1.449,0l0,-1.965l1.449,0l0,-3.104l2.103,0l0,3.104l1.569,0l0,1.965l-1.569,0l0,5.277Z" style="fill:#a6a6a6;fill-rule:nonzero;"/><path d="M94.879,48.959c0.069,0.828 0.62,1.379 1.483,1.379c0.638,0 1.258,-0.448 1.258,-1.138c0,-0.914 -0.862,-1.069 -1.569,-1.258c-1.603,-0.414 -3.362,-0.914 -3.362,-2.931c0,-1.76 1.483,-2.777 3.121,-2.777c0.827,0 1.569,0.173 2.086,0.828l0,-0.638l1.552,0l0,2.5l-2.035,0c-0.034,-0.655 -0.534,-1.086 -1.189,-1.086c-0.569,0 -1.173,0.328 -1.173,0.965c0,0.862 0.845,1.052 1.518,1.207c1.655,0.38 3.431,0.897 3.431,2.966c0,1.862 -1.569,2.897 -3.294,2.897c-0.93,0 -1.776,-0.293 -2.379,-1l0,0.758l-1.604,0l0,-2.672l2.156,0Z" style="fill:#a6a6a6;fill-rule:nonzero;"/></g><g id="btOne"><path d="M87.609,29.559c-1.09,2.647 -3.66,4.438 -6.54,4.438c-4.048,0 -7.292,-3.166 -7.292,-7.241c0,-4.1 3.088,-7.395 7.214,-7.395c1.921,0 3.841,0.856 5.19,2.231c1.376,1.453 1.947,3.218 1.947,5.19l-0.104,1.116l-11.211,0c0.416,1.921 2.18,3.322 4.152,3.322c1.376,0 2.57,-0.519 3.348,-1.661l3.296,0ZM85.195,25.459c-0.545,-1.998 -2.309,-3.27 -4.36,-3.27c-1.868,0 -3.659,1.453 -4.048,3.27l8.408,0Z" style="fill:#fff;fill-rule:nonzero;"/><path d="M71.494,30.675l0,-5.424c0,-1.583 -0.026,-2.802 -1.167,-4.074c-1.013,-1.09 -2.492,-1.713 -3.997,-1.713c-1.712,0 -3.27,0.753 -4.1,2.284l0,-1.972l-4.749,0c-1.078,-5.146 -5.727,-9.045 -11.176,-9.045c-6.38,0 -11.564,5.062 -11.564,11.504c0,6.263 5.063,11.319 11.307,11.407l-0.017,0.004l9.613,0l0,-1.629l1.385,0l0,-8.009l-1.731,0l0,-1.879l3.906,0l0,9.888l1.384,0l0,1.616l3.432,0l0,-2.958l-1.79,0l0,-4.023c0,-0.934 0,-2.127 0.597,-2.906c0.571,-0.778 1.557,-1.167 2.517,-1.167c0.934,0 1.869,0.363 2.439,1.115c0.546,0.753 0.546,1.635 0.546,2.492l0,4.489l-1.791,0l0,2.958l6.747,0l0,-2.958l-1.791,0l0,0ZM46.213,29.474c-4.049,0 -7.178,-3.313 -7.178,-7.362c0,-4.019 3.251,-7.209 7.239,-7.209c3.927,0 7.147,3.252 7.147,7.179c0,4.049 -3.128,7.392 -7.208,7.392" style="fill:#fff;fill-rule:nonzero;"/><path d="M19.7,26.283c1.16,-0.542 1.798,-1.683 1.798,-2.939c0,-1.101 -0.406,-2.068 -1.295,-2.744c-0.831,-0.619 -1.837,-0.716 -2.861,-0.716l-6.127,0l0,2.204l1.488,0l0,9.394l-1.488,0l0,2.203l6.417,0c1.179,0 2.242,-0.115 3.17,-0.927c0.831,-0.716 1.295,-1.817 1.295,-2.919c0,-1.643 -0.87,-2.938 -2.397,-3.556M15.351,22.088l1.353,0c0.561,0 1.179,-0.039 1.662,0.271c0.484,0.309 0.716,0.811 0.716,1.372c0,0.522 -0.194,1.005 -0.619,1.314c-0.541,0.387 -1.14,0.348 -1.778,0.348l-1.334,0l0,-3.305l0,0ZM18.695,31.037c-0.541,0.368 -1.295,0.348 -1.914,0.348l-1.449,0l0,-3.827l1.469,0c0.676,0 1.353,0 1.914,0.406c0.521,0.387 0.753,0.947 0.753,1.566c0,0.58 -0.271,1.179 -0.773,1.507" style="fill:#fff;fill-rule:nonzero;"/><path d="M33.449,19.884l-10.676,0l0,4.349l2.087,0l0,-2.01l2.03,0l0,9.259l-1.508,0l0,2.203l5.644,0l0,-2.203l-1.508,0l0,-9.259l2.03,0l0,2.01l1.849,0c-0.11,-0.651 -0.171,-1.318 -0.171,-1.998c0,-0.799 0.077,-1.585 0.223,-2.351" style="fill:#fff;fill-rule:nonzero;"/></g></g></svg>