<?xml version="1.0" standalone="no"?><!DOCTYPE svg PUBLIC "-//W3C//DTD SVG 1.1//EN" "http://www.w3.org/Graphics/SVG/1.1/DTD/svg11.dtd"><svg width="100%" height="100%" viewBox="0 0 661 191" version="1.1" xmlns="http://www.w3.org/2000/svg" xmlns:xlink="http://www.w3.org/1999/xlink" xml:space="preserve" style="fill-rule:evenodd;clip-rule:evenodd;stroke-linejoin:round;stroke-miterlimit:1.41421;"><g><g><path d="M82.298,0.932l-7.517,4.344c-0.008,0 -0.012,0.006 -0.022,0.01l-67.222,38.809l35.59,20.548l39.171,-63.711Z" style="fill:#fdba11;fill-rule:nonzero;"/><path d="M82.304,87.264l74.757,-43.166l0.002,-0.003l-67.22,-38.805c-0.004,-0.004 -0.008,-0.008 -0.013,-0.008l-7.532,-4.35l-39.171,63.711l39.177,22.621Z" style="fill:#faa21a;fill-rule:nonzero;"/><path d="M43.127,64.643l-35.59,-20.548l21.838,42.916l13.752,-22.368Z" style="fill:#faa21a;fill-rule:nonzero;"/><path d="M43.127,64.643l-13.752,22.368l12.123,23.81l40.806,-23.557l-39.177,-22.621Z" style="fill:#f5821f;fill-rule:nonzero;"/><path d="M82.304,87.264l40.798,23.557l33.959,-66.723l-74.757,43.166Z" style="fill:#f5821f;fill-rule:nonzero;"/><path d="M7.537,44.095c-4.151,2.39 -7.537,8.277 -7.536,13.07l-0.001,77.622l29.375,-47.776l-21.838,-42.916Z" style="fill:#f5821f;fill-rule:nonzero;"/><path d="M41.498,110.821l40.795,80.172l0.005,0.007l40.804,-80.179l-40.798,-23.557l-40.806,23.557Z" style="fill:#f26321;fill-rule:nonzero;"/><path d="M123.102,110.821l41.505,23.966l-0.002,-77.622c0.002,-1.6 -0.384,-3.324 -1.041,-4.996c-1.312,-3.336 -3.732,-6.479 -6.5,-8.074l-0.003,0.003l-33.959,66.723Z" style="fill:#f26321;fill-rule:nonzero;"/><path d="M29.375,87.011l-29.375,47.776l41.498,-23.966l-12.123,-23.81Z" style="fill:#f26321;fill-rule:nonzero;"/><path d="M123.102,110.821l-40.804,80.179l0.006,0l7.317,-4.222c0.027,-0.02 0.06,-0.035 0.088,-0.049l0.031,-0.02c0.031,-0.015 0.066,-0.031 0.101,-0.054l16.485,-9.516l50.737,-29.293c1.806,-1.041 3.468,-2.738 4.771,-4.721c1.689,-2.578 2.773,-5.634 2.773,-8.338l-41.505,-23.966Z" style="fill:#ef4623;fill-rule:nonzero;"/><path d="M82.293,190.993l-40.795,-80.172l-41.498,23.966c0,2.756 1.128,5.879 2.878,8.493c1.288,1.91 2.907,3.554 4.663,4.566l49.888,28.807l17.336,10.002c0.031,0.023 0.069,0.039 0.102,0.054l0.029,0.02c0.031,0.014 0.063,0.029 0.088,0.049l7.309,4.215Z" style="fill:#ef4623;fill-rule:nonzero;"/><path d="M117.59,140.879c-10.58,5.008 -23.797,-9.288 -30.178,-18.972c6.381,-9.686 19.598,-23.994 30.178,-18.987c8.361,3.957 6.889,15.532 -1.352,18.973c8.241,3.459 9.713,15.033 1.352,18.986ZM79.142,158.348l1.684,-31.406l3.041,0l1.687,31.406l-6.412,0ZM47.103,140.879c-8.361,-3.953 -6.891,-15.527 1.344,-18.986c-8.235,-3.441 -9.705,-15.016 -1.344,-18.973c10.578,-5.007 23.795,9.301 30.18,18.987c-6.385,9.684 -19.602,23.98 -30.18,18.972Z" style="fill:#fff;fill-rule:nonzero;"/><path d="M63.369,85.843c3.951,-8.36 15.529,-6.891 18.982,1.341c3.451,-8.232 15.02,-9.701 18.975,-1.341c5.004,10.582 -9.299,23.798 -18.983,30.183c-9.683,-6.385 -23.984,-19.601 -18.974,-30.183Z" style="fill:#fae0b1;fill-rule:nonzero;"/><path d="M422.9,122.684l0,-27.566l-3.226,-1.1c-0.547,-0.211 -0.748,-0.349 -0.748,-1.097l0,-4.199l8.859,0c0.901,0 1.166,0.212 1.445,0.822l1.028,2.478c2.201,-2.478 5.64,-4.06 9.762,-4.06c3.785,0 7.355,1.246 9.701,3.644c2.117,2.27 3.293,5.084 3.293,10.596l0,20.482l-8.041,0l0,-19.455c0,-3.168 -0.418,-5.023 -1.715,-6.33c-1.178,-1.168 -3.096,-1.781 -5.301,-1.781c-2.197,0 -4.119,0.613 -5.285,1.781c-1.315,1.307 -1.725,3.162 -1.725,6.33l0,19.455l-8.047,0Z" style="fill:#f47720;fill-rule:nonzero;"/><path d="M464.619,83.772c-3.627,0 -4.806,-1.65 -4.806,-4.812c0,-3.166 1.179,-4.809 4.806,-4.809c3.654,0 4.819,1.643 4.819,4.809c0,3.162 -1.165,4.812 -4.819,4.812ZM460.842,95.118l-3.237,-1.1c-0.548,-0.211 -0.753,-0.349 -0.753,-1.097l0,-4.199l10.869,0c0.953,0 1.166,0.212 1.166,1.033l0,26.88l3.023,0c0.684,0 0.901,0.201 0.901,0.756l0,5.293l-16.155,0l0,-4.049c0,-0.562 0.133,-0.84 0.744,-1.039l3.442,-1.031l0,-21.447Z" style="fill:#f47720;fill-rule:nonzero;"/><g><path d="M205.965,122.684l0,-27.566l-3.242,-1.1c-0.549,-0.211 -0.752,-0.349 -0.752,-1.097l0,-4.199l8.863,0c0.896,0 1.178,0.212 1.445,0.822l1.03,2.478c2.209,-2.478 5.638,-4.06 9.769,-4.06c3.776,0 7.356,1.246 9.69,3.644c2.127,2.27 3.293,5.084 3.293,10.596l0,20.482l-8.038,0l0,-19.455c0,-3.168 -0.41,-5.023 -1.72,-6.33c-1.166,-1.168 -3.09,-1.781 -5.291,-1.781c-2.201,0 -4.129,0.613 -5.293,1.781c-1.313,1.307 -1.721,3.162 -1.721,6.33l0,19.455l-8.033,0Z" style="fill:#fff;fill-rule:nonzero;"/><path d="M256.885,94.841c-5.283,0 -8.174,3.642 -8.174,10.861c0,7.224 2.891,10.863 8.174,10.863c5.304,0 8.187,-3.639 8.187,-10.863c0,-7.219 -2.883,-10.861 -8.187,-10.861ZM256.885,87.962c11.349,0 16.369,7.838 16.369,17.74c0,9.896 -5.02,17.738 -16.369,17.738c-11.336,0 -16.352,-7.842 -16.352,-17.738c0,-9.902 5.016,-17.74 16.352,-17.74Z" style="fill:#fff;fill-rule:nonzero;"/><path d="M275.383,118.635c0,-0.562 0.133,-0.84 0.752,-1.039l3.439,-1.031l0,-21.447l-3.228,-1.1c-0.547,-0.211 -0.758,-0.349 -0.758,-1.097l0,-4.199l8.869,0c0.897,0 1.232,0.212 1.447,0.822l1.03,3.025c1.927,-2.883 4.812,-4.607 8.111,-4.607c0.824,0 1.928,0.135 2.476,0.351c0.754,0.27 1.03,0.621 1.03,1.442l0,5.834l-2.815,0c-3.517,0 -5.228,0.562 -6.394,1.8c-1.313,1.377 -1.725,3.582 -1.725,7.352l0,11.894l6.057,0c0.681,0 0.822,0.201 0.822,0.756l0,5.293l-19.113,0l0,-4.049Z" style="fill:#fff;fill-rule:nonzero;"/><path d="M309.754,111.953c0,1.86 0.205,3.032 1.029,3.852c0.69,0.691 1.928,1.176 3.705,1.176c1.451,0 3.657,-0.207 5.375,-0.485l0,4.959c0,0.54 -0.209,0.743 -0.689,0.883c-1.785,0.614 -4.686,1.102 -7.084,1.102c-3.504,0 -6.045,-0.828 -7.768,-2.549c-1.785,-1.781 -2.615,-4.465 -2.615,-8.523l0,-29.766c0,-1.027 0.348,-1.371 1.381,-1.371l6.666,0l0,7.491l9.557,0l0,5.628c0,0.555 -0.268,0.768 -0.889,0.768l-8.668,0l0,16.835Z" style="fill:#fff;fill-rule:nonzero;"/><path d="M325.154,122.684l0,-40.562l-3.234,-1.096c-0.549,-0.209 -0.75,-0.347 -0.75,-1.105l0,-4.196l10.853,0c0.965,0 1.176,0.215 1.176,1.038l0,14.574c2.201,-1.998 5.428,-3.375 9.069,-3.375c3.783,0 7.353,1.246 9.699,3.644c2.127,2.27 3.293,5.084 3.293,10.596l0,20.482l-8.047,0l0,-19.455c0,-3.168 -0.408,-5.023 -1.709,-6.33c-1.174,-1.168 -3.094,-1.781 -5.299,-1.781c-2.193,0 -4.121,0.613 -5.289,1.781c-1.309,1.307 -1.717,3.162 -1.717,6.33l0,19.455l-8.045,0Z" style="fill:#fff;fill-rule:nonzero;"/><path d="M383.166,102.821c-0.205,-5.086 -3.092,-8.185 -7.416,-8.185c-4.682,0 -7.158,3.154 -7.707,8.185l15.123,0ZM368.043,108.866c0.613,5.086 4.471,8.046 11.414,8.046c3.023,0 6.949,-0.554 9.289,-1.037l0,5.229c0,0.617 -0.217,0.756 -0.617,0.891c-2.691,0.824 -7.025,1.445 -10.322,1.445c-6.045,0 -10.522,-1.719 -13.405,-4.533c-3.226,-3.166 -4.744,-7.912 -4.744,-13.143c0,-10.25 5.571,-17.802 16.014,-17.802c10.312,0 15.539,7.017 15.539,17.191c0,1.23 -0.07,2.275 -0.27,3.019c-0.144,0.555 -0.482,0.694 -1.111,0.694l-21.787,0Z" style="fill:#fff;fill-rule:nonzero;"/><path d="M393.814,118.635c0,-0.562 0.151,-0.84 0.766,-1.039l3.436,-1.031l0,-21.447l-3.235,-1.1c-0.549,-0.211 -0.754,-0.349 -0.754,-1.097l0,-4.199l8.868,0c0.894,0 1.242,0.212 1.441,0.822l1.033,3.025c1.926,-2.883 4.817,-4.607 8.11,-4.607c0.828,0 1.927,0.135 2.474,0.351c0.76,0.27 1.029,0.621 1.029,1.442l0,5.834l-2.808,0c-3.52,0 -5.231,0.562 -6.395,1.8c-1.312,1.377 -1.716,3.582 -1.716,7.352l0,11.894l6.054,0c0.68,0 0.813,0.201 0.813,0.756l0,5.293l-19.116,0l0,-4.049Z" style="fill:#fff;fill-rule:nonzero;"/><path d="M474.453,118.635c0,-0.562 0.137,-0.84 0.748,-1.039l3.447,-1.031l0,-21.447l-3.23,-1.1c-0.549,-0.211 -0.764,-0.349 -0.764,-1.097l0,-4.199l8.875,0c0.895,0 1.231,0.212 1.446,0.822l1.031,3.025c1.926,-2.883 4.807,-4.607 8.113,-4.607c0.817,0 1.91,0.135 2.465,0.351c0.756,0.27 1.041,0.621 1.041,1.442l0,5.834l-2.826,0c-3.506,0 -5.221,0.562 -6.399,1.8c-1.296,1.377 -1.711,3.582 -1.711,7.352l0,11.894l6.051,0c0.678,0 0.813,0.201 0.813,0.756l0,5.293l-19.1,0l0,-4.049Z" style="fill:#fff;fill-rule:nonzero;"/><path d="M521.818,102.821c-0.201,-5.086 -3.091,-8.185 -7.423,-8.185c-4.674,0 -7.147,3.154 -7.704,8.185l15.127,0ZM506.691,108.866c0.623,5.086 4.469,8.046 11.413,8.046c3.033,0 6.941,-0.554 9.281,-1.037l0,5.229c0,0.617 -0.213,0.756 -0.614,0.891c-2.69,0.824 -7.026,1.445 -10.316,1.445c-6.049,0 -10.506,-1.719 -13.406,-4.533c-3.233,-3.166 -4.746,-7.912 -4.746,-13.143c0,-10.25 5.57,-17.802 16.019,-17.802c10.311,0 15.539,7.017 15.539,17.191c0,1.23 -0.066,2.275 -0.265,3.019c-0.147,0.555 -0.498,0.694 -1.098,0.694l-21.807,0Z" style="fill:#fff;fill-rule:nonzero;"/><path d="M543.123,116.635l3.297,0c0.693,0 0.828,0.201 0.828,0.756l0,5.293l-5.916,0c-2.396,0 -3.842,-0.412 -4.801,-1.303c-1.031,-0.967 -1.447,-2.344 -1.447,-4.816l0,-34.443l-3.229,-1.096c-0.548,-0.209 -0.761,-0.347 -0.761,-1.105l0,-4.196l10.865,0c0.963,0 1.164,0.215 1.164,1.038l0,39.872Z" style="fill:#fff;fill-rule:nonzero;"/><path d="M573.104,103.098c0,-2.898 -0.415,-4.822 -1.79,-6.259c-1.232,-1.325 -3.162,-2.129 -5.57,-2.129c-5.152,0 -8.39,3.978 -8.39,10.992c0,7.156 2.746,10.994 8.253,10.994c2.399,0 4.397,-0.821 5.639,-2.127c1.367,-1.446 1.858,-3.369 1.858,-6.25l0,-5.221ZM574.889,89.544c0.142,-0.61 0.412,-0.822 1.107,-0.822l5.072,0l0,27.913l3.307,0c0.68,0 0.82,0.201 0.82,0.756l0,5.293l-6.937,0c-3.026,0 -4.467,-1.168 -5.02,-3.096c-2.205,2.334 -5.845,3.852 -9.623,3.852c-8.523,0 -14.439,-6.604 -14.439,-17.6c0,-10.722 6.25,-17.878 15.256,-17.878c4.056,0 7.562,1.65 9.765,4.396l0.692,-2.814Z" style="fill:#fff;fill-rule:nonzero;"/><path d="M590.141,122.684l0,-27.566l-3.235,-1.1c-0.547,-0.211 -0.752,-0.349 -0.752,-1.097l0,-4.199l8.864,0c0.896,0 1.177,0.212 1.455,0.822l1.029,2.478c2.197,-2.478 5.627,-4.06 9.758,-4.06c3.783,0 7.359,1.246 9.689,3.644c2.131,2.27 3.309,5.084 3.309,10.596l0,20.482l-8.047,0l0,-19.455c0,-3.168 -0.416,-5.023 -1.717,-6.33c-1.176,-1.168 -3.103,-1.781 -5.297,-1.781c-2.191,0 -4.119,0.613 -5.293,1.781c-1.304,1.307 -1.715,3.162 -1.715,6.33l0,19.455l-8.048,0Z" style="fill:#fff;fill-rule:nonzero;"/><path d="M648.852,103.098c0,-2.898 -0.411,-4.822 -1.791,-6.259c-1.247,-1.325 -3.227,-2.129 -5.635,-2.129c-5.164,0 -8.526,3.978 -8.526,10.992c0,7.156 2.879,10.994 8.381,10.994c2.407,0 4.479,-0.821 5.715,-2.127c1.367,-1.446 1.856,-3.369 1.856,-6.25l0,-5.221ZM639.287,123.44c-8.525,0 -14.56,-6.604 -14.56,-17.6c0,-10.722 6.382,-17.878 15.39,-17.878c3.362,0 6.461,1.181 8.66,3.17l0,-9.01l-3.228,-1.096c-0.549,-0.209 -0.76,-0.347 -0.76,-1.105l0,-4.196l10.865,0c0.963,0 1.166,0.215 1.166,1.038l0,39.872l3.303,0c0.682,0 0.816,0.201 0.816,0.756l0,5.293l-7.001,0c-3.237,0 -4.479,-1.098 -4.95,-3.16c-2.207,2.336 -5.914,3.916 -9.701,3.916Z" style="fill:#fff;fill-rule:nonzero;"/><path d="M227.352,48.18c0,-2.886 -0.422,-4.822 -1.789,-6.255c-1.231,-1.309 -3.235,-2.133 -5.641,-2.133c-5.164,0 -8.533,3.986 -8.533,11.004c0,7.148 2.89,10.996 8.396,10.996c2.406,0 4.469,-0.815 5.707,-2.137c1.373,-1.437 1.86,-3.357 1.86,-6.246l0,-5.229ZM217.789,68.522c-8.529,0 -14.586,-6.588 -14.586,-17.584c0,-10.734 6.404,-17.883 15.412,-17.883c3.373,0 6.467,1.163 8.668,3.17l0,-9.017l-3.228,-1.108c-0.559,-0.199 -0.772,-0.341 -0.772,-1.101l0,-4.188l10.875,0c0.957,0 1.168,0.211 1.168,1.03l0,39.888l3.299,0c0.693,0 0.822,0.205 0.822,0.748l0,5.295l-7.013,0c-3.227,0 -4.467,-1.095 -4.952,-3.162c-2.195,2.348 -5.908,3.912 -9.693,3.912Z" style="fill:#fff;fill-rule:nonzero;"/><path d="M249.566,28.854c-3.652,0 -4.81,-1.646 -4.81,-4.804c0,-3.164 1.158,-4.819 4.81,-4.819c3.647,0 4.803,1.655 4.803,4.819c0,3.158 -1.156,4.804 -4.803,4.804ZM245.775,40.204l-3.224,-1.106c-0.557,-0.201 -0.764,-0.335 -0.764,-1.099l0,-4.195l10.865,0c0.967,0 1.168,0.197 1.168,1.033l0,26.892l3.037,0c0.674,0 0.885,0.205 0.885,0.748l0,5.295l-16.158,0l0,-4.045c0,-0.554 0.137,-0.834 0.754,-1.037l3.437,-1.033l0,-21.453Z" style="fill:#fff;fill-rule:nonzero;"/><path d="M268.266,61.864c1.441,0.34 3.429,0.486 5.361,0.486c2.191,0 4.061,-0.347 5.16,-0.953c1.104,-0.638 1.649,-1.672 1.649,-2.914c0,-2.054 -1.243,-3.025 -5.442,-4.037l-4.394,-1.113c-6.659,-1.647 -9.973,-4.33 -9.973,-10.106c0,-3.23 1.176,-5.703 3.314,-7.425c2.465,-1.998 5.979,-2.747 10.786,-2.747c3.644,0 7.701,0.475 10.175,1.301c1.244,0.412 1.446,0.897 1.446,1.649l0,7.904l-4.461,0c-1.108,0 -1.323,-0.27 -1.53,-0.895l-1.015,-3.423c-1.176,-0.215 -3.104,-0.334 -4.893,-0.334c-3.918,0 -6.183,0.74 -6.183,3.361c0,1.916 1.232,2.953 5.091,3.918l4.606,1.168c6.738,1.707 10.174,3.777 10.174,10.514c0,3.091 -1.106,5.509 -2.961,7.216c-2.338,2.137 -5.983,3.088 -11.549,3.088c-4.061,0 -8.729,-0.611 -11.211,-1.283c-1.026,-0.281 -1.227,-0.767 -1.227,-1.658l0,-8.047l4.739,0c0.822,0 1.166,0.205 1.369,0.885l0.969,3.445Z" style="fill:#fff;fill-rule:nonzero;"/><path d="M314.748,44.749c-1.031,0 -1.23,-0.35 -1.512,-1.039l-1.443,-3.918c-0.689,-0.127 -1.855,-0.274 -2.752,-0.274c-2.881,0 -5.232,0.819 -6.803,2.471c-1.861,1.92 -2.685,4.951 -2.685,8.807c0,3.369 0.824,6.195 2.414,8.035c1.779,2.07 4.453,3.238 8.789,3.238c2.334,0 5.715,-0.412 7.916,-0.887l0,5.356c0,0.486 -0.207,0.701 -0.682,0.832c-2.482,0.756 -5.992,1.152 -8.802,1.152c-5.305,0 -9.846,-1.355 -13.016,-4.455c-3.012,-2.955 -4.805,-7.429 -4.805,-13.129c0,-5.861 1.932,-10.601 5.305,-13.695c2.945,-2.684 7.137,-4.188 12.369,-4.188c3.301,0 6.73,0.676 9.012,1.504c0.963,0.344 1.095,0.756 1.095,1.666l0,8.524l-4.4,0Z" style="fill:#fff;fill-rule:nonzero;"/><path d="M338.342,39.927c-5.301,0 -8.194,3.636 -8.194,10.869c0,7.22 2.893,10.861 8.194,10.861c5.289,0 8.179,-3.641 8.179,-10.861c0,-7.233 -2.89,-10.869 -8.179,-10.869ZM338.342,33.055c11.347,0 16.363,7.833 16.363,17.741c0,9.892 -5.016,17.726 -16.363,17.726c-11.354,0 -16.369,-7.834 -16.369,-17.726c0,-9.908 5.015,-17.741 16.369,-17.741Z" style="fill:#fff;fill-rule:nonzero;"/><path d="M364.252,33.804c0.486,0 0.766,0.126 0.967,0.755l7.56,24.414l0.071,0l7.636,-24.414c0.202,-0.629 0.475,-0.755 0.961,-0.755l7.567,0l-12.114,33.968l-7.822,0c-0.685,0 -0.969,-0.201 -1.176,-0.748l-9.562,-26.888l-3.365,-1.104c-0.541,-0.201 -0.75,-0.412 -0.75,-0.951l0,-4.277l10.027,0Z" style="fill:#fff;fill-rule:nonzero;"/><path d="M412.121,47.907c-0.205,-5.086 -3.107,-8.182 -7.43,-8.182c-4.668,0 -7.136,3.166 -7.711,8.182l15.141,0ZM396.98,53.956c0.633,5.09 4.479,8.047 11.426,8.047c3.03,0 6.949,-0.563 9.282,-1.026l0,5.221c0,0.617 -0.208,0.76 -0.62,0.899c-2.673,0.814 -7.002,1.425 -10.31,1.425c-6.045,0 -10.524,-1.707 -13.414,-4.529c-3.223,-3.162 -4.74,-7.908 -4.74,-13.127c0,-10.25 5.57,-17.811 16.017,-17.811c10.326,0 15.543,7.014 15.543,17.194c0,1.232 -0.07,2.262 -0.273,3.01c-0.133,0.554 -0.475,0.697 -1.092,0.697l-21.819,0Z" style="fill:#fff;fill-rule:nonzero;"/><path d="M422.785,63.727c0,-0.554 0.133,-0.834 0.75,-1.037l3.442,-1.033l0,-21.453l-3.231,-1.106c-0.553,-0.201 -0.76,-0.335 -0.76,-1.099l0,-4.195l8.869,0c0.895,0 1.241,0.197 1.44,0.826l1.049,3.029c1.91,-2.891 4.806,-4.604 8.109,-4.604c0.826,0 1.916,0.141 2.471,0.336c0.754,0.27 1.025,0.61 1.025,1.446l0,5.842l-2.812,0c-3.51,0 -5.239,0.558 -6.401,1.796c-1.297,1.377 -1.724,3.582 -1.724,7.352l0,11.902l6.058,0c0.684,0 0.832,0.205 0.832,0.748l0,5.295l-19.117,0l0,-4.045Z" style="fill:#fff;fill-rule:nonzero;"/><path d="M198.096,164.373c-2.78,0 -3.733,-1.418 -3.733,-3.836c0,-2.414 0.953,-3.839 3.733,-3.839c2.789,0 3.73,1.425 3.73,3.839c0,2.418 -0.941,3.836 -3.73,3.836Z" style="fill:#fff;fill-rule:nonzero;"/><path d="M222.484,146.2c-0.785,0 -0.939,-0.262 -1.154,-0.795l-1.105,-2.989c-0.52,-0.107 -1.418,-0.211 -2.098,-0.211c-2.203,0 -3.996,0.635 -5.203,1.889c-1.412,1.469 -2.043,3.785 -2.043,6.725c0,2.57 0.631,4.734 1.83,6.144c1.369,1.582 3.42,2.469 6.728,2.469c1.788,0 4.362,-0.311 6.043,-0.676l0,4.092c0,0.373 -0.16,0.527 -0.529,0.635c-1.892,0.574 -4.566,0.89 -6.721,0.89c-4.052,0 -7.515,-1.045 -9.931,-3.412c-2.313,-2.263 -3.678,-5.674 -3.678,-10.035c0,-4.465 1.473,-8.086 4.049,-10.453c2.258,-2.051 5.459,-3.207 9.455,-3.207c2.518,0 5.144,0.525 6.887,1.156c0.726,0.254 0.838,0.571 0.838,1.262l0,6.516l-3.368,0Z" style="fill:#fff;fill-rule:nonzero;"/><path d="M240.504,142.514c-4.045,0 -6.252,2.795 -6.252,8.305c0,5.517 2.207,8.302 6.252,8.302c4.051,0 6.254,-2.785 6.254,-8.302c0,-5.51 -2.203,-8.305 -6.254,-8.305ZM240.504,137.266c8.67,0 12.5,5.996 12.5,13.553c0,7.568 -3.83,13.554 -12.5,13.554c-8.662,0 -12.504,-5.986 -12.504,-13.554c0,-7.557 3.842,-13.553 12.504,-13.553Z" style="fill:#fff;fill-rule:nonzero;"/><path d="M279.172,163.799l-6.152,0l0,-15.025c0,-2.367 -0.254,-3.682 -1.151,-4.68c-0.783,-0.832 -2.103,-1.369 -3.627,-1.369c-1.523,0 -2.838,0.537 -3.629,1.369c-0.89,0.998 -1.152,2.313 -1.152,4.68l0,15.025l-6.147,0l0,-21.074l-2.466,-0.832c-0.424,-0.162 -0.58,-0.264 -0.58,-0.844l0,-3.205l6.779,0c0.685,0 0.89,0.158 1.099,0.629l0.788,1.893c1.632,-1.832 4.101,-3.1 7.201,-3.1c2.885,0 5.783,1.156 7.41,3.732c1.783,-2.259 4.623,-3.732 8.09,-3.732c2.728,0 5.039,0.941 6.67,2.576c1.791,1.787 2.576,4.199 2.576,8.037l0,15.92l-6.147,0l0,-15.025c0,-2.367 -0.261,-3.682 -1.154,-4.68c-0.789,-0.832 -2.101,-1.369 -3.635,-1.369c-1.521,0 -2.83,0.537 -3.617,1.369c-0.894,0.998 -1.156,2.313 -1.156,4.68l0,15.025Z" style="fill:#fff;fill-rule:nonzero;"/></g></g></g></svg>