<?xml version="1.0" encoding="UTF-8" standalone="no"?><!DOCTYPE svg PUBLIC "-//W3C//DTD SVG 1.1//EN" "http://www.w3.org/Graphics/SVG/1.1/DTD/svg11.dtd"><svg width="100%" height="100%" viewBox="0 0 220 220" version="1.1" xmlns="http://www.w3.org/2000/svg" xmlns:xlink="http://www.w3.org/1999/xlink" xml:space="preserve" style="fill-rule:evenodd;clip-rule:evenodd;stroke-linejoin:round;stroke-miterlimit:1.41421;"><path d="M168.805,157.546c1.587,7.342 8.334,12.701 15.876,12.701c5.258,0 9.824,-1.983 12.801,-6.35l12.601,0c-4.167,10.12 -13.992,16.967 -25.005,16.967c-15.48,0 -27.884,-12.105 -27.884,-27.683c0,-15.679 11.807,-28.279 27.586,-28.279c7.343,0 14.685,3.274 19.844,8.533c5.26,5.555 7.444,12.304 7.444,19.845l-0.399,4.266l-42.864,0Zm-80.944,21.977l-36.758,0l0.065,-0.017c-23.873,-0.336 -43.236,-19.667 -43.236,-43.616c0,-24.631 19.822,-43.984 44.218,-43.984c20.835,0 38.614,14.906 42.734,34.582l18.159,0l0,7.542c3.175,-5.854 9.13,-8.733 15.676,-8.733c5.757,0 11.412,2.382 15.283,6.549c4.365,4.862 4.465,9.526 4.465,15.578l0,20.739l-0.002,0l0.002,0.001l0,-0.001l6.845,0l0,11.311l-25.797,0l0,-11.311l6.847,0l0,-17.165c0,-3.276 0,-6.649 -2.086,-9.526c-2.181,-2.878 -5.753,-4.267 -9.325,-4.267c-3.673,0 -7.443,1.488 -9.627,4.465c-2.283,2.977 -2.283,7.54 -2.283,11.112l0,15.381l6.847,0l0,11.311l-13.123,0l0,-6.178l-5.294,0l0,-37.81l-14.934,0l0,7.184l6.617,0l0,30.626l-5.293,0l0,6.227Zm-36.062,-15.951c15.601,0 27.562,-12.785 27.562,-28.266c0,-15.014 -12.313,-27.446 -27.326,-27.446c-15.249,0 -27.681,12.197 -27.681,27.562c0,15.482 11.963,28.15 27.445,28.15Zm149.055,-15.353c-2.084,-7.64 -8.83,-12.502 -16.67,-12.502c-7.144,0 -13.991,5.557 -15.479,12.502l32.149,0Zm-109.934,-109.083c3.917,0 7.76,0.37 10.938,2.735c3.4,2.587 4.952,6.282 4.952,10.495c0,4.802 -2.438,9.164 -6.872,11.235c5.837,2.365 9.162,7.316 9.162,13.597c0,4.213 -1.774,8.426 -4.952,11.161c-3.547,3.104 -7.611,3.547 -12.121,3.547l-24.536,0l0,-8.426l5.691,0l0,-35.916l-5.691,-0.002l0,-8.426l23.429,0Zm61.589,0.002l-0.032,16.629l-7.239,-0.002l0,-7.685l-7.76,0l0,35.402l5.765,0l0,8.424l-21.581,0l0,-8.424l5.766,0l0,-35.404l-7.762,0.002l0,7.685l-7.982,0.002l0,-16.631l40.825,0.002Zm-63.658,29.341l-5.618,0l0,14.633l5.543,0c2.366,0 5.248,0.073 7.317,-1.331l0,0.001c1.921,-1.257 2.957,-3.547 2.957,-5.766c0,-2.364 -0.887,-4.506 -2.882,-5.986c-2.144,-1.551 -4.732,-1.551 -7.317,-1.551Zm11.087,-4.878l-0.001,-0.001l0,0.002l0.001,-0.001Zm-11.531,-3.401c2.44,0 4.73,0.148 6.799,-1.33c1.626,-1.182 2.366,-3.03 2.366,-5.026c0,-2.144 -0.888,-4.065 -2.735,-5.247c-1.848,-1.183 -4.213,-1.035 -6.356,-1.035l-5.173,0l0,12.638l5.099,0Zm64.102,-21.062l0,-0.002l0,0.002Z" style="fill:#4b6a90;"/></svg>