<svg width="100%" height="100%" viewBox="0 0 510 510" version="1.1" xmlns="http://www.w3.org/2000/svg" xmlns:xlink="http://www.w3.org/1999/xlink" xml:space="preserve" fill-rule="evenodd" clip-rule="evenodd" stroke-linejoin="round" stroke-miterlimit="1.41421"><path id="post-instagram" d="M459,0l-408,0c-28.05,0 -51,22.95 -51,51l0,408c0,28.05 22.95,51 51,51l408,0c28.05,0 51,-22.95 51,-51l0,-408c0,-28.05 -22.95,-51 -51,-51ZM255,153c56.1,0 102,45.9 102,102c0,56.1 -45.9,102 -102,102c-56.1,0 -102,-45.9 -102,-102c0,-56.1 45.9,-102 102,-102ZM63.75,459c-7.65,0 -12.75,-5.1 -12.75,-12.75l0,-216.75l53.55,0c-2.55,7.65 -2.55,17.85 -2.55,25.5c0,84.15 68.85,153 153,153c84.15,0 153,-68.85 153,-153c0,-7.65 0,-17.85 -2.55,-25.5l53.55,0l0,216.75c0,7.65 -5.1,12.75 -12.75,12.75l-382.5,0ZM459,114.75c0,7.65 -5.1,12.75 -12.75,12.75l-51,0c-7.65,0 -12.75,-5.1 -12.75,-12.75l0,-51c0,-7.65 5.1,-12.75 12.75,-12.75l51,0c7.65,0 12.75,5.1 12.75,12.75l0,51Z" fill="#fff" fill-rule="nonzero"/></svg>