<svg width="100%" height="100%" viewBox="0 0 14 14" version="1.1" xmlns="http://www.w3.org/2000/svg" xmlns:xlink="http://www.w3.org/1999/xlink" xml:space="preserve" fill-rule="evenodd" clip-rule="evenodd" stroke-linejoin="round" stroke-miterlimit="1.41421"><path id="Download" d="M12.147,11.667l-10.294,0c-0.637,0 -1.153,0.522 -1.153,1.166c0,0.645 0.516,1.167 1.153,1.167l10.294,0c0.637,0 1.153,-0.522 1.153,-1.167c0,-0.644 -0.516,-1.166 -1.153,-1.166ZM6.147,10.384c0.21,0.211 0.481,0.321 0.756,0.34c0.032,0.002 0.064,0.009 0.097,0.009c0.033,0 0.064,-0.007 0.096,-0.009c0.276,-0.019 0.546,-0.129 0.757,-0.34l3.69,-3.7c0.462,-0.463 0.462,-1.214 0,-1.677c-0.462,-0.462 -1.211,-0.462 -1.673,0l-1.703,1.709l0,-5.549c0,-0.645 -0.523,-1.167 -1.167,-1.167c-0.644,0 -1.167,0.522 -1.167,1.167l0,5.549l-1.703,-1.709c-0.462,-0.462 -1.211,-0.462 -1.673,0c-0.462,0.463 -0.462,1.214 0,1.677l3.69,3.7Z" fill="#fff"/></svg>