<svg width="100%" height="100%" viewBox="0 0 14 14" version="1.1" xmlns="http://www.w3.org/2000/svg" xmlns:xlink="http://www.w3.org/1999/xlink" xml:space="preserve" fill-rule="evenodd" clip-rule="evenodd" stroke-linejoin="round" stroke-miterlimit="1.41421"><path d="M7,9l-1.732,-1.516l-4.952,4.245c0.18,0.167 0.423,0.271 0.691,0.271l11.986,0c0.267,0 0.509,-0.104 0.688,-0.271l-4.949,-4.245l-1.732,1.516Z" fill="#fff" fill-rule="nonzero"/><path d="M13.684,2.271c-0.18,-0.168 -0.422,-0.271 -0.691,-0.271l-11.986,0c-0.267,0 -0.509,0.104 -0.689,0.273l6.682,5.727l6.684,-5.729Z" fill="#fff" fill-rule="nonzero"/><path d="M0,2.878l0,8.308l4.833,-4.107l-4.833,-4.201Z" fill="#fff" fill-rule="nonzero"/><path d="M9.167,7.079l4.833,4.107l0,-8.311l-4.833,4.204Z" fill="#fff" fill-rule="nonzero"/></svg>